<mxfile host="Electron" agent="Mozilla/5.0 (Windows NT 10.0; Win64; x64) AppleWebKit/537.36 (KHTML, like Gecko) draw.io/24.7.17 Chrome/128.0.6613.36 Electron/32.0.1 Safari/537.36" version="24.7.17">
  <diagram name="Page-1" id="1u1yII_o8zv7BLJUeXNT">
    <mxGraphModel dx="953" dy="515" grid="1" gridSize="10" guides="1" tooltips="1" connect="1" arrows="1" fold="1" page="1" pageScale="1" pageWidth="1169" pageHeight="827" background="#ffffff" math="0" shadow="0">
      <root>
        <mxCell id="0" />
        <mxCell id="1" parent="0" />
        <mxCell id="YeevyUvF7uNzMJiPXJwP-75" value="" style="rounded=0;whiteSpace=wrap;html=1;dashed=1;" vertex="1" parent="1">
          <mxGeometry x="229.5" y="360" width="180.5" height="110" as="geometry" />
        </mxCell>
        <mxCell id="YeevyUvF7uNzMJiPXJwP-74" value="" style="rounded=0;whiteSpace=wrap;html=1;dashed=1;" vertex="1" parent="1">
          <mxGeometry x="429" y="227.5" width="181" height="242.5" as="geometry" />
        </mxCell>
        <mxCell id="YeevyUvF7uNzMJiPXJwP-6" value="" style="rounded=0;whiteSpace=wrap;html=1;dashed=1;" vertex="1" parent="1">
          <mxGeometry x="95" y="230" width="115" height="240" as="geometry" />
        </mxCell>
        <mxCell id="YeevyUvF7uNzMJiPXJwP-4" value="Data Source" style="text;html=1;align=center;verticalAlign=middle;whiteSpace=wrap;rounded=0;fontStyle=1" vertex="1" parent="1">
          <mxGeometry x="115" y="241" width="90" height="30" as="geometry" />
        </mxCell>
        <mxCell id="YeevyUvF7uNzMJiPXJwP-7" value="" style="sketch=0;pointerEvents=1;shadow=0;dashed=0;html=1;strokeColor=none;fillColor=#505050;labelPosition=center;verticalLabelPosition=bottom;verticalAlign=top;outlineConnect=0;align=center;shape=mxgraph.office.devices.cell_phone_generic;" vertex="1" parent="1">
          <mxGeometry x="113.97" y="277" width="13.05" height="23" as="geometry" />
        </mxCell>
        <mxCell id="YeevyUvF7uNzMJiPXJwP-8" value="" style="sketch=0;pointerEvents=1;shadow=0;dashed=0;html=1;strokeColor=none;fillColor=#505050;labelPosition=center;verticalLabelPosition=bottom;verticalAlign=top;outlineConnect=0;align=center;shape=mxgraph.office.devices.cell_phone_generic;" vertex="1" parent="1">
          <mxGeometry x="176.95" y="277" width="13.05" height="23" as="geometry" />
        </mxCell>
        <mxCell id="YeevyUvF7uNzMJiPXJwP-9" value="" style="sketch=0;pointerEvents=1;shadow=0;dashed=0;html=1;strokeColor=none;fillColor=#505050;labelPosition=center;verticalLabelPosition=bottom;verticalAlign=top;outlineConnect=0;align=center;shape=mxgraph.office.devices.cell_phone_generic;" vertex="1" parent="1">
          <mxGeometry x="145.98" y="277" width="13.05" height="23" as="geometry" />
        </mxCell>
        <mxCell id="YeevyUvF7uNzMJiPXJwP-10" value="Cell Phones" style="text;html=1;align=center;verticalAlign=middle;whiteSpace=wrap;rounded=0;fontSize=10;textShadow=0;labelBackgroundColor=none;" vertex="1" parent="1">
          <mxGeometry x="117.5" y="300" width="70" height="30" as="geometry" />
        </mxCell>
        <mxCell id="YeevyUvF7uNzMJiPXJwP-11" value="" style="image;aspect=fixed;perimeter=ellipsePerimeter;html=1;align=center;shadow=0;dashed=0;spacingTop=3;image=img/lib/active_directory/database_server.svg;" vertex="1" parent="1">
          <mxGeometry x="140.2" y="335" width="24.6" height="30" as="geometry" />
        </mxCell>
        <mxCell id="YeevyUvF7uNzMJiPXJwP-13" value="" style="fontColor=#0066CC;verticalAlign=top;verticalLabelPosition=bottom;labelPosition=center;align=center;html=1;outlineConnect=0;fillColor=#CCCCCC;strokeColor=#6881B3;gradientColor=none;gradientDirection=north;strokeWidth=2;shape=mxgraph.networks.radio_tower;" vertex="1" parent="1">
          <mxGeometry x="141.5" y="400" width="22" height="40" as="geometry" />
        </mxCell>
        <mxCell id="YeevyUvF7uNzMJiPXJwP-14" style="edgeStyle=orthogonalEdgeStyle;rounded=0;orthogonalLoop=1;jettySize=auto;html=1;exitX=0.33;exitY=0.5;exitDx=0;exitDy=0;exitPerimeter=0;entryX=0.67;entryY=0.5;entryDx=0;entryDy=0;entryPerimeter=0;" edge="1" parent="1" source="YeevyUvF7uNzMJiPXJwP-13" target="YeevyUvF7uNzMJiPXJwP-13">
          <mxGeometry relative="1" as="geometry" />
        </mxCell>
        <mxCell id="YeevyUvF7uNzMJiPXJwP-15" value="Radio Networks" style="text;html=1;align=center;verticalAlign=middle;whiteSpace=wrap;rounded=0;fontSize=10;textShadow=0;labelBackgroundColor=none;" vertex="1" parent="1">
          <mxGeometry x="100" y="440" width="105" height="30" as="geometry" />
        </mxCell>
        <mxCell id="YeevyUvF7uNzMJiPXJwP-16" value="GeoSpatial DataBase" style="text;html=1;align=center;verticalAlign=middle;whiteSpace=wrap;rounded=0;fontSize=10;textShadow=0;labelBackgroundColor=none;" vertex="1" parent="1">
          <mxGeometry x="116.25" y="370" width="72.5" height="30" as="geometry" />
        </mxCell>
        <mxCell id="YeevyUvF7uNzMJiPXJwP-17" value="" style="rounded=0;whiteSpace=wrap;html=1;dashed=1;" vertex="1" parent="1">
          <mxGeometry x="230" y="230" width="180" height="120" as="geometry" />
        </mxCell>
        <mxCell id="YeevyUvF7uNzMJiPXJwP-18" value="Data Ingestion" style="text;html=1;align=center;verticalAlign=middle;whiteSpace=wrap;rounded=0;fontStyle=1" vertex="1" parent="1">
          <mxGeometry x="261.25" y="240" width="117.5" height="30" as="geometry" />
        </mxCell>
        <mxCell id="YeevyUvF7uNzMJiPXJwP-19" value="" style="image;aspect=fixed;html=1;points=[];align=center;fontSize=12;image=img/lib/azure2/analytics/Azure_Databricks.svg;" vertex="1" parent="1">
          <mxGeometry x="260" y="271" width="30.48" height="33" as="geometry" />
        </mxCell>
        <mxCell id="YeevyUvF7uNzMJiPXJwP-20" value="" style="image;aspect=fixed;html=1;points=[];align=center;fontSize=12;image=img/lib/azure2/databases/Data_Factory.svg;" vertex="1" parent="1">
          <mxGeometry x="340" y="270" width="35" height="35" as="geometry" />
        </mxCell>
        <mxCell id="YeevyUvF7uNzMJiPXJwP-21" value="DataBricks" style="text;html=1;align=center;verticalAlign=middle;whiteSpace=wrap;rounded=0;" vertex="1" parent="1">
          <mxGeometry x="245" y="302" width="60" height="30" as="geometry" />
        </mxCell>
        <mxCell id="YeevyUvF7uNzMJiPXJwP-22" value="Azure Data Factory" style="text;html=1;align=center;verticalAlign=middle;whiteSpace=wrap;rounded=0;" vertex="1" parent="1">
          <mxGeometry x="326.25" y="312" width="62.5" height="30" as="geometry" />
        </mxCell>
        <mxCell id="YeevyUvF7uNzMJiPXJwP-23" value="" style="image;aspect=fixed;html=1;points=[];align=center;fontSize=12;image=img/lib/azure2/analytics/Azure_Synapse_Analytics.svg;" vertex="1" parent="1">
          <mxGeometry x="545.6" y="248.5" width="51.3" height="59" as="geometry" />
        </mxCell>
        <mxCell id="YeevyUvF7uNzMJiPXJwP-24" value="Azure Synapse" style="text;html=1;align=center;verticalAlign=middle;whiteSpace=wrap;rounded=0;" vertex="1" parent="1">
          <mxGeometry x="540" y="310" width="62.5" height="30" as="geometry" />
        </mxCell>
        <mxCell id="YeevyUvF7uNzMJiPXJwP-25" value="" style="rounded=0;whiteSpace=wrap;html=1;dashed=1;" vertex="1" parent="1">
          <mxGeometry x="230" y="490" width="370" height="100" as="geometry" />
        </mxCell>
        <mxCell id="YeevyUvF7uNzMJiPXJwP-26" value="" style="sketch=0;html=1;aspect=fixed;strokeColor=none;shadow=0;fillColor=#3B8DF1;verticalAlign=top;labelPosition=center;verticalLabelPosition=bottom;shape=mxgraph.gcp2.speed" vertex="1" parent="1">
          <mxGeometry x="250.00500000000005" y="503" width="64.91" height="37" as="geometry" />
        </mxCell>
        <mxCell id="YeevyUvF7uNzMJiPXJwP-28" value="Azure Monitor" style="text;html=1;align=center;verticalAlign=middle;whiteSpace=wrap;rounded=0;flipH=0;flipV=1;" vertex="1" parent="1">
          <mxGeometry x="242.46000000000004" y="550" width="80" height="20" as="geometry" />
        </mxCell>
        <mxCell id="YeevyUvF7uNzMJiPXJwP-29" value="" style="image;aspect=fixed;html=1;points=[];align=center;fontSize=12;image=img/lib/azure2/management_governance/Metrics.svg;" vertex="1" parent="1">
          <mxGeometry x="353" y="501.5" width="37.65" height="40" as="geometry" />
        </mxCell>
        <mxCell id="YeevyUvF7uNzMJiPXJwP-30" value="Azure Metrics&lt;div&gt;Advisor&lt;/div&gt;" style="text;html=1;align=center;verticalAlign=middle;whiteSpace=wrap;rounded=0;flipH=0;flipV=1;" vertex="1" parent="1">
          <mxGeometry x="332" y="550" width="80" height="30" as="geometry" />
        </mxCell>
        <mxCell id="YeevyUvF7uNzMJiPXJwP-31" value="" style="image;aspect=fixed;html=1;points=[];align=center;fontSize=12;image=img/lib/azure2/general/Cost_Management_and_Billing.svg;" vertex="1" parent="1">
          <mxGeometry x="442.5" y="504.5" width="37" height="37" as="geometry" />
        </mxCell>
        <mxCell id="YeevyUvF7uNzMJiPXJwP-33" value="Microsoft cost&lt;div&gt;Management&lt;/div&gt;" style="text;html=1;align=center;verticalAlign=middle;whiteSpace=wrap;rounded=0;flipH=0;flipV=1;" vertex="1" parent="1">
          <mxGeometry x="421" y="550" width="80" height="30" as="geometry" />
        </mxCell>
        <mxCell id="YeevyUvF7uNzMJiPXJwP-34" value="" style="image;sketch=0;aspect=fixed;html=1;points=[];align=center;fontSize=12;image=img/lib/mscae/Azure_DevOps.svg;" vertex="1" parent="1">
          <mxGeometry x="529.99" y="501.5" width="40" height="40" as="geometry" />
        </mxCell>
        <mxCell id="YeevyUvF7uNzMJiPXJwP-35" value="Azure DevOps" style="text;html=1;align=center;verticalAlign=middle;whiteSpace=wrap;rounded=0;flipH=0;flipV=1;" vertex="1" parent="1">
          <mxGeometry x="509.995" y="550" width="80" height="30" as="geometry" />
        </mxCell>
        <mxCell id="YeevyUvF7uNzMJiPXJwP-39" value="" style="shape=image;verticalLabelPosition=bottom;labelBackgroundColor=default;verticalAlign=top;aspect=fixed;imageAspect=0;image=data:image/png,iVBORw0KGgoAAAANSUhEUgAABLAAAAHqCAYAAAAUDLf5AAAACXBIWXMAACPKAAAjygGvXc8KAAAAGXRFWHRTb2Z0d2FyZQB3d3cuaW5rc2NhcGUub3Jnm+48GgAAIABJREFUeJzs3XeYVNX9x/H3uXdmttN77wqoqNjAEgv2RbAsxpgYExMTk2hiiWjUOEFjNxqNJmosidFfommiUaMRgw27iAiCIB1EOuwuuzsz9/z+WIgNdu/uzu6Z8nk9z/FJ4M45n7szzN77veeeaxAREdkmDl4N7IXHeAzl2/747sIUD8eh0mE0EckQFeAPgjHGoxyYiKESuLs2xYO3wFbX+URERCQ3GdcBRETErTgU1kQ4iIDxwClArx1sthn4sw2483p4t00DiohzcSje6nOEsZQDE4DuX9zGwkYDj5iAX18Lc9o8pIiIiOQ0FbBERPJQHDrV1J+MjgcmAmWhX2x4y2q2hUjOuxS6Gp9jbUAFhiOBgpAvDbBMsx53r0/xz7sh0Zo5RUREJD+ogCUikicuh4GBxwnWUo7hK0C0hV1uNPCI1WwLkZxxCQzyPMZbQwWWMYDXwi5XGfijCfjtL2FJOjKKiIhIflIBS0Qkh02Gkb5HhTWUYxndSsNotoVIlopvW/fO8xhv4VRg11Ya6n/fEwtT/P1RSLXSOCIiIpKjVMASEckh50JB+wgHpwLGGzgZ6N3GEVah2RYiGe18KCr2GWct5QZOsNCjjSMsBO6xAfddC2vaeGwRERHJUipgiYhkuUugo+8zDst4W7+4cjvXmYDAWqZ5HnfP12wLEefi0KXO5zjqF2E/Fih1HAmgDnjM87j76iTPAdZ1IBEREclcKmCJiGShy6A/PkcTMN4ajgJirjM1YDlwbyzgzjh84jqMSL7433pWlnJjOBSIuM7UgHnA/bGAe+Kw3nUYERERyTwqYImIZIkrYoxMJSnHMB4YS/Z9h9fPtjCabSHSGuLg1UTZy6t/umgFlhGuMzVDDfC4Nfz62iQvuw4jIiIimSPbTn5ERPJGBfjDIoyh/kT0RKCv60xpY5hnA822EGmpOBQmIxxkYTyWCqCn60xp9BZwd22Kh26CKtdhRERExC0VsEREMshFUFLgczhQAZwAtHccqbXVAI8Hmm0hEtql0Nn4HG+gHDgGKHOdqZVtBv5sfe64po5ZrsOIiIiIGypgiYg4Nhn6RTxOwDAB+AoQdZ3JBQtvGMNPfpnkFddZRDLN5TDUekzY9j0xBvBdZ3LBwPTA50fX1DHbdRYRERFpWypgiYg4sH09K8+Y8TY717NqLbVgz/pliodcBxFx7YoYI23gVVhry4HRrvNkkEqL/eo1Kf7lOohItrNnEyVCZwydCeiCoTOWLnh0AToDnQnojKEQAEM7LD71RfTtTz0uBIo+020NsHXb/95M/ZOIA2BT/aDUYFgPrMOwFss6YA2WdVjWEbCODawzj1LXunsvItlGJ0wiIm1g+3pWBq/cYE+0lmGuM2UwizFTrk4GcddBRNpSfNt6VgZvvLX2ZKC360wZLGWsPe+qgDtdBxHJZPZc2pFkAB4DMQwg8AZi7ABgANAP6Og0YMM2AkuBxVizCC9YhGUxHoupZbG5e1tBTETyhgpYIiKtJA7FCZ8jDF4F2PFAB9eZsonFPBBNBd+Loyuwkrvi0Gnb98R4sBP4dEaDhGCMuc1PBufH62d3iOQlC4YfMQDr7wF2d2APYDD1RapOTsO1rg3AImAhlvfwzHukUrP4LYuMnnQskpNUwBIRSaNLoWvE51iLqQCOBApcZ8pyL0dSdmIc1roOIpIucRiQ8jnKYsYDR5On696l0d8jKfuNOFS7DiLS2rbNqBqK8Udi7GisHYExewJdXGfLIFswZj7WzsHwFsZ7H5LvmttZ4zqYiLSMClgiIi0Uh0FJj/HGmAq0nlVrWGBT9rir4UPXQUSa64oYI82n61ntjb4n0srA68mUPeEaWO06i0g62XMYRMQ/iMCMxtgD0fdHS6wCXgL7Mp7/Ep0S75i4Zm+KZBN9+YmINNH29ax8vHKLnYhlF9eZ8sA6jD3xqiQvug4iEkYcIokIB3h4FVh7EtDHdaY8sMhP2fI4zHEdRKQ5bJwI66OjCDgIOBDsoUBXx7Fy2WbgdeBlDC8RSb5sbvnf4vMikoFUwBIRCeF8KCrzGWfxyretU9PddaY8VAv221eleNh1EJEduQQ6xnzGBXjjDfYEoL3rTHloi8GeOiXFU66DiDTGxvFYG90bY48BjsayHxBznSuP1QFvAP8mME/TLfGWZmiJZBYVsEREdiIOXVI+x1FftDoOKHGdSbDGmClT9IRCyRCXQX/P52jq17M6Cp18ZoIk1p57VcDvXAcR+SL7QzpjYoeDHQf2eIzR00Yz11oMzwP/wUs8bm5lletAIvlOBSwRkc+Iw6DAYzz161mNATzHkWQHDOa+Vang+3dDwnUWyT9XxBhpkpRjzHi07l3GMsbcZvSEQnHMguHc6L5YcyxwLIZ9AN91LmmyAHgTw1MY+xS/TryuJx2KtD0dcIlIXouDl4qyl7HeeLCTsAx3nUlCe85L2VPisNF1EMltFeCPjDDG4lVYa08E+rrOJKH9bUvKfuMWtK6NtC17fmwkKSqArwODXeeRtFuOsX8H+yi/Tr6sYpZI21ABS0Tyzvb1rEz9IuzjgZ6uM0kzWd73Alseh8Wuo0huiUNx4HMEeBXUf090cJ1Jmu1VL2UnxOET10Ekt9UXrbwKsF8DhrrOI23EsgyPf4D3KL/eqmKWSCtSAUtE8sKl0LnA53jqi1bHAqWuM0narA2MnXhVkpddB5HsFodu+BxjMRUGjrRQ4DqTpIeBRcmUPf5qmOs6i+QW++PYHgTeqWAnYRjiOo84txDMI9jUX8ztiXddhxHJNSpgiUjOim9bz8oYUw4cCkTcJpJWVGOw34qn+LPrIJJdtq9n5W1bz8rq2ChnGdgQGHvylCTPu84i2c2eSztM4Vcx9ntg9nadRzLWHDB/JBn5vbljyzrXYURygQ7SRCRnxLetZ+XXr2dVbmG060zSduqn7JspcT2hUBqwfT2rbbMxTwSGuc4kbarOWnv2lBR/cB1Eso89r3g0XnA21nwNzeSW8GqAx/Hs3dxS85xuMRRpPhWwRCSrxaGQCAdZvPFgTwF6uc4kbhlr7l2ZCs7REwplu/i29awMXjnGTgS6uc4krukJhRKOndyxPVtrT8WzP8AyynUeyXrzgPsJ/PvM7ZVrXIcRyTYqYIlI1olDJ+NzhPW88Vg7EShznUkyzrOFSVtxCWxyHUTcuAa61vkcizEVwJFoPSv5ImMebZcIvnmBnlAoO2DPL94H7I8JzCkYCl3nkZxTi7V/w+PX5patr7sOI5ItVMASkaxwVSEDgxQnWGvKga8AUdeZJOPNjiRt+eWwxHUQaRvxQgaZFOOtNRXAGMBznUky3oxY0k74GWgmhGDBcH7JEcCPsZS7ziN5wvAWAbexsuoh8ygp13FEMpkKWCKSsabEGBkEXgXYcrSelTTPKow9IZ7gTddBJP0eAX/OtvWswE4AdnWdSbKQZSG+LY/X8YHrKOKGPZcCoiWnYpkMjHCdR/KUtQsx5naqqu4xd1PtOo5IJlIBS0Qyxm1QsD7CwdSvZ3Uy0Nt1JskJVcba069M8ZjrINJyv4KiLT7jbP16VicAPVxnkpyw3sOe9PMk010HkbZjLyzrguUsAnseRmtoSsZYA/Y+ovY2c0P1StdhRDKJClgi4tS10LHOZxz161lNANq5ziQ5yYKZcqWeUJiV4tDF8znOel451h6Lnv4lraMOa79zZYoHXQeR1mXPL+qNiV6Ktd8GilznEdmJrWDuJ5m41ty+dbnrMCKZQAUsEWlzV0P/IMrRWDPewtFoPStpK9bcY1PBD+KQdB1FGrZ9PStjTbmFQ4GI60ySFyyYKT9PBr/Qo+5zz7YZVxcB56HClWSPOiwPEE39QjOyJN+pgCUibWJKjJE2oBzMeGAs+v4RRww8EyRtRRw2u84in4qD50XZy1pvPNgKtA6NuGTMX2wiODMONa6jSMvZH5Z1psCcC5yPZnpL9qoGfo+futbcWPWx6zAiLugEUkRaxSPgz48wJsCrwNgTsfR1nUnkM94LkrY8DktdB8lnv4KiqggHWv5XtOrpOpPIdhZeiSbtRD2hMHvZi7uUESR+gOVSoL3rPCJpUoXlN8S43ly3aYPrMCJtSQUsEUmrOPTyfS9ujT0VXeWUzLYiMLY8nmCm6yD5Jl7AED/wptj6de+KXecRacA849vjr6hloesgEp6N9ypmS+UFYC4AOrrOI9JKNoK9BVN0s7lpdZXrMCJtQQUsEUmLOBT7Ec61mMuAMtd5REKqstaedmWKx10HyQfXQse6iDfZYH8CFLjOIxLSeg974uVJXnAdRBpmwXBB+1Mw5kagv+s8Im1kJdhfULbp9yZO4DqMSGtSAUtEWiQOnuf7X8fY69DtP5KdUhgu+HkiuM11kFx1F0RXR/1vYe3VQFfXeUSaodZac9aVqdRDroPIjtkL24/GeLcCB7nOIuKGeRNjf2Ju3PCy6yQirUUFLBFptqsikXEQ3ASMcp1FpKWM5e5kKvhhXE8oTKurfX+8xd6CYbDrLCItZIEpVySDuOsg8in7ky49iabiWL4DeK7ziDhmgb9i7U/NzRuXuA4jkm4qYIlIk10VYziBuQFMuessIulln04l7alxPaGwxa6Osp+1/k1gD3adRSSdjOWBZCr4XhzqXGfJZzZOjC2dzsEwBa25KfJF1WBup9q72ty5ptJ1GJF0UQFLREKLQ6+I711pDWcBvus8Iq1klkkG5ZfDMtdBslEc+vlR72osX0fHGZKzzMupZGpiHNa6TpKP7E+7lIO9HRjgOotIhluCMeeZG9ZOdR1EJB10YCkijYpDsR/xzgW0QLvki5WeCcZfluBt10GyxbXQMRnxJgNaoF3ygrEssJHguCtq+dB1lnxhL+reDZI3YfiG6ywiWeYJknzf3LJuhesgIi2hApaI7FQcvGjU/7o19jqsFmiXvFNpA3PaFanUE66DZLK7ILo26n/LogXaJS+t82xw4s+SvOg6SK6zP+1agbF3Al1cZxHJUhuBydyw9h5Tv1aWSNZRAUtEduiqSGScMVqgXfJeCvjJ5YngN66DZKKrC/zxBPZXwBDXWUQcqjXGfPuyutTDroPkIntR94H4we+w9ijXWURyxAvA2eaGtfNcBxFpKhWwRORzroox3FjvF0CF6ywiGeS2ZCI4Pw6B6yCZYEqUfQ3+zUYLtItsZ61hyhV1ekJhutg4HtVdvgPmZqDUdR6RHLMVzA1s/OSX5m4SrsOIhKUClogAEIcusah3hYUfogXaRb7M2n8mkvb0OFS7juLKdUX0Sya9qw1aoF1kJ+7rkgi+/z10QtgS9tIeIwhSD4DZ13UWkdxm3sLnTHPN6tmuk4iEoYNPkTwXh+JoxDsXw8/QY6hFGmTh3WgkKJ+8leWus7Sla6FjEPMmY/kxUOg6j0hms88lEvaUeP16M9JEdnK3M4A7gRLXWUTyRA3Gxilcc6OJa6a5ZDYVsETy2NUxv8IE9lYMvVxnEckiSzBB+WV15MXVyl9G/bPBXgt0cp1FJFsYeD/wg+Mvr2GJ6yzZwl7aoyuBvRcY7zqLSJ56Fps609ywdqXrICI7owKWSJ66uoi+Jul9ABS7ziKShSoJzFcvS6X+5TpIa/pllD3BewvwXGcRyUJrjQ0m/izJy66DZDp7cbcj8bwHQBfURBxbg7VnmetXP+46iMiOqIAlkqeuiXp/Bk51nUMki6UMnHdpIrjTdZDWck3U/AfMEa5ziGSxGmvMty6rS/3ZdZBMZOMDCqmpiQM/RYVykUzyIEl7jrlpdZXrICKfpQKWSB66OsoBHt4r6DtAJB1uq8vBJxReE/NPwtq/uc4hkgOsNUy5TE8o/Bw7ucdIPPMQMMp1FhHZAcNcAnO6uW7lO66jiGynk1eRPGPBXBv1XwR7oOssIjnD2r/XJe034jnyhMI4xAqi3mwLQ11nEckVFn7fJRH8QE8oBPuznl/HmrvQMgYima4Wy4/MdSt/7zqICKiAJZJ3ro35p2Ptn1znEMk95rUgkZpwGax2naSlrol4FxnDja5ziOQai33WS9iKS2CT6ywu2DgR6npdjWWy6ywi0hTmQWrM98wty7e6TiL5TQUskTzyKyiqjXpzgf6us4jkIgOLAhOU/6yOOa6zNNc10NWLevMtdHCdRSRHzU75QXm+PaHQXtanN9Y+CoxxnUVEmuVtgtTJ5rqPF7sOIvlLiyWK5JHaiHcRKl6JtBoLA431Xr3O9491naXZot4vVLwSaVW7+YE34/oo+7gO0lbspX0PBt4EM6b++rmamloWtr3xIm/Yy3uNQ8QR4zqAiLSNX0J3L+p9CJS5ziKSB5LAuZcmgt+5DtIU18cYHlhvFhBxnUUkD1QZY06/pC71mOsgrcle1uds4DdA1HUWEUmLFJbLuGb5DQas6zCSX1TAEskT10W9+4EzXecQyScWbqvNoicUXh8zT1lrjnGdQySPWGuYcmkOPqHQxnsVk/TvxfJV11lEpBUYHqGm7tvmptVVrqNI/lABSyQP3BBlzwDvLXTbsEjbs/avsaQ94wLI6IVPr/P9Y/Hsk65ziOSpe2oSwQ/i9bM3s56ND+hBXTAVw76us4hIazKziCaPN/EVy10nkfygApZIHrguav4D5gjXOUTyl3nVT6Qm/BQ+cZ1kRx4Bf1HUm2lhN9dZRPKWsc/U1NmKOGx2HaUl7KX9RuDxLwwDXGcRkTaxgsArN9csnuk6iOQ+FbBEctz1Mf8ki/2b6xwiwkeGoHxyHXNdB/mi6wq8H2L5jescIsJ7+EH5JVtZ6jpIc9jL+x8O/A09CEIk32wh4FRzzZKnXAeR3KYClkgOi0OsKObNBoa6ziIiAGzA806eXJN83nWQ7W6BDnUF3odYurjOIiIArApsMP7SBG+5DtIU9oqBZ2DtPUDMdRYRccEmwfzIXL34LtdJJHepgCWSw64r8C4y1tzoOoeIfE6dsXz34kTqj66DAFwfjdyMsRe4ziEin1NlDaddUpt63HWQxlgw/HzAlVh+js4tRARuw198volnxwNsJLvol4xIjroGuvoxfz6axi+Smay5bWsi6fQJhdcWMsgL/DlAgasMIrJTKYy9YHJtcJvrIDtj4yNjpKrvAc5wnUVEMsqf8IvPMvH361wHkdyiApZIjrqhwL8Tyzmuc4hIgx6N1KW+6eoJhTfE/H8AE12MLSIhGe6urk39MJ5hTyi05w4poEPqEQwnuM4iIpnIPI9XdIKJv1/pOonkDhWwRHLQ9TGGG/xZQMR1FhFp1IxkXWrCz2BNWw56Y2HkUBvYjFmLS0Qa9HRhXerU8zLkCYX2ou4lFJX8E8M411lEJKO9iOeVm/iCjPjukuynApZIDroh5j8FHOM6h4iEttAjVX5RHR+0xWBx8Ipj/uvA6LYYT0TSwc7y/aD8wq0sc5oiPqADgf8kMMZlDhHJGm/h+ceY+Py1roNI9lMBSyTH3FTgHxtYnnSdQ0SabD2BOeniZHJ6aw90Q9T/NoZ7W3scEUm7lVhv/MWJxNsuBrfxPp2g4Gks+7oYX0Sy1hxM5EgTn7fSdRDJbipgieSQR8BfEvNmgtnNdRYRaZY6Y/nORYnUg601wB1QWl3/gIeerTWGiLSqSms47eLa1BNtOaiND+gBkWew7N6W44pIjjB2HphxJr5guesokr081wFEJH0WF3jfV/FKJKvFrOEPN8YicdtKF5mqY5FLUPFKJJuVGss/byzwftRWA9r4oH7Y6ItYs3v9V5OamppaE5v1dgHvJRsfPASRZjKuA4hIetwCHZIF/odYurjOIiItZ+AvlXWpM+NQk64+ry+ij5fy5wHF6epTRByy5raqRPL8OAStNkR82CCwzwP9WmsMEckrKyA41MQXLnAdRLKPClgiOeLGaORmY+wFrnOISFq9Ql1qwkWQloVPb4r5DwOnpaMvEckY/6ysS50eh+p0d2yvHtabJC8Ag9Ldt4jktWXgHWLiHyx2HUSyiwpYIjnglkIGpQJ/DlDgOouIpN0CY1LHX1jL/JZ0cmM0ur8xwQz0u18kB9mZKT8YP3kraVtbxl4zpCuJyH/BjkhXnyIin7ILiPiHmMvmrnKdRLKH1sASyQGpwL8ZFa9EctUQa/1XbopEDmluBxaM5wU3o+KVSI4ye/op/9UbotE909GbjQ/oQMJ/WsUrEWk9ZgjJ4Bl7za6dXSeR7KEDWZEsd2Nh5FAT2Odd5xCRVlcLnHVRXeqhpr7wpph/GvBw+iOJSIbZYgxfvbA29WRzO7DxIe0w0WfB7pfOYCIiO2ZnEosdbi59b4PrJJL5VMASyWJx8Mpi/uvAaNdZRKRNWDBTLqxLxsO+IA6FZTH/A6B/q6USkUySNNb++IJEcGdTX2h/1aeIyrKngK+0Qi4RkZ2ZQeAdZeLvV7oOIplNtxCKZLGyqH8mKl6J5BMD9sqbY/79cYiFeUFZzLsQFa9E8knEGnPHzdHIr+NNONa38ZExKsv+iopXItL2xuAF/7TxAYWug0hm0wwskSx1B5TWFPjzgZ6us4hI2zMwzdSmTj4fNu5sm1tL6J5K+vOBdm0YTUQyhIG/l9SmvvG9Rp5QaON4eCMewXByW2UTEfkSa/5B8P4pJk7gOopkJs3AEslSNYWRS1DxSiRvWTjcFkRev6GAoTvbJpXwr0HFK5G8ZeGkqpg/7dYSuje4oTfyRow5uf7atpqampqjZjgRf+RNiOyEcR1ARJrutiL6JAN/HlDsOouIOGZZF/hm4kVbky999o9vjkZHGS94C/AdJRORzLEosKnyi+qY88W/sFeN/C5wt4NMIiI7Yc8zV8y53XUKyTwqYIlkoZsL/YeN5TTXOUQkY9Qay7fOr0v93/Y/+FWB/ywwzmEmEcksWwycen5t6qntf2B/ufuxWDsViDjMJSLyRQGYk8zl7z3mOohkFhWwRLLMrUXR/YMgmIH+/YrI51lrzJQLa5LxW2L+RGv4h+tAIpJxkmDPvaA2+J2dMmovvOAFoNR1KBGRHagmMIebn896zXUQyRw6ARbJIhbMrQX+i8CBrrOISIayPGCMOdBid7o2lojkt4KiyL3fv3DY0cbQx3UWEZEGrILkGHP53CWug0hmUAFLJIvcEvNPw/Cw6xwiIiKS3YaOaMfRE3oTieqZTiKSyewcEv6BJj5zp09dlvyh31giWSIOhRiudZ1DREREst+Hczbztz8upro66TqKiEgDzAiiwZ/tIxV6KI1oBpZItrgl5l2GMVe7ziEiIiK5o33HGBNO60enroWuo4iI7Jw115rLZv7MdQxxSwUskSxwawndSUbmA+1cZxEREZHcUlDkUz6pH30GlLiOIiKyMxbMJPOzd/7qOoi4o1sIRbKASfjXoOKViIiItILarSn++afFzJ21wXUUEZGdMWDvs9fsNcJ1EHFHM7BEMtxt0eiowLNvAbrvW0RERFrVnvt35pBjemF0liAiGcnMoza6n4m/ttl1Eml7EdcBRKRh1rM3GRWvREREpA28+9o6qitTHDmxj55QKCKZaBcKE3+wlpOMwboOI21LJ8UiGeyWmD/RGKPFCkVERKTNrF9Tw/JFlQzatR1RFbFEJPPsyku9tvziuVUzXAeRtqXJwSIZKg6xjgWR94BhrrOIiIhI/mnfKcYJpw+iY5cC11FERL4oieeNMxe/Md11EGk7KmCJZKhfF0QuAG52nUNERETyV2FxhONPHUDvAaWuo4iIfIFdQeCPMj97fZ3rJNI2VMASyUC/akenSF3kQ6CT6ywiIiKS3/yI4YgJfdllDx2WiEiGsfYf5pK3TnIdQ9qGClgiGei2Iv83WPND1zlEREREADCw31d6sP+hPXUGISIZxnzHTH79XtcppPXp149Ihrk9FtvVesEsIOo6i4iIiMhnDd2tI0ee2B8/osXdRSRjVEEw2kx+c57rINK6VMASyTC3FUaeBI51nUNERERkR3r2K+H4rw2mqDjiOoqIyHZv0T41xnzvrYTrINJ6VMASySC/KYwcYeE/rnOIiIiINKR9pwLGf30oHfSEQhHJHFebi1+7wnUIaT0qYIlkiEfAX10UeQfL7q6ziIiIiDSmsCjCcacNpteAMtdRREQAAgxHmJ+++l/XQaR1qIAlkiF+UxA9xxp7p+scIiIiImH5EY/DJ/Znl1GdXUcREQFYQuDvbia/vMV1EEk/FbBEMsC9ULa1MPIh0N11FhEREZEmMbDvob3Y7/DerpOIiIAxt5uLXjnPdQxJPxWwRDLAbwoiN2D4qescIiIiIs01fHQXxh7Tj8IiLe4uIk4FBMEh5uJXX3YdRNJLBSwRx+4sLBwUkJwDaBVUERERyXoFhRE6dSukU/ciOnYtplP3Ijp3L6K4NOo6mojkjw+Itd/TnPdUresgkj66PCLiWMombzRGxSsRERHJDbU1SVYtrWTV0srP/Xl9YatoW2GraFthq1iFLclLFkgaS9RqTkkr2ZXEpkuAX7gOIumjfy0iDt1RFBmL5SX0b1FERETyVEFhpL6o1a2ovsDVrYhOPVTYktxigWdL1vP3sjW8XrSZdV4CH0PPZIxDqjvytc3d2L221HXMXFOHYW9zwcvvuw4i6aGTZhFH4uB1LYy8BuzjOouIiIhIpvl8YatYhS3JWisitfyw+zzeKdz5g/EMcOrmHkxZN5CCwGu7cLnO8BqbXxpr4gSuo0jLqYAl4sgdhdEzwd7vOoeIiIhINvlfYat7EZ26FtOpezGdehRRXBpzHU3kSxbGqqno9R7rvESo7fetaceDq3ajyKqIlTbG/Mic/8IdrmNIy6mAJeLAXVCcLIx+ALav6ywiIiIiuWBHha3OPYspKtGMLXGjyqQ4ts87LInWNOl1p2zpzs1rhrZSqry0hUSwq5n88krXQaRltIi7iAPJwsglRsUrERERkbSpq0ny8ZItfLzk87dpFRRG6ota3Ys/fSpizxIVtqTV3dVhZZOLVwB/LVvNaVt6sE9Nu1Y7pP+TAAAgAElEQVRIlZfKiPnXAt90HURaRjOwRNrYHUX0NTbyAVDsOouIiIhIvippV0DH7kV07VnCfkf1x/N1aiTpkzSWffu+yno/3K2DX3RMVRfu+mREmlPlNYsNDjAXvPi66yDSfJqBJdLmotdirIpXIiIiIg5VbamlakstyxdsJFGX4uAJg11Hkhwys2Bzs4tXAC8UbaDOBMS0Fla6GDzv19Yy1his6zDSPCpgibSh3xZF9wO+psmPIiIiIpnj/ddW061PO3YZ3c11FMkRi5tx6+BnVXspVkTqGJgoSlMiwXIAtxx2Gjz/sOso0jwq54q0EQvGws2oeiUiIiKScV6YupC1q6rBGDW1FreNXrLFn8m1fsL5fuRc87jB3nhUSRq+MsQBFbBE2sjvimKnGjjIdQ4RERER+bJUIuDZh+dSW9PywoOINS3vI6U73VpDbyLJn7oOIc2jApZIG7gfCsFe6zqHiIiIiOzcpnU1THtkPpABM0XUsrulg+t9yNXmcbH9zeH90/MmSVvSGlgibaCuMHKBgQGuc4iIiIhIw5bOXc87/13GXof1cx1FslqailhafaQ1FJGy1wCnuw4iTaMZWCKt7LeldLOemew6h4iIiIiE88YzS1j24XrXMUSk1ZjT7G2HjXKdQppGM7BEWpkJotdgaec6h0hb6zqqA8c/OrbBbRKVKf489j+kalJtlEqk5Qo7FfDVV49odLu6zUke3ueZNkgkIulmreW5h+dx8o/3pqxjoes4ko3ScRthOm9HlC8yGO9K4CTXQSQ8FbBEWtHvSqKjTMCZrnOIuDDs1P4UtG/4oL+gPQw4qgcfTV3RRqlEWs4YGv1s12+X0I0fIlmsbmuC5x6ay/jv74kf0Y0r4oJBtxC2Imsm2luP2Nf85Lk3XEeRcPRNLNKKPMuNgO86h0hb8yKGwSf0pf7XTMNtaMUAVzFFWqDxz7ZOOkSy3yfLNjPjiYWuY4hI6zB43pWuQ0h4moEl0kp+VxybYK090nUOERf6HNaToq5Fobbte3hPiroWsnVNTSunEkmnMMUpFbBEcsGcGSvo1rcdw/bp4TqKZBXdQpgljre3jTvAnPefV10HkcZpBpZIK7gLosbaG1znEHFlWMUAws1Q8fAiPoPG93WUVKQ5DGE/3yKSG178xzzWrqjk01u61NQaa+niej/yoBl/Svj3Q1zSDCyR1lAU/ZGBYa5jiLgQK4vS76g+NOXkfdikgcy578PWCyWSRvWnJWE+315aT2FExJ0gEfDcQ7M58cf7EivUKZSEkK5fAPpF0haOtHce+xXzg6emuw4iDdOlQZE0u7M9HT24zHUOEVcGntCPSHEUjBe6dd27Kx2G6mGdkkXCfr5FJGdsXruV5x+eAzYDZoyoZUlrKdf586gF9uqw74q4oyMrkTSL1EWnWOjsOoeIK0MrBhP+9qpP25CTBzrJK9I8uoVQJB8tnbuWmc8vdh1DRNLvIHvb0Qe7DiEN0/xXkTS6KxbbFez3XOcQcaW0Twk9DuhBc646Dq0YypvXvws2/blE0i/cLYQiknvefPojuvRtR59hul4prUyLuLctnwuBF13HkJ1TAUskjTyPm4Go6xwirgw9ZQjG85v12tK+ZfTcvzsfv7o6zalE0qv+VEJrYInkLWt5/k+zmfiTAyjrVOg6jWSsdN5CKG3DnGDvOH64+eG/5rpOIjumApZImtxTGjmcwB7nOoeIS4NPHkxLDrSGTBrCx6+pgCUZzvzvP41vqPMOkZxUuzXBtIdmUX7OPvgRzbYUyREG7HnAOa6DyI7p21YkDR4Bn8Dc6jqHiEtd9uxCx1060Zz1r7a3QRMGEynStRXJdIZwn2lVr0Ry2Zqlm3j18fmf3ualpva5loYPmSED9iPv2pn2nhO6p+Hdk1agswSRNNhSHP2ugd1d5xBxaegpw2jpdZFYWSH9xvVl0eOL0hNKpBXUn5PoFkIRgQ9eWUa3fu0Zuk9v11Ek46StgpWGfqQJCqkLzgHiroPIl2kGlkgL3duFMou50nUOEZe8iMegE4eA8VrchlTs6np3RBoX9jMtIjnv5b/NYd2KzZ/WGtTUDOnheh/ytXn8wP6qoijMWyRtS0dWIi0UVMWuANvDdQ4Rl3of1o+irqU0dkvV6jc+aXSbPkf0p7CTjhkk04W9NVZEcl0qETDtwXepq0ni/sxbLbNaS7nOn7etK0U1Z4R5h6Rt6chKpAXuKSwcaIw9z3UOEdeGVOxCYyfydZsTvHjetEa386IRBk0c0vY7IdIkKmCJyKc2r61m+kPvgXV+4q2WMS0dXO9DXrfzrU3bGylpojWwRFrA85I3gilwnUPEpWhpjH5HDaKxk/Ul/1rE5oUbWffeOjrv3rXBbYdUDGfufe+lMaVI+tQfzWoNLBH5vGVzPuHd5xcy6ojBrqNIJkhnDUtc2IXfjT8MHp/mOoh8SpcGRZrpvqLIWDAnuc4h4trAE4YSKY7R2JWsRVMXALB46oJGt+06uiftB3ds4z0RCautr8CLSLZ4+8kPWTFvLRkwe0QtI1o6uN6HPG6e990w75C0Hc3AEmmGOHjWeLeSvt9MIllr8KQRNHY9pG5zLStfXA4YPnrsQ0ZfdlDj/Z4ynLevn5GekCJpZQg7A0u/JkTyi7Xw3wdnMeHCAynVeo75LR1f/8bUN3HlJHtfRVfz7UfXuA4i9VTAEmmGfiXRb2DZ13UOEddK+pTR44C+NHaUtvTpRdi6FAaoXLyJ9bPX0mm3bg2+ZvApI3jnhhlg05e3VRko7duOdgM6UNilGL8wQu3GGmrWbmXTh+up3bDVdUIACjoWUdq3HSW9S/ELIsTa1d8FnaisI0gE1G2qIUgEbFm2iarlWxynDcFAaZ92lPZtT2GXIqKlMYzvUbephrqNNVSvqmTz4o0EiSCdQxKugGVCnb8UdCyi/ZCOFPcsJVoaI0gE1Kytonp1NVuWbCRZlWhR3tbkF0VoN7AjZf3bESsrwC+MULephkRlHVsWb2LLss0EdSnXMUXaVF11Hf/9wzsce+4B+BHd8CKSxWIk6r4O3OI6iNRTAUukiR6BokprrnKdQyQTDD5pOMb3G91u8dT5n///jy+g0+4NP7yzbEBHuh/Qh9UzlrcoY0P2ungsfY9qfK2Smb+awdInF3zpz6OlMQacsAv9jh5Mj4P7Eivb+ZJ41R9XserFJSx9egFLn17YZif10ZIYA8YPo+eh/eixf19K+pSFfm2ispaN89ez8YO1rHxhKcv+/RGJytpWTBtOSe8yBowfRu/DBtJ1nx7E2hU2uH1Ql2Ljh+tZ9eJSlj2zkNWvLm95QcuEOCltYJvOu3djyFd3o/fhA2g/pNNOt0vVplj92nJW/GcRH/19LtWrq5qTNq26ju5J/+OH0uuQ/nQc2RWvgRP0IBGwdubHfDxjOYunzmPdu6vbMKmIO2uWbuT1f85lzCm7uY4izqRlClaa+pHmM2dby63GZM0l1ZymApZIE1UWxy4B+rrOIZIJBp+6O43ePrillpXTl3zuzxY9Po+9f3ZI4/2fMqJVC1il/TrQeVTPRrcr7FTyuf9f0KGI3c7dj+Fn7UW0JBZqrOIeZQyu2I3BFbux9ZMq3r/zDeb8/i1Sta1TyGo3uCN7/OQABp6wK5HiaLP6iJYW0XXv3nTduzdDvzaKVG2KVS8uYeGjc1j8+AdpndUURu/DBjLy+/vQ+7CBTTqe92IenUZ2p9PI7oz8/r5sXVPNB/e9zQcPzKRmbXUz04S9hfDzuu3fh9E/O5geY8P9GvELPHodMpBehwxk70sPYd6Ds3jvN69SvaqyiXlbxov5DPv6KIaftRcdhnUO/7qoR7d9+9Bt3z7scd4BbJy3lvd/+yYLHn1fM7Mk533w8hK69O/A0P102CjNpFsIM8Gu3HvSWPj7y66DiApYIk3yh6Ki3ilSF7rOIZIJOo/qQYdhDT9NEGDZ0wu/VKTZvGADG+aspeOIhm8jHDhxBK9dNo1UTbJFWXcu7FpGnxp40nAOuPZICjsVN3vUom5l7BM/nGFn7MX0701l7cxVze7ri6IlMfaJH8awr49qcGZMc/gFHn3GDaHPuCGMvvxQ3v7ldBb+/f1Wv82zy5492fcXh9FjbL+09FfUtZS9Jh/C7j8aw7u/epnZv3ujGcWUphWwIsVR9r3yMHb91t7NvpjuF8UYcfY+7PKNPXn9yml8cP/bzeuoifoeOZj9f3kkZQM7tLivDrt048Bbj2P3c8fwRnwaS5/+MA0JRTLXjEdn06lXOzr3ae86iog0V8B3ABWwMoBuyhZpAkvqOgMlGfBMDDU1523IKdtnXzXcFk+dt8PXL35sXqOvjbUrpt9RQ1ptH+r/2/g+GAx+1Gfsjcdw6F0nUtipNNTrGmvtBnXmuCe+weCTR6Zlf7rt05uJ07/DrmeOxotE0pJxZ620bwcO+d0Ejn70NIo6l7TK++PHfPa54jDKn/4mPcYOSPs+REoKGH3F4Uyc/h267NGjCdnCfW7qPztQ3L2U46Z+nV2/vQ/1txW2rPlFMcbccAxHPHAyhR2KWu3fR6Qgwtgbj2Hcw6dSNrBTWn/27QZ35ogHKzjkjvHESgva5DtLTc1FCxIpnr/vTWqrExmQRq3tWzq43gc1MKfa+ye2/CqOtJgKWCIh3Vcc3dsavuY6h0gm8CIeA08eSWO/8BOVdaz876Id9rF46geNvh4Mgyv2aMU9CXfg4sUiHPbAKexy5ujQrwnb/IIoB99xAgMmDG/RnvQ9eihH/+10Svt3THvGhlqvrwyi/JlvUdKnXYvyf1Fxj1KOe+IMdj9v7LZ11lpvH9oP6cJxT36TXc8a3YSE4fou6lbCcY+fQedRvdKeu9/xu3Lck2dQ1L20CbnDibUr5Mi/fLVVPvOfbYMn7cHx/z6T0n6anSK5q3L9Vl56aGb9ZNXtt4Sp5UFLw4fH+T6obWtFJKOnpeEdlRZSAUskJGO8W9G/GREAeh06iKKuZTQ2y2LZvxfs9Pa/TQvWseGDtY320fvwIS26Xa9hptHxwWPPyV+h71HDQm3bnGb8CAfdNoGOwxu+pXJn+hw5lMMemESkuKDVMjbUSvt15OhHv060dOeL2DdFx+HdKH/mO3TZq0+b7YNfEOOA645j3ylH1R+sNipcn0f97euUDezcarnbD+3GUX89nWhpuLXYwoiWxjjqb6fT48CBrZb7s63DsG4c/9RZtB8cfm0tkWyz7P3VvPefLz8MRESyhVUBKwN4rgOIZIP7i2IVWHuw6xwimWLQKaMIc2JaP8tq5xY/9kGjfXixKANOHNk6OxKygJWuWwYbapHiAg69fxLRkqYVgToO78ZX7j6l1W8ZbKy1G9KV/a87pknZd7Y/R//jDIp7tneyHyPPGcNBt58QoojVeF9+QYyOu/Zo9cwdd+3B2JvHh/0RN8j4HofeN4kue7Zd8RA8irqVcdTfz6C0r2ZiSe5658kPWDFvjeuZJGpt1dIzBcv9fqhtbwfaP1T0TsObKi2gRdxFGvEIxKoN16bld5BIDoiWFdDvuOHUr+Wzc4nKWlY+v6D+GG4nlj4xh70uObzRMQdXjGLefW80NWqjDF6j+9GW2g/pyn6/PJpXzp8a+jWVSzew9F8fMPire7ZisnCGnLoX8+57k7XvrGjW64u6lXLU375JYZf03xLXFEO+ujd1m+p44/Kndvj39eclmfO5ARh48h589NdZLP9PyxZF3+1HY+l9+NA0pWqakt4dOPS+U3l6/H2kalvrwQ0iDlnLc3e9yq4HDWTv8SOJxHzXiaRVpamA1YR+LPBMbAV/L1jKO9F1fOJtJYJHn1QxByW6c3rNIIYntZRTM3kk7CnAr10HyWeZdfQlkoGqSmIXYBjsOodIpuhfPjLUrWrLn/mw0acHbpy3ho3zGr+NsOs+/Wk3qDVuLzKNjt3Wbchpo+k4vHvoPUhWJ3jp3H/wyvmPk9qacpvf+Oz+40NCZ/8s43sc/LtJFHVr53YftrV+xwynoENDt666z/jFtvcVYW9/3LH2w7qy58VHON2HLnv1Zc/JRzR7H0QynQ0sc1/4iKnXTWP1grWu40gOWepVcXL75zm73Ss8XbCc1d5WLJAgYJFfyYOFCzm2w7P8tPRNamjqk3cFAMMk1xHynWZgiTTgj6Wl3QJbd4nrHCKZZFDFXtSfbDZsydQ5ofpb8tgcOlzcI9S4M6//T6g+w9tewGq+mrVVrJ+9irrNNaS2JogURynp1Z72w7oSLStseiLfY9fvjmHGBf9s0us+/NObrJu5gkPvO23bmktflqyqZeX0hXzy+hLWvrOCug1bSVTWULe59n/bFHQsorRfR9oP7Uqvrwyh16FD8IuioXP0OXI4BZ1KqF1f1aT8w87Yj54HN/9aQfWqzVQu20DdphrqNm0lUhSjuEcZHXbtTqSkaetDrZu1kudO+wO1G6sb2KplnxuAymUb2bxwLTXrqvALIxR2KqbjyB7E2hU1q7+OI3rR69AhrHy+ebOwRl9xNH5B+J+VTQYsf3YeK6Z9yNp3lrN1zRaSVQkKOhZR3LM9PQ4cQN9jhtN5VNPuuBjx/QNZ+Jd32Djvk6bugkjW2LKuiqd/8xLDxg5k3xN3IxLTaVnOScsELBPqwsT8yCZOK5vOWq+mwe0s8EjhIuZHNvHw5kMpsfrcNY0ZY3//tf7mOw8vcZ0kX+kTK9IAS+JqA1qQQ2Sbkt7t6XHgYBo7KktW1bJi2vxQx25Lps5m1MXjGt1u0Cl78e4Nz4G14cKG0vwC1pKp7/H+HS+y9u1lO+7Z9+i2X392/e5Y+o/frUl9D5w4itcveZygrmlXSDfMXsW/jriTsbefQr/jP79u2IKH3uStKU83WlhKbNpK5eL1fPzCQubd+yqFXUrY/SeHMfzssaEOor2YR5/Dh/LRX2eGzh1rX8Rel4yjqe/Fhjkf8+GDr7Nq+gI2fbhmh9sY36Prvv0ZdMooBk/au9Fi3MrnP2T6tx8iUVm708+vacHnJllVxwf3zmDBw2+yeeGXZ1+YSP2Mw5E/OIi+xwxv8oyqwRV7saoZBayu+/an7zHh15pb8sRs3rnqaTZ/tO5Lf7f9M/TJjEXMuul5eh8+jH2mHE/7XcI9pMCLeuw5+Uimf/uh0HlEspKFD19exKoPVjPmtL3pOayr60SShSpNgrNLX2m0ePVZMyPrubD0dX63ZWwrJstJBpM8BbjZdZB8pQKWyE78qTQ2ImXtt1znEMkkA0/eE+M1fuK+/Nn5pLYmQvW5cd5qNs1fQ/thDZ/clg3oTLf9+vPJa4tD9RtO0xdZTVbV8tIPH2Xpv2Y3uJ1NBayesYjVMxbRv3w3DvrtV/ELw/3ajZYV0WXvfnzy6qImZQOo21LDf7/1EMPPHsvoK4/Di/q8fdVTzL5tepP7gvoZZm9c/gTrZq3koDvCzZzvdsDAJhWwhp99IAWdwq97Vbd5K29c9gQL//J2owVNmwr45NVFfPLqIt698Tn2+cXxDDx5x+uFLfzL28w4/28EiTCFw6ZfWl/zxhKmf/tPVH+8Zed5k5/m7XnIYA75/dco6FgSeow+Rw/HeAYbNK3QO+KcgwizTzawvBX/F3N++1LovldMm8/q15Zw0B2TvlRY3Zl+x42kbGBntiz6coFMJNdUrqvm2TvqZ2ONPnF3ogU6RcsNaZiCZWj0QsZdRfNZ5O/898rOPBVbzgux1RySaHwWvHyGMZNQAcuZls9/F8lRKcstqMgr8jmDJu1DmHVsljz2XpP6XTJ1dqh+B03aOy378ammrYEVJCzTvvHHRotXX7Tkidm8dM5fmjRWt/36N3+3rGXuXS/z7wl3M/euV5pdvPqsjx55m48enRkqe4fhPUP360V9hn1zTKh+waNqxRaePPpOFv75rSbPxtu6egsvfv/PvHzeXwnq7Of6fe/W6bx87qMhi1eEzru9LXv6A5458Z4Gi1dftOqFhTx59J1s/aQq9DixdiV0HBH+5w9Q3LMd/Y7dPVT/s26e1qTi1XbJqlpe+O7DfPLqklDjGD/C4EmjmzyOSNayMP/lRTx21TMsf+9jPr3Aopa9LR0aHiOB5YHC5j+844HCBY2OofaFZs1+9oFTtT6yIypgiezAH4sLxgNHuc4hkkk67d6bDrv0pLETz2RVkhXT5jWp7yVT32u0X/AYMGFP/LRemW5aEWLWLdP4+MWFzRppyRPvseTxcIU68Gg3sOW3kqx5YwlvXB7+iYaNmf/Aa4TJXjYgfPa+R4+kqHv7UP0mq5P8p+IeNi/Y8e2CYS38vzf577cfJEhYbApeu/gx3vnlU00siIX/3GyYu5oXv/9/zXqy3pZF65h+1kMEic8X3BpqHXfr1aQxBp68NyYSabTfT15dzKybmr8OXZBIMf07f9q25lrj+9F/gvsna4q0tepNNUy7+xWm3/catdV1ruNIhns9sobNpvmfkxcjq6g1WtC9yQLvZNcR8pVml4h8wfMQWWbsdem6biKSKwafug+Yxq97rJg2j1R1XZOuPW6cu4rNC9fSbkjDtxHGOpTS58gRLH1iVhN6b4AxofYJoHZDFXPvnN6ia6pzfvNf+p8Q7qS8dGDXtF2/TZcNs1eE+nkVdi4Lnb1f+e6h34OZ1/6bzR9+kpafy4p/z+G1yf+gbn0VS//1XpP6NBA6M8AblzxGqmrna2o1Zs2rH/HRX95iyDcOCLV9u0HdmjRWv+PDvQezbnoWAtuin3/N6i3Mv28Gu53f+Lp37Yf1oLR3B6pWbGzBiCLZaek7y1mzcA37Tdqbfns27UEIkiFa8FTYz/XRQD8fRja3qPs6E/CxV0P/IPxt/AJgy4EbXKfIR5qBJfIFy0sKfgiMcJ1DJJOYiMeAk0LePvjPd5s1xpLHZoXqf9Ck/Vq0L59nQo0JHsuemE2yqmVXw9e+vZQtH60LNV5hl3YtGqs1JKvrSG1N0Vh2E4kQKW78aXYm4tH7yJGN9gce62et5IN7Xkzr/ix48FWW/qtpt7t+KtznZs0bS1j9yoIWZ519+/Ngw31ei7qH/+wUdimly+hBjfa54f2PWTW9+bepfNbcu17AJgm1L133HZiWMUWy0dbNtUz//QxeuPdVaqvqcH7rlFoTWzo0PMYGU9vAa8PZYPTZanIz3hh7/5kdmvcTl5ZQAUvkMx5qT0eLvcJ1DpFM0/Mru1DUrfHbvJLVSVY8N7dZYyx5/N1G+weP3uNGNGlR64aZUGOCx5I0zfpa8li4/SzsXJaW8dLNBhAmvxdtfJJ3p937EmtfGqq/efe9jE0F6d6dZgr/uVnWxPXSdmbLR2vYOO+TUGPGOoS/kt5ldH+M5zfa54r/NO/f9Y7UrK1k3czlofal40jNPBFZ8s5ypl79b5bMXO46imSYIA2zvKxJ59Od84Qlgkke4TpGPlIBS+QzUsloHOjsOodIphk0aX/CnGyueG4uyarmXQ3cMHsFmxeubXQMLxZjwInpWtw5XBHCBoZPXv0oLSOueXNxqDFj7dNVpEu3cD+zMDrv2S9UX8mqBEv++U5a96Llwv0cVr/SvDXTduSTGR+FGtOPRUP32WlU/1B9fvzC/LTtB8DHLy0INW5pE9ZTE8llNVtqeeH3M3j+rpfYurmW/91appa5LV2zsBocIy0DuP9ZZWODY9P0BkgTaA0skW0eLCvYhcCe4zqHSKaJlhbS99hRhDkQW/rYzBYdri2dOpPdzj+60e0GVuzL/PteaMFI9cxn/tuQyqXrWrSG0WdtmL0i1JheLIrnGWyQaVdGwx2Uh9mqy579QvW1ctpckpU1absho6XCfm6gfuZUunJv+WhNyHFN6DE77dY3VJ8b56xM689/07ztT1lrWHGvjhnzvotkghXvreLxhU+z14Q9GHqQHoSW+xr7bZqOb8g0Ftvyy3HWYowh0w7UcppmYIlsYwN7ExD+srVInuhbvieR4kIamymR2ppkxbMtu11q6dR3Gh0HPLruM5iyQQ0v+B5OuFk0m+etTsNY9apXbCBZnQw1rhfLxOtM6ZuBVTa4e6i+1r29NK17kB7hZu4lNlenbcTaDdWhxm3KiUhJ386N9hfUBdSsrUzbfgBsXb2p0XHBI1pSlNZxRXJBXXUdr/3fmzz/2xeo3rj10/qDWua1lsqUMdR21HrywOm7NedHLs2XiUfGIm3uj6WFhxsblLvOIZKJBk0aQ5iCxIppzb99cLv17y1jy6J1lA1s5LYhA4Mq9ufd6x9v0Xj1RyCN71vtxvQVIQCCxPaF0BvmRSOkahJpGTNSHKOgcymFXdtT2LmESFFBs/oxkSjhClSNH1WX9Okaqq9172ZqAathycqtaZ1Bl9hSG2rcplyfLO7VqdHtE1V19B+/d+g+wyjp2/i4ABEVsER2asXsVTx+1dPsfdIeDD1wSHqKGZJG6awutaa2GCNH+d6xQHOfBiPNoAKW5L1HwK+1wS362hb5suJeHel+8HDCrLOwbOrbaTn8WTr1bUb+pPFlBQZOGsOsG54A24ICgTFgQhQiqurSemhnU4Qa149GSDZzDC8Wode43ehzzCi67j+EskHdMV7bfdMZ0/DhsIn4FPfsGOrnsHH2isw7tA6R2xL+Vr5QQ4Yc15hw43oFEQo7t2v033dBp3YcfP/3Q2VMN+P7mffei2SQZE0drz/8JstmLmf/r+1PSadi15Hkf9qigJUtRbJcZY4FbnCdIp+ogCV5L1FceJbB7uE6h0gmGnDKAdueUNawVE2CFf9+j3QcANUXsI5vdLvSAd3puu8Q1ry+oAWjhbvdrX7mS/oO7oLk9rEbVn8LYdPGjRTH2PWco9jlu4dT2LVds/KlR8MHxLGyom2zuRpmA0vdxqoG+3Ij7EyodJew0jdutLgQTOP/vt1K989QJDetmrOaf139FHuM351dDhuKSdsC3/njbX8NT0aWMN/fyAZTS3tbwIhUJ8Yle7NfqnvTO8yW2pLqVy1xoH3k7CK1OIwAACAASURBVPZm0t2bXAfJFypgSV67twtldqv9hescIplq4KQDCXPCvPK590lU1qRlzPXvLqFy8bpQTx8beOrYtilgVbbs1sgvskkbatymroHVbewujP3tdynp06mZydpOpKSAcMXD6gxdyD69t/Kld9xwZyJ+YdjbQV3K9HwimSNRk+CtR99m6dvLOOCM/WnXrcx1pKyw0N/E5QWv8Upk1Zf+7sXISu4qmM2+qe5cu/UAhgYdHCRsi+qSKljNFKWm7kDgSddB8oUKWJLXYlsLL8PYHq5ziGSijnv0p8PwvqG2Xfr4W2k99lk69U1GnNf4LKz+E/fnzcv+j6C2uetEhSsIJCtr07p/QSpkASvqhx530KkHcsCvv42JZMiMmkau6EZKiwjzM6jbvkBxJjEQuoCV9uzpG9cvCldEdKqxe1FF5EvWfLSGJ695ij2O253h44a36e3j2ea1yMd8p2gam/+fvfuOjqu42wf+zN3e1HuXe++9YBwMgQChBAwkhECAEN4kQPKG/ICXACEJhBJCCqTRCQFMNbgb496Ne++WLMuS1ctKW+/vDxearb2Sdnfu7j6fcyY5x1zNPHu12r373Zm5wtvhcesNVbjCMQf/aDsf5/nzNfbOJYQJQRUsYEURC1iUsF5LtpYqAfVu2TmI9KrHNROg9YJm4j9+jIn/iP4eOeYUJwouHIryWRu60Uvox6gGguG9tFO1XSwqBkXTuEXfHo3xf7td015l0RLqESoGbUvDVH+Yz30YiC/8r7Zjwzly+MbV+juQK7z7iBEliqA3gM0fbsbRrUcx7vvjkJQjc0m5Ph1RmnG7huLVaa3Chx/bluAD97fQN5ga4XSnsH6lf0KdKDtCItH5125EkWMI4AkAVtk5iPRIGBSUXHN6+aC+W8m13blu0DaGyRneTXGFwahp3KAn9BbuqYOKMO5vd5zay0j+70PrssyTd6wM3Y85Ra9LYMJzHmSOG/D4OtGffp9LRHRuNQdrMPexudi5YCfUIPB5tYLt/yxr0KixeHVaq/DhQesajWOEgx7GYAvRxqgzrjV3/rxTV3AGFiWk/7ps41U1eI3sHER6lTNlEKzZUfp2sZvyLxoBc6oT3vqWLvy0gJa7upmSbF3o+9wUk1HTuEFfxwUsYTRg4ot3wegIb75o8Le2azv3yc4opOkkAU3ZNR3T2YE1javtQ42/zROBjGGm93xEMSDgC2DzB5txZEMZxn1/HFKL9L9PYqRtVk5gubGiSz+7zlCFtcYqjA2E2IUkLLOiRYh+wjCGCDUGhWBDu3M4gLWygyQCFrAo4aiAeDOoPqvxLuNECal0+mTEyswHxWxGyVXjse+lhZ3+2ZMvAxqKKC5HWF8wFKNZ07hBn7/DcXvecB6Semndi+PrfE1uqMFgp37GnOzQdKEr0PGLrL+l7eRSyhB9KSYFJof1ZMFLJ04m1vL3oW0JqPZxtT1ftY4bbDs9A6tjalCFr6lVQ4/h52ts45s1UZg0lNdhwRPz0G9afwy+fCgUY2y8z0fCPNORbv38fOOR0AUsShxCTAQLWFHBAhYlnLcc1hsh1DGycxDpldFhRcGlYxArBSwAKLn2vC4VsKC1gBXuJYTG08v9Ohb0Bs7dh0HBoF9eo6kfAPDUNqNs5hpULtqMxp1laD16okt397u2/FUY7d1ffR1o96G9thXWjND7siT1yUfdpgPdHjO8tBWS5IyrcQZWazv8bm/I32f7iQZ8OOAOTX0Skb4FA0HsnL8Dx3Ycw9jvj0dacbrsSFJsVWq69fN7lAaEbwlfKNEYh18VdMvJAtYzsmMkAhawKKHMAGw+of6OL9FE51Z4+VgY7eEt2ERaxui+cJXmoPnQ8U7+pLY9dszp4d38VjFrn4F1Lukje8FekKVpvD3/nINtj78NX7Nba8QOhG9fIndZDawZoW9Jnjasp84KWNpnQskZV/u7XGt5HZL7FnR4jEW3+5ARUVc1HK3Hgifnof+0ARh8+ZCTd71NIDWirVs/f0K4o1dXivAKwrD2k7i4kXuUxM7X60RhEHCafyWAItk5iPSsZPoU6GBDzM41oaBk+nldfMSh++/OMr2vsuWmwWi3aRo36D13ASv3guGa+tj+9LvY+MDLYSpeQdOYWq+EW45Ua+orbWjPMGUPp/CdB5njustrQvalWMwwJTnC9xCISBfUQBA752/HvMfmoPZwLaS/l0ex+UTnls9/VUCoGsfqLr2MwRaiZauv39qr06eeOo0zsChhzLDZ8gNq8F7uUUh0brbcNGRPGoJY/H6jZPr52P7kO4DamWVx2mYTOYtzYbSZEWjr3N2KziZtcA9NY6r+ABAInvPSNHvC4JD9uI/WYOfT74Xl8vY0IU7fQTHEcQh9WV23+RCKrpocsq/cC0ZAMShQA937wBEuJx+XnvfA0r7JY9O+Y8idNjLkcRkjeuH4ki0aeyWiWNJ0rAGfPDkPvaf0xZCrRsBo5kdEbaLxoSJcRSrZYyQARRkPYL/sGPEu9j6hEHWR3xh4DAL8CpmoA8XfmQJhOF2giK3mLMlDxui+nXzEpwsCHTdhMCJ9RJ9O9n12GWP6ahrT29jxpuXWnLSQfVTMWx/yToadIYwGGGxWTfm1qNu0X1Nf9rxM5EwdFrbHER5an5v6Hrdm3R5N/WWfPzRsj4CI9EcNBLH3012Y9+hHqN57XAcTWiLcwiEa4+jlcbBpaIJvlFHA8jolhDftpuFQxY2ycxDpXcn1U6HltvVqIIiN9/87rMWRc3H1zEe/n16p6diS676BmnW7tXcuhKbHCwAFl41H9crt2vs+h8IrJmka01Pf3OF/t2amhuzHXVHXqWyhmJPsms+XFnWb9iPg8cNgNYc8tufNF6Pyk41hG7vbtJyHsE/51fp81T5uzbrdmvosvGIStv3+v1H5mycieVpONOPTZ+aj56Q+GD59NIwWk+xIOqWlghTOClYkRWOMhDBEdoBEwAIWJQRVUZ4VnHFI1KGUQaVIGdBD07HVK7dj3wuzI5zoJIPVjJ43fVPTHjxFV07Gxgf+jaDHp7F3Aa0vDQWXT8Tmh17u1gf4tGG94OpZqOlYT00HBSwhYHI5EeqC02CzdCJdaI6ibITzpdTvbkfVsm3Iu2h0yGMLvjUBuReOQuXCDWEbP2N0P3jqmtF8oKILP61tCWF4aX2+ah+37XgdGnaWIWVASYfHOYvzUHr9N3Dg9QWa+yaiGKUCB5bvxfFdxzDmpknI7p8rO5E+hfySIgxFIRFinHB8USJEBL5wSUiDZQdIBPxAT3HvTaf5GgU4T/qsUjY2nbfS6RdA6/Kk8g+WRy1XsN2Lo7PXasplTk1G/rTRnehf+xJFe14Wet50cbceS/97pmser/VI9bn7UlUE2v0h+0gf0S+sv4v0kf005xcQmvqsmL1Gc5+jn7kL5iRHWB5LUo88TH7jYUyb90dkjOrseRIaz4ES1vN/UvjO/el25O0lmvoddP9NsOekhe3xKIpA3zuugCXVFdbzxMbGFp7mrmnBkj/Nw4bXV8HfrvWLIaKElaO+9mNtt4emLmMBi+LaDMAsIB6XnYNI74RBQdE134CWD7FBXxDlH6+Iar6y95ZoygYoKL7+gk70LDT3CygY+sitSB5Q2qXHUHjleSj89nmax2o5dLzD/tpPNIbsI2fqSKQM6tGlvGdTcOlEzfm1KvtgOXzN7Zr6tOdnYfJ/fwOjw9atx5EysBRTZz0NS0YqLOkpmPrhE8i/eFwnewnvedCmM89X7Y688ylUvxqyT1tOBia/9Wi3zz8AGO1WTHz9IQx//E5Mm/8nOEs4w4NIl1TgwLI9mPPr91GxpRzyy2rhbN0V6f6jNYaWcdg0NZOBs7AijAUsimuqy3wPAN7SlCiE7CnDYctJh5Y356olm+Gt63h/pnCrWrblVMEmdL68aWNhTk3qRO/aL0yMDjvOf+9xpI3o16n8BZdNwri//6pTY9V+1vFeXk17jobsQxiNGP/iA7DlpHUq79lkjh+E7PNHdOIxaONvcePwm59o7jdzwmBMW/BslwpzQlHQ64eXYdr8Z7/0fDfYrZj4+sPoefOlnelNYwu38I/ZdrwOR2et1NR36pDemPrRk7DnZ3b5EST1KcI3Zj+N/EsmABBw9SrEtIV/QcbYAV3uk4giq63BjRV/+wSr/rkY3lYvziw7i9UWDlEZJ1T/YRhD9u8inhpU7oMVYSxgUdya4XRmQhUPnH5pZ2NjO3crmX4htM7sKP9gadTzwR/A0Y9WaMqnWCwouvI8bf12YvbV6WbNTscFs5/BkAdvgSWt46VPrh75GPPX/8XEVx+CYrFoHiPQ7kfNmh0d9n1i9XZNfSX1LsYF8/6MzLEDu3z+s8YPwqTXH+3UeepM/3v++g4Cbq/mvpP798BFnz6Psc/di8yxA6EYDR32b3LYUHr9hbho8XMY+fTdMNjtX89rMGLUM/dg8P0/gBChl+BF4jyEbiJi4+597n3NfacN74eLPn0epddfGPLcf7FZ05Mw7De345tL/4HUoV++G+fJmXBPo/iab0TsdYSNja377eiGQ5j38Huo2HQYRPQVQnAGVoRxE3eKWyp8vwWQLDsHkd4ZHTbkXzYZWr7TCLR7UTF7VeRDnUXZe4vR61ZtdyMsvu4iHHh5loYjBbryXY5isaD/L25E359dj5q1O9C44wDaTzRADQRgtFlgL8xB6tBeSNa4Kf5XHZu7GgF3e4fHVMxaiSEP3a6pP0dRHqbOfhbHP1mHw29/grrPdqG17NxLFM0pLrh6FSBj/BDkXzoRGWMGdip/Z7krTmDXX97BoPt+oPlnhFFByQ0Xo+SGi+FvcePEqq1oLa+Gr7EZvmY3FJMR1qw0JA8oRfrI/lA03klrwL03wZafhQ33PAPVH+jgSC3Pm0h8T6ilT9HpXms/243KhRuQe+EYTcdbMtMw5vn7MOCX38ehNxegeskG1G3eCzUQ/NJx1qxUZIwbgvxLJ6Dgsskd3lhAsVgw7p8PwNmjADufeh1Q1U4/DiKKvPbGNqx8bhEKR/XAiO9PhMUZ3huGxIxwzeQKOUYH44QjQjhnpSU6wY3cI40FLIpLM5zmAarArbJzEMWC/Msnweiwazr2+KL18LW0hueCqZNq1u2Au6IG9oLQ+2NmjBkEZ2keWg4f6/hAIQDR9SKDYjYja/JwZE0e3uU+zmb/yx+HPMfNB8pxYtU2ZE4cqqlPYVCQ+80JyP3mBACA390Gb20TfK1tCHp9MCc7AZwsOBhs1m7lPzkgOvU82fPXt1Bw+XlIGdSz00MZXc4zjyscSr/3LViz07H65t/A7277+gEC2p43Qgnv34qi8fmqdG3czQ8+j+zzR0Ixayv2AYCzZyEGP3gr8OCtUANBeGob4alrhMFigjnF1cnlvAAEMOj+W+DqUYD19zzViTuKElG0lX92ENX7jmHEdyeicFTXvrCJbaFeaMP1BtBRP2GpYIWpH4KKgeqMaw1i+jsdfQNG3cAlhBSXVIhnwAItkSYl110MrUuHyj5YLCsmoKoo/3BJh/nONGFA8XXf1NDp6RlY+mnHF23AiZVbNJ2S7X94ucvjGO0O2AtzkdyvB1KH9IWjOB+O4nwYbF9fXte11jmBdi9W/eBh+JrcYRq/e00IA4IBfweJtfQT7g8EWp+vXRu3eX85dv7xDY1jnOWcGYywZqUjuV8POEsLYU5N6XJfxdd9E8N//7MuPQ4iih5PUztW/2MRVvxlPtoa3LLjEMlmQzCnRHaIeNb5K0winZuRZLlUCHxT9h4BbGyx0Oy5GciaPApaPlD6W9tROW+11Lzl736qKSugoHj6RSH3MpJdJPlq8zW24rNf/FHz+ahZuQWH/ztPeu6zFjO68PttPVSBFTfcD3+rtrsSRqpVL9+CVTc9CNXjO0dWEdHz0P3nbOg9vM7Vdv/xdVQt2Sj1/AMK6rfsw/bHXpD6esPGxqa9VW4tw/yH3sXBZbshfSNtTZttd5eWccIxTKQfh8Zx2LQ3gygJ3y+GvkqRHYAonBYDRqh4QnYOolhR9J2LIAxGaPlAeWzeagTaOt6XKdLqt+5B84GKs+b7anOWFiF9VKi9m4SmvnzNbZqO605Tg8C6Ox+Du/zce1Odzab/92c0bD8Q8Xydb127sK5ZvRXLr70X3oYWKbnL3/8Uy6f/EoE2T4ikWvsMJ23P1+6MqwaDWPPDh1G/dV8nxgpvO7FyK5Ze+XN465q6/DiIKPp8bg8+e205Vjw7D211bkB6Wa2jFg7RGEcvY7Bpbqoo6dTpp04J95UVkVQ1SZY7AUR2t2GiOFJ83cXQ+oZc/v4iWTG/pPy9T6A1c/F1l4ToTVs/23/7L1TMWqb5+K60rQ89j2PzVnT6fPhb3Vhx/b1oPlAe0XyAgPvoCaj+oMbju65mzVZ8euEdUXlMp5saULHjiZew5vZHEPR4NaTU2ne4RX5cb0MTll11D2rWbOvEeOFpB176EMuuvhu+xuZuPQYikqdyWxnmPzQDB5fuAngvBko0KkpkR4hnLGBR3HgjGalQ8VB0L7XZ2GK3pQzsheSBfaBlRoSvsRVVn66VnlkAKH9voabMgILCKy+EwWzqoD+hqZ+gx4s1N/8fdj75MtQgNI+vpakBYPN9z2Lf8292+Zy0HzuBpZf9D+o37Q5rtq/mXH/nbxDw+jUd393fc8uBMnz6jVtx+I3ZEXtMp1treRWWXv4T7HriRQhV1ZRPa9/hfO5D4/NVoOtLCE83X30Tln77J9j55MsI+oIR/x14apqw9raHsemXT0H1+aW/zrCxsXWv+du82PjaMix/dg7c9a2Qvqzra0vvBLot5DjdHyLUGO2io70awzMGWyebopZ2/5dC56LIDkAULuaA5SFAZED6WzYbW2y04usuhdYPlxWzl526G5j83M37ytCwTduSOXNaCnIunBiiT40FnKCKnX94Acuu+BlaDmpbxhiqtR2rxbKr78L+f73T7fPSXlWPJZf9BAdeeA9QtT8uTY/dr2LDXY/hxMrNnfg5dPsx+Zrd2PCzx7Di2l+gae+RsD4mQEGg3YddT72CBeO+i5o1WzuZT8sYhm6fg66NG56xVH8QO//wAhaM/y6OzV4e9vMPnCyMHn5jNhZMuAHl72ufXcnGxhYbrWr7Ucx/4G3smbMFqgrpeT5v4SB/nC2iKqL9s3WhqUpJ584/dQbv0kZx4a1kS08ExZ2ycxDFCmFQUHjNxYDQ9j2GXpYPnlb+wQKkDOmr6dji6y7FsdlLz/4fhdB2DsTnF6EnVm7EwknfQ48ffgf9fn4LLBkpmnJ8kd/dhgP/fge7nn4J/pbWTv/8uQTa2rHpV0/jyNvzMPDBHyP7/LHd7rNpzyF8dvfvUbv21J0RhaL5eRMuxxetRtXSdSiefgl6/893kTywd7f687e6cei1mdj3/BtwH+3ixb+m500EzpOEcVsOlmPV93+FtFGDMPD+HyF76rgv/U10RaDdg6MzF2H3H19C874jYUpKRHoU8Pqx7d01qNxyGCN/eD5cOZ1/3wy77taWwlmf6oAqzr0Gc4k4jLWiottjdPPlnL6uVHaAeMYCFsUFQ1B5BlAtsnMQxYqsyWNgy83WdKynph7Vy9ZFOFHnlL+3EIMfukvTVVfuRZNhTnHB23C2PXW+OFuoI18eJ9Duwb7n/4tDr3yA0puuQsmN3w5ZVFGDQdRv2omKjxbh0OsfwlsfuQ2q6z7bjuVX/RSuPiUonn4pci6ahOSBvSAUbYWNQFs7qpeuw5EZc1Dx0adQA4Ev/Fet5yy8VH8Ah/87C4f/Owvpo4eg4MoLkTNtAly9izU9D/ytblQvXYeKWYtROXfpOZ4PWgloOwfhPk9ax43Mp5G6Ddux/Dt3wVlagMJrLkb6mCFIHzMEpiSXpp/3t7TixKqNOL5gJcrenQtfY0tEchKRPtXsO45PHn4XA64YhT4XD4NQYr1yEvn8S5QyjA8Ufenf/AjiP2IrnlBWhmUMK0yISjUuUQjkqi8/YhW3PCL3zkdxis9UinnvOa1TVYFPZecgotgz6vlHUXzD5SGP23j3ozj02gcdHmMvykPq8AFw9SmFyeWEwWKCt64JnroGNO05iMZtuyNatArF6HQgeUAv2AqyYUlPgyUtBeb0FAQ9XgT9AXhqatFWWY2WfYfRuOsAVH8gdKc6YElPQfLgvnCUFMCelw3FaoHBaoG3vgne+ka0VVahcftetB46CjUYlB037ghFgatvD7j6lMCSngpzWjLMqSkQChBo98Fb34DWIxVoOVCOpt37Y+Z5RUSRld4zGyNvnQpXbqqU8acaX8VB1Hf553shDYv8N3V4zL+Vz/A7ZXmXxzitVE2BEye/pw8giHLRhGaEulOudqv9tyIP2r6III0U0Vdc/cxe2THiEWdgUUx7BFAg8JTsHEQUq8I3o8VddgzusmPdThQp/pZW1K7bAuhrMl23eWobUL1kLYC1sqMkJDUYRNOu/WjatV92FCKKIbUHqrDo4XfR/8rR6HNJjM7GCjX7N0xr8w6JhrD0czZmGJAtXOC8ljALilIALGBFAAtYFNMGuqw/VIGRsnMQUayK0iYWRERE9CUBnx/b31mNo+v2YeQPL0BKcYbsSJ0U6vpB/9cXvZAOg4RtAeKeIvJkR4hXfLZSzJqRCacAHpWdg4hi2ekZWFru6kZERETh1nCkBosffQfb31mNIJcZR9V4tVB2hPgURKxVY2MGZ2BRzDK0Wx8AkCs7BxHFMu1LCFnCIiIiigw1EMTe2RtxfOsRjLztAqSWZMmOFIKIi9v3fQOlcfE4dEcgXXaEeMUZWBSTPrTZCqHibtk5iCjGCUVbY/mKiIgo4prKa7Hk0XexfcZqBH1BfL7UP9wtHKI1TmTkwoXxajEid44TurGAFSGcgUUxKWBSn4QKu+wcRBTrtM/AIiIiosg7ORvrM3ga3Rj5o2my45xbqEsDnV86/FAdAQNnX0WGyhlYkcICFsWc95Js4wTU6/T+pkBE+ic0FrBEfKwUICIiihllq3ahaHJ/ZPYviEDv4XhTj90Lgyw48T0MQyw/Bl0T3AMrUriEkGKKCggB9Wnw1ZaIwuJ0AYubuBMREemKCmx+dXGElhKGQ7TGCb8H1fPhgAU6WGoXr40zsCKEBSyKKR8kWb8LYKLsHEQUL6J9sUtERERatVTWY/+CTbFZv9Kpy9APV4gBOqjxxHXjDKwI4RJCihkzABuA38vOQUTxRIDf5RAREenX7g/XomBsH9gzk2VH+QodV6nOoT+y8CQuQSxmjzFpqgohBFTZQeINC1gUM0xJ1l8CKJadg4jiidYCluClHhERkQRBrx9bXluC8b+8MnydhqOsEHJzTBGeccKkB9Lwmph+aukgRZgRs+9LAf5QLztIvOHXzhQTZjoc2QDulZ2DiOKNAggtjeUrIiIiWaq2HELlZwdkx4hZw5GPd3EjsuCUHSVxeIIO2RHiEWdgUUwIGgJ/AOCSnYOI4o32GVhEREQkz9bXFiNzUBGMFrPsKND9RlenKBC4RYzG/TgfJhhkx0ksiplT3SKABSzSvQ9SHMNEMHCT7BxEFH+ExgKW4BJCIiIiqdrrmrH3w7UYcP154emwO8v7BELPzlblXjkMRz4eVqZhOPKl5khYJuih0hp3WMAi3VPUwLMql7sSUURwE3ciIqJYsX/uZ8if0A/JRVmyo+iSGQZMFb1wI4bjPNFDdpzEJoKcgRUBLGCR7szMgAs+y7igKiYKFVNUFVNkZyKieKV1CQDnXxEREcmmBoLY9tpiTPq/63Xw1qxhE/cwSIcDDvH1yTxGVYETZuSKJPRAOkahAONEEZzcpF0fgpyBFQksYJF079ntuQZDYBQgJkJgkurFaABmAejgjYmI4htnYBEREcWS2t1HUbZiB4rOG9T1TsKxvE/LDV66eRfCm8QoPKpczI9EsUgIVhIjgAUsiqoZgMHqNPeDQZkYVDFJACOB4ABWqohIDgXcA4uIiCi27HxjMXKG94TZZZMyfovqico4lyj9eP0Rq9SzTJujbmMBiyJqfjYcXrdtuKpgoqpikoA6QQXSoLJkRUQ6IAQgeBdCIiKiWOJtaceut5dj6O3flDL+cTRjD06gr+hoL67uXzsoULTN9CL9URXOwIoAFrAorGY7HDk+xT8aEBOFwKT2NoyGUM2np892cxYtEVFY7fj1g9jzxBMhj/PW1EQhDREREWlVtmQrCqcMRlofOXfZuy84G+8oN8N4ji/CfGogDKNo3auTdIgzsCKABSzqllnJ1h5+FZOEiokQyiQ/ggME95MhohjhramFt6ZW49G8gCQiItILVQW2vDgfU35/MxRj5z5/2GDq9vgb1aO4Lvgq7lWmYoQohBmGM/+tUm3CTHV7t8egWMa7EEYCC1jUKR85rVOEgskqMEFATAiqSFaAU5/rOL+KiIiIiIiio6W8BocXbESPS0d36ueSEJ69szao5bgu8FpY+jonLiGMTQondUQCzypp9pHL9jgUsUSF+C0gLlGBZNmZiIiIiIgoce2esRxtNY2d+pkSkRahNESnBOCVHSEecQYWafJxkvVBVeA+2TmIiIiIiIhOC/h82PGfxRh1z1Waf6Z/h5uv6wn3wIpZxijdqjLBsIBFIc1Ksv1MFfgtXzqJiIiIiEhvjq/bg6pNB5A9opem48crPYBw7LEeaUJwCWHsYgErAriEkDo0K8X6A1Xgz7JzEBERERERncv2lxcg4NG2aquPyEIPkRHhRJTQhOASwghgAYvO6aNk23dUVbwIzlslIiIiIiIda6tpxP6P1n4+aylEu9owVHbk0DQ+FjYdNiicgRUBLGDRWc1KsX9bAG8CX7gfLBERERERkU4d+Gg1Wipq8fneUedu31fGwgGLtKzahX4sbDpsAc7AigTugUVf83Gy9QKo6tsCMMnOQkREREREpIXqD2D7C/Mw7qHvIdTeUSnChluNE/AX/+IoDkrX4QAAIABJREFUpaOEogY5AysCOAOLvmROkm2cgPgQgFV2FiIiIiIios6o3XUEx1btDL3ESwj8xHgeikWa7MjnJnsZHFvXmwLOwIoAFrDojI9THEODAnMAOGVnISIiIiIi6oqdry+Er9WDDpd4QcAKM/5qvg4m3e6a0nF+Nj03M2dgRQALWAQAmOuy9BVqcD6AVNlZiIiIiIiIusrT0Io9b2lbGjhUFOAx07chICKcihJKMNgqO0I84h5YhDnJlp6qqnwqgGzZWYiIiIiIiLqrfOFnKDhvCFL6FIQ8drpxNJrgwe98c6FCjUI6rU4tR6NY48el9zUA98vOEXc4AyvBzUmzFahQFqoCebKzEBERERERhYOqqtjx0lyoQRValnzdZpyMZ8zXwKK7OR6yl8KxdaHVCiH0VAmNGyxgJbA5TmemGhALAJTKzkJERERERBROjQcrUbZgg+a6w9XGEZhp/R/0VXSyMEV6HYati632bL9O6j69lZcpSj5ISUmB6pkvgP6ysxAREREREUXC3jcXI2fcAFhSXZqO76/kYY7lLrwSWIW/+5aiRm2JcMKOnK6IUIypkR0gXnEGVgKak4Yks+qZD2C47CxERERERESR4m9rx67XFqAz02eMwojbjOdhpfU+PGH+DsYqPWCQ8tFZ/lQiti41zsCKEM7ASjAzCmBDs22mAMbIzkJERERERBRplSu2If+8ocgc0btTP2cVJlyvjMH1pjFoRBvWBQ5hb7AK5cF6NKltaEY7gmfZ9L1WbcGuYGX3g3MCVoxSOQMrQljASiAzALOjxfYOgPNlZyEiIiIiIoqWXS/PRfqgHlDMXfsInAw7LjQMxIWGgSGPVaHiTs9/MNe/rUtjfY4VrNikcAZWhLCAlSBmAAZXsu11qLhUdhY6O8VqgOoPQvXzhhVEREREROHkrqzFoY9WoOe1UyM+loDASENx9wtYAoBgASvmCC4hjBQWsBKACoh5KfZ/Aup02VkSgTndDHuRHdYCGywZFlgyzbBkW2HOsEAxCphSTBAmBQa7AUa7EYpFgdH15T9FX6MPakCFv8WPgDsAX4MXvgb/qf/3wVPjgbfai/bKNrRXedBe2Y6gJyDpERMRERER6d+B95chZ+JgOPIyZEeh+MYlhBHCAlacUwExP9n2HKDeKjtLvLEV2uHq74Kztwuu/i44ejphL7HD6Oj+n5Up2QwAMKdZNP+Mt9YLd5kb7kMtaD3khvtQK1oPtaJlbwuLW0REUeDo6YTBbpA2vr/JD/eRVmnjExHpXdDnx66X5mDUgz+IwmjhmDnFJYQxSRXHZUeIVyxgxbn5qbY/QMWdfNnrHsWiIGVEKlJHpyF5eAqSh6XAnG6WHetLzOlmmNPNSBme8qV/VwMq3Idb0byzGc27m9G8oxGNmxvgrfNKSkpEFJ8GPzP0a6/B0VQ9vwqbbt8gbXwiolhQu3kfjq/ejpwJgyI7ULg+gPGDXOwRyiHZEeIVC1hxbH6K9WFVxa9k54hVzj5OZE7LQfrEdKSMToPBKu9b9e4QBgFHTxccPV3Iufzzf3cfbkXj5gY0bKxH/fo6tOxqhhrk/ltERN3DTxpERHq3+8VZyBjWB0a79tUOnccZWAlKhWg4IjtEvGIBK07NTbHdpQKPyM4Ra5KHpyD7klxkfzMH9lKH7DgRZS9xwF7iQO6V+QAAX70PdatrULe6FrUra9G6v1lyQiIiIiKi8PM0tGD/24vQ7xa939+KBawYVCmmPtIuO0S8YgErDs1LcdwCqM/KzhErbIV25F2dj9yr8uHo4ZQdRxpTqhnZ38pD9rfyAABt5W6cWFSF6k+qUb+2FkFPUHJCIiK9k/1BQ/b4RESxo2zOGuSdPwJJPXJlRzk3vqzHIPWw7ATxjAWsODM/1fE9qOoL4Etdh4QikD45E0U/LEX6lEwIhafrq2yFDhTd3ANFN/eAvzWA2iVVOD6rEicWVSHYzk3hiYi+Skj/pCH45k9EpFUwiF3/+ghjHr8DQkTi1TO+N8EKtHtw6P1laCmvhrMwC86ibDiLsuHIy4AwxubWK+HB/a8iiQWsODIvxX4FVPUVAIrsLHqlmBXkXl2A0h/3hD2BZ1t1ltFhQPaleci+NA8Btx8nPqnC8Y+OoWZJNYJezswiIiIiotjTuLcMFZ9sQMFFY8LfeVi2wBInm46oqorKpZux77W58NSf3HKkeu2OM/9dGBRYM1LOFLUchdlI6pkPR34GhJIQH1MPyw4Qz1jAihPzkh3ThKq+BcHf6dkoZgUFNxSj5M5esObZZMeJaQa7CTnfLkDOtwvgq/Pi2PvlqHi7DC17uGcWESU62TOwiIios/a9Pg9ZYwfAnMwvt0Op3bIfe1+ejeYjx895jBoIoq2qDm1VdTixYfeZfxdGAxw56XAUZ8NZkAVnYTYcRdlwFGRGaAacNIdlB4hnLHbEgblptvEiqH4AwCo7i+4IIOeyfPT+f/1gK4rvTdllMKWZUXxbTxTf1hONm+px9K0yVH5wlEsMiYiIiCgm+FrasPfVuRh01/Qw9xw/dyFsOVqNfa/MwYnPdoc++BxUfwAtR6vRcrQaVV/4d8VogD0nHUm98uEozDkzc8uWlaq72WeaqCqXEEYQC1gxbkGKYxiC6mwA/MrgK1yDktH/d0OQPCJNdpSEkDw8DcnD09DnvgGoePMIyl87hPZjbbJjERFFGffAIiKKNZVLNiHvG6ORNriH7ChfJnkJoaeuEQffXoSKheuhBoMReY9R/QG0Hq1G69HqL/270W6FPTcdjsLsM7O1knoVwJLqikCKMApyBlYksYAVwxamOgarqvoJgFTZWfTEYDei5//2RdEtPSGMvJSPNlOqGSX/0xvFP+qF6vmVOPz3fWja2iA7FhERERHR2akqdv/rA4x75h4opkTegPwkf5sXR95fjCMfrUDA45WTwd2OpgMVaDpQ8aV/N6c44SzKRsaIfii+8jwp2TrQhtqcw7JDxDMWsGLUvCRLL1VV5wNIl51FT1LHZmDQsyNgzbfLjpLwhFEg+9J8ZF+aj9ql1Tj0t72oX1sjOxYRUQTJXurBL22IiLqqtbwaZR8vR8nVU8PUY+zdhVANqji+dCP2vjoH3gZ97m/rbWhBXUML6rYegKehGX1uvkx2pC/aIaZP514qEcQCVgyan2YrNATFQhXIlZ1FL4RJQc9f9EPxj3tDGHgBrzfpU7KQPiULDetqcPBPu1G3koUsIqJwk10+IyKKdQff+gTZk4bBlh2GLUjC8oIcvSWEdVv2Ye9LH6PlcOXpkXWv7MNlMNltKL1umuwop22VHSDesYAVY+Y7nVlKILBAFSiRnUUvLNlWDPnnWO51FQNSxmRixJuZqFtejf1P7ETT1nrZkYiIwoglJCKiWBb0+rD7Hx9g+MO3yo4SNa3lVdj38izUdGODdpkO/Hc+hEFByTXfkB0FEOo22RHiHQtYMWRxSkqKH975gOgnO4tepIzOwJB/jIE5kzdgjCVpk7MxZlI2qudUYP9TO+E+qM8pykREnSO7gMXiGRFRd9Vu3I0T63Yic+zAbvYUhtfkCG7i7qltxMG3F+LYgnVQg8GIjBEt+1+fC6EYUPyd8yUnYQEr0ljAihFz0tKS/MH2hQCGyc6iF7lXF6H/kyOgmBXZUagrBJB1aT4yLsxF+csHcOjPu+Bv8ctORUREREQJbs8/P0Da0N4wWC2Sk4T/i5GAx4Pyj1fh0IyFCLR7wtq3TPtemw2DzYyCb02UF8JgYAErwljAigEf58FubvN8DIFRsrPoReEPe6H3r4dAKPy2OdYpZgOK7+iDvOklOPSXXTj66gGoAVV2LCKiLpA/A0vi3daJiOKGp7YBh95eiF4/0NUG4d2iBlUcX/IZ9r8668wG7fH1nqFiz78+gDAoyP/meBkBjouJd1bLGDiRsIClczMAs63N/i6g6u4eoVIIoPeDg1F0Wx/ZSSjMTKlm9Hl4KHKuKMSu+zaiZVej7EhERERElKDKZi5FzpSRcJbmda2DcFSHRHj6qduyF/tenHlmg/a4parY84/3YLBYkDN1ZLRH5+yrKGABS8dmAIa0VMd/APUS2Vl0QQB9Hh6Kwlt6y05CEZQ0LB1jZk3D0df348ATOxBo47JCIool3AOLiCgeqIEg9vzzfYx8/KddLCKF4zW5ezN7W8uOY98rH6F2w64wZIkNalDFzj+/CSgKcqaMiObQvANhFLCApVOPAEp6qu01Feq1srPoggD6PzkKedNLZCehKBBGgcJbeiP9/Bzsvm8j6teckB2JiIiIiBJMw86DqPx0PXKnjZEToIv1K09tIw69OR/HFq6N+Q3au0INBrHzT29AGASyJw+P0qAqC1hRwAKWDqmAWJxqf14FvsvvUk/q9eBQ5E0vlR2DosxemoQRb52PY28exL7fbEGgnbOxiEi/hPQ9sGSPTkQUf/a/PBMZYwbBlOSQMHrn3lcCHg+OzlqBw28tOLNBe8K+LwSD2PnMGzBYzMgYMyjy4xkMqyI/CPH2bTq0KNX2hArcITuHXpT+fCCKbu/7+W1k2RKrKQJ53+uJUbOnwTU4VfbTkYjo3GS/Xgoh+wwQEcUdX5MbB16bJTtGh9SgiuOfrsfq236HA698HFd3F+wO1R/A9j+8gtr1OyM9VJWYcNv+SA9CLGDpzidp9kcFxL2yc+hF7rUlKP35QNkxSAccvZMw8oMLYCtxyY5CRERERAmkcuEaNO4+LOFLhdBj1G3Zh/V3P4mdf3rjzN0F6XNBnx/b/vAy6rfuj+QX7itlP85EwSWEOrIoxXaPUPFr2Tn0InlUBvo+NgpI3Imv9BXVH5Wj/XAznxFEpFMCMt+zxKlFjEREFGZBFXv+9jZG//lXEEZDlAc/+yt7a9lxHHjpQ9Ru2NnBUQQAqteHbY/+C0MeuQMpgyNwQzCVBaxo4QwsnViUar9TCPGM7Bx6Yc23Y/C/J0GxRPsNgvTKc7wN+36zUXYMIiIiIkpArUcqse2xF3B80Tp465uk5fDU1GPXn/6D9T99/EzxikILeLzY9tt/o2nP4fB3HmQBK1o4A0sHFqc6blSh/g0snAMAhFHBgL+OhyndKjsK6cie+9bD3+iTHYOIKAS+lRMRxavadTtQu24HAMCWk4HUYX2RPmYQ0kb0hWIyfeXoMLwffGEpYqDdg4pZy3H4zXnc46qL/O52bHnoeQz9/U+R1Ls4XN22Ic25KVydUcdYwJJscYr9ShXqy+BsuDN63DsYyaMyZccgHal86yBqP62UHYOIiIiICADQdrwGbfNqcGzeSihmM5IHlCJteD+kDu0LV6/CMI0ioAZUVC5cjUP/mS115le88Le2Y8v/PYdhj90Vrt/TOjFwujccHVFoLGBJtCTNcaGqqm8J/h7OSBmfhcI7+oPfYNNp7UdbceDRjXxGEFEMkLsHFrgHFhGRFKrXi4bNe9CweQ8AwJziQk5/FyYONGLzsABaHWqX+g1uK8eGl95D6+FjAPgJKVwCrW3Y+tBzGPaHu+Eozu1mbyqXD0YRCyeSLEpzTVDV4AeAsMjOohcGmxF9nxgHoXAyGp2iAnvv3wB/SwB8yyYi/ZNfwOJrJRGRfN6GFrhWt+BHq81QBXCkOIgdAwLYMTCI3X0CCIT4FF58WMENM0zw7pqJk1N7+Noebr7GVmy5/68Y9sTdsBfmdL0jwf2vookFLAkWpdvGKMHgPAAO2Vn0pMf9w2ArccqOQTpS8fo+1C3l0kEiIiIiik1CBUoOKyg5rODSOYDHAuzvGcDmoUFsHOFHTcbns7PS6gWumGnCecuNUIISQycIb0MztjzwNwx78uew5WZ0pQsfjB4WsKKIBawoW5bqGBIMYi4Al+wseuIclIq87/cGv12g09rLW3Dosc18RhBRDJE/A4qvmURE+mb1AIN2GjBopwE3vmlCc64Zx4c6ETQq6DW/DgYfK1fR5K1twNb7/4yhT/0c1qy0zv74SjHqjsZI5KKz41qtKFqalNQ7CMwH0Om/jHjX6+GREAZedtMpQRV7/ncNAm6/7CRERERERBHjqvSi97w69J1Vw+KVJO3Vddh875/QXl2Hz7+M0tBUMU9S5ITFAlaULE2zFaqGwEIA3VhgG58yLytC8thsdOrFgi2u29GX9qJhTTWIiGKL/NdPIiIi6jxPdR22PvBXeOsaofk9V2CurLyJiksIo+CTLEe26sdCCBTLzqI3wqig9N5hsmNElOoNwn2wCe3HWuGraYfnuBveE+1Q/SqC7X4EPQEAgMFphtFphMFugsFphDHJBIPTDIPDCEuOHdYCB4zJZsmPJvLcB5tw6Kkt/BxGRNRZrGERERF1Wduxamy571kMffIXMKcmhTq8EmNu2gb8IBrR6BQWsCJsscuVIfzBRQLoKzuLHmVfWQpbacgXh9gRVNG6uwENq46jaVMNWvc0oO1QM1R/eKYDG10mWAqcsOY7YC10wFrghK3UBeegNJiz7WEZQyY1oGLvL9ZAbffzMxgRxSh5r14Cgq+dRERE3dB2tArbHvgLhjzxC5iSOrrnmjpXCKF2cABFAAtYEbQwNTVZEd55AAbKzqJHwiBQfPdgxPrXxUFPAPVLK1D98RE0rKiEr84TsbH8zT74d9WjdVf91/6bOdMG56A0OAemwTk4Hc6BqbAWxtZdHY/+aweaNp2QHYOIqIs4BYqIiCjWtR6uwLYHnsWQP/wcRtc5ilhCcPmgBCxgRciGPNhb270fAxgpO4tepV9UCGtR7N6MsWVHHY69vAc1847A3+yTHQfeE22oW1yBusUVZ/7NlG5F6qQcpEzOReqkPFhy9TtLq3VPA478aavsGERERERElOBaDpRj6/2niljOr32GCsBn/lRGrkTHAlYE7ADMte2O9wQwWXYWPSu4bSBi8Zvq+sUVOPqvHWhYdfzMv+n1Ufhr23Fi5mGcmHkYAGDvlYzU8/KQMjkXyeOzYbCZ5AY8RfUFsfd/V0H1BHR7LomIQhHSZ2BxCSEREVG4tO4vw45f/w2DHrsHBpvl8/+gYrWYML1OXrLExQJWmG0ATDXpjneFiotlZ9Ez5+B0JI3KlB2jU1q21eLg7zagcU2V7Chd5t7fCPf+RlS8tAuKxYC0CwqQeUUp0qbmQ7EYpOUqf34bWrbVShufiIiIiIjoq5p2HcD2X/8Zg35/DwzWU0UsRZ0lN1XiYgErjFRAWZ7meFWouFx2Fr3Lmd4b+p239GX+Ji8O/mY9qt4/AATjZ5++oCeAmjlHUDPnCIwuE9IvLkbmFaVImZALYYje76Zlex3K/rotauMREUWO/BlYREREFF5N2/dj5yPPYeBvfwbFZAJgeFd2pkSlyA4QL1RALEtz/h3ADbKz6J1iMSDzilLZMTSpX3YMGy/6CFXv7o+r4tVX+Zt9qHpnP7bfuBDrxr6Dg79dj/YjzREfV/UGsfeXK6D6wnOXRiIiIiIionBr2LQLOx95DgGff70Ydf0B2XkSFWdghcmKNMdTCtQfyc4RC9IvLIQx2RL6QJmCKg7/4TMc/df2k9VJ2XmiyHeiDcde2IljL+1C2jcKkffD/kiZmBuRscqe3QL3rvqEOr9EFM9kz8CSPToREVH8atiwA1t++nvbBsA0CpB/F68ExAJWGKxIdf5ehfq/snPEioxvlULPl9gBtx97716G2gVHZEeRK6ii7pMy1H1SBltpEnJ/0B851/eBYgvPy0bL9tqTBUIiorjCJYRERETxyn346CCRZn9zcZ37+qmAX3aeRMMlhN20LM3xc1WoD8jOESsUiwGpUwtkxzgnf70HW6+ZzeLVV7QdasLBR9Zi3fgZKHt2EwIt3fvCIegJYO/dS7l0kIiIiIiIYooK8R1jmuONGYC8u2AlKBawumF5uvMnAnhGdo5YkjIpDwaHCRBCdy3g9mPHzQvRuoN3RD0Xf70HZX/ajPWT3sHRf25HsD3QpXN95OmNcO9vlP1wiIjCTPJ7GWdgERERRcv0vDTHCyprKlHFJYRdtDzdcZNQ1b/IzhFrUs/Llx3hrIKeAHbftggtm0/w8l+DQL0HRx5bj8oXdqDgrqHIub4PhFnbFxBNG6px7IUdPM9ERBHA11YiIqKouXllmiOg1rXeLoD4veOXjrBa2AUr0p1XCxUvguev05In5uHzTW7104488RkaVh6L6GOPR95qNw4+uBqfTX0f1e/sB4JAR+c52BbA/l8si+s7OhJRIpP9fkZERERRduuKNMezskMkChZgOmllmuMiQP0vOHut08xZdth7p8qO8TUNyypw7EVuJt4dnvJm7PvfZdh61Sy0bK8553GHH1+PtsNNUUxGREREREQUOQK4a0Wag1sLRQGLMJ2wIsM5FUF1plBhkZ0lFrlGZJ3ao0M//E1e7P/FMghOCAqLlk3V2Hb5R8j5fn8U3TsKBpf5zH9rXF2J46/u5BwBIopjcmdCCQi+xhIREcnx8xVpjsCkutZ7ZQeJZyxgabQ83TZWqOpMCFhlZ4lVrmGZsiN8TcXzW+A94ebKizBSgyoqX92JmjmHUPLAWGRe1QuBNh8O/GrZyQN4romIIoevsUT0BYrNBGOKBcYUKxSz4UtfLgZavAh6Agi2+hBo9cLf5OEdoukMg8MEg8sCg80Ig9MMQ5Klw/cY1eM/eYOnU4L+IPwN7Qg0ehBwd+8O5rFCAL9cmW5vnFjr/p3sLPGKBSwN1qQ6hgSAOQBcsrPEMueQTOjpytp7vBWVr+yQHSNu+U60Yd/Pl6D6vX0wpVjQXtYsOxIRURTIfJ/Tz3ssEUWPwW6CvX8G7H3TYe+XDmthEiwFSbAUuGCwmzT3o/qD8BxrRvuRJrQfaUD7kSa0bq9Gy+aqhClAJBJTmhXWHqmw9UyFrSQF1uJkmLIcMGc7YM60QbFpf+6EEvQG4G9oh7/BA39jO/wN7fAcbUZ7eRM8ZU1oL2+Ep6wpTp5n4rcr0h2BSbWtj8tOEo9YwApheYarj18NzhdAmuwssc4+IAN6urg++rfNCLb5ZceIe40rKmRHICKKEtmbqevnPZZIhuTxBYBB3t+Bp6wJ7WWNER/H4DAhZXIRksYXIGlULuz9MyHC8LiF0QBrUQqsRSnA5KIz/676g2jdeQLNGyrRtK4CDUvL4qTQkDgMdhNco/PgHJoN5+AsOIdkwZzjjNr4itkIc5YT5qyOx/TVtaH9YANatlejdVs1WrZVo21/HdRAbO33IoDHVmQ4/JNqWp+SnSXesIDVgRWptiJFVRcCIkd2llhnSrPClKaf1ZcBtx81H+znbiFERBRGst9TuAsWJbZ+L10OgyN8s0Y6q+KvG1D21OqI9G1MsyL90t5I/1ZPJI3OgzAbIjLO2QiTcrLwMTQbubcOQ7Ddj4bFR1Azex8aFh1GoJXFLN0RgHNYNlKmFCN5UiFcw3MgTPq/f5sp3QZTug2u0bln/i3o9qN15wm0bKlC44pyNK2piInnnFDxxMp0Z+vE2pbnZWeJJyxgncOqdFs+VMNiAEUhD6aQbD1TIP/C/nO1Mw8g0KL/Fz4iIoolsmdgESW6OPsbVARSpxYj+8YhSDmvSDcFCMVqQtolvZB2SS8E2/2om38AlS9uRsvmKtnREpsikDQqF2nf6oX0S3rBnBu9GVaRpNhNcI3Kg2tUHnJvHQ7VG0DTZ5VoXHoEDcvK0bqjGtDnBC0hgL+tynAGJtS0/FN2mHjBAtZZLMtxZsKHBRDoITtLvLD2SpEd4Uuq39ktOwIRERER0dcoNhOyvzsQOTcPhbU4WXacDilWIzKu6IuMK/qieUMlKl/ejLq5B6D6uRl8tJizHMic3h/Z1w+CpShJdpyIE2YDkscXIHl8AYruA7xVraj5aA9OvLsb7l01suN9lYCK51emO1on1rb+R3aYeMAC1ldsSE1N9vp88wAMkJ0lnlhyXdDLN2L++nY0bzohOwYREcUd2bM/9PE+SyRPbP8NKjYTcn4wBHl3jIAp3R6mTNFzepaM52gTjj67FtXv7gKC+pwaEw+cw7KR9+NRSLuoB4RRH7PzZDBnO5F3+0jk3T4S7l01OPHuLtR8tBfeqhbZ0U5TBMQrqzIcgQk1rW/KDhPrWMD6gg15sPu8vllCxQjZWeKNJdchO8IZjSsrIPhmSkREYaaH8pEeMhDJI7uA1cXRBZBxZX8U3TcB5tzYv+m5pSAZPZ++CLm3jkDZYyvQsPSw7EhxJfm8YuT/ZBSSxhfKjqI79v6ZKP51JooemIy6uftx7O8b0LpNF0tbDVDF66vTnIHxdS0zZIeJZSxgnbKqADZfm3MWgEmys8Qjc44Dsi8oTmtcybviERFRJMj+8KyP91ki0s7WJx09npgG18jc0AfHGHv/DPR7/Uo0Lj+Cw79Zhra9tbIjxTTHkGwUPzgZSeMKZEfRPWEQSL+sN9Iv643GFWU49vwGNK4okx3LAIHXV2e42sbXNH8sO0ysYgELwAbA5GtzzAAwVXaWeGXMsEMvF9YtG6tlRyAiorilj/c6osQUO0VkYVKQ/9OxyP/J6KjeUVCG5MklGDynEBV/XoNjf9/A/bE6yZzjRNEDk5BxRX++xXRB8qRiJE8qRuu2KpQ/tQoNSw7LjGOGqr67JtN+1bgT7jkyg8SqhC9gzQAM/jTnawK4THaWeGZMssiOAABQAyo8hxr52k9ERHFH9kd3ItL2N2jOT0Kvv1wC1+i8iOfRC8VsQOG9E5F+WR8c/MWCk3eOo44JIOPqASh+eAqMKVbZaWKeY3A2+r12FRpXlOHIw0vQtk/ajEAzgsq7azKcl46raVksK0SsStzd3gCogCjOcP4DAtfLzhLvjCk2fH5pLa95jjYj6PFH/PESEVEikv8+R5TY9P/3l3pxLwxZcBNco/N1kDf6zd4/CwNn3oC8n4zhS1YHrKUpGPDu9ej5p4t18zkqXlrypGIMmnsjCu+fDIPD1MnfTNjYoGLWqgznFFkBYlVCF7DWZbieVlXcJjtH3BPwIFzfAAAgAElEQVSAwa6PyX7tBxpkRyAiIiKiRCOA/HvGoc8/vw2Dyyw7jVTCbEDh/5uEPi9emfDn4mwyruyPQXO+n1Az9KJNMRuQd+doDFlyC5KnlMiKYVdUfLQ6PWmsrACxSB9VBQnWpDseV1X1F7JzJAJhMgCKPmql3iq37AhERBS3Tn/DK3N86jYFMGcZYCkwwFJghKXQAFOqAmOqAmPKyabYFSimk+fb4BQItqtQT03w9jcFEGwD/PVB+BuC8NUG4D0egOdoAJ4KPzzlAQQ9vBtyZOjzb1AxG9DjmUuQ/u2+Uc6jb6nTemLQxzdi749mcoN3AIrViJLfXoDM6wbJjpIwzNku9HvtOzj+wmcoe2I5VG8g2hGSBILz12bYp42tcW+I9uCxKCELWOvSnQ+qwH2ycyQKxaifC+pAs4eX90REFLf4Htc5ilnAMcQE+0Az7H1NsPczwdbHBMXS9TNpCXV5rQKe8gDcu71w7/bBvceHlo1e+Gqi/sEpTsn7Kzhb+czgMKH3v69E0qRiGZF0z9ojDQNn3ohD985D3aw9suNIY8pyos+LV8AxNP7uRql7Asi5fRQcQ3Kw746Z8Ne1RTtBMlRl4eoM+wXja9wboz14rEm4AtbadOdPVeC3snMkEmE0QC+X1IEWn+wIRLomTAoseS5YipNhKUqCtSQZ5hwnFKcJitUIg9MMg8MMYVYghEDA7UOw1Y9Aiwf+Zi+CrV4E3H54jzXDc6QJ7Uca4TncgEAr//bo64TZAGtREqylKbAUJsGYYYc5ywFjhhXGZBsUmwEGhxmK3Yig++T0lqDHD399O/x1bfCdcMNztBmeI41oP9yItv11UH0y724le/YHhaJYBFxjrUiaYIZruBWOQSYIc5R/ZwKwFBlhKTIi9aLP/9lT5kfzRg+a13vQuMwD73Hu2RnrDC4L+v7nGjiHsyjREYPDhF7PXYayXBeO/zvxJqHYB2ajz0tXwpzrkh0lobnGFmDgRzdiz03vov1gfbSHT1FUZd66NOfUMXUtO6I9eCxJqALW2nTHDwD8WXaOxKSPC/pAk1d2BCLdEEYF9v4ZcI7IgXNkDhzDcmDJd0EYw7/k11fbBs/hRrQdqEfr1iq0bquGe2eNjKnaJIliM8E5PBuOoVlwDMqCfXAWrIVJgBK+9wfVG4B7Ty1at1ajeU0FmtZUwFfdGrb+tdHf8qVEZ842IvUiG1Km2OAaZ4Fi0ce2Bl9lKTLDUmRGxpUnP8S693jRuKwd9YvcaNnkAWTWZmOG7CLy52MbHGb0ffUaOIdzHyNNhEDRr6fCmGrD0SeXy04TNUkTitD7xatlbiZOX2ApSkH/d27A7htmoG1vTbSHz1QFPl2d7jx/fG3LrmgPHisSpoC1LtN5HVS8iATfuF4G1ePXzTW1MCoQOslCFHXi5C2EUy4shWtMHhxDsqFE6QYLpgwbTBk2OEflIPO6/gBOzqRp2XgczSuPomllOVo2VwFB7gsTNwTgGJSFlAtLkTShEI6hWRBmQ2SHtBjgGJIFx5AsZN14cg+Rtj21qJ9/EPXzDsC940REx9fDZ2e+x51kSjcg9VsOpF1ih2uENSav/ux9LbD3tSD39mR4j/tRP8+N2tktaN3CL+N069TfoGIxos8r34FzFItXnZX303EAgIqn4r+IlTy1B3r949tQrCxe6Ykp04H+M67D7mvfQtv+qO/NlmUAFqzPTp4yuqrxYLQHjwUJUcBSAWW9ij8CiOyVM52V6g1ADQDCIP+qmt9uUKIRJgWuMflIvagHUi7qAXOefqanKxYTksYXIml8IfJ/OR7e4y2on7MfdbP2oWVjJcBaVkyyD8pCxjX9kPrNnrp4vtn6ZsDWNwN5d41B2/461MzYidr3d8N3IhI39dBBBSuRKUDSeBsyr3MhdZodwhQ/58Oca0L2LcnIviUZ7Qd9qHm/GSfeaYG/jrNYv0z23yAARaDHs5fCNbZQbo4YlvfT8Qi6fah8bo3sKBGTclEv9Hruioh/sUNdY0xzoM9r12LX1W/Ae7w52sMXqIHAkrXZyVPGVjUeivbgehc/7+wdWJ/umKYKsVB2jkQ2YueduigeVb2yBWUPL5UdgyiyBOAak4+M6QOQcmEPGJMtshN1mvdYM+rn7kftx3vRuqlKdhwKQXGYkHntAGTcMBD2fhmy44Sk+oKom70Xx/+1Kayzsvp/MB3OETlh66+z6ucfxP4fzZI2viwGl4KsG5KQ9d0kmPPlX2ucjRpQw/5FXtCron5OC46/1Aj3Lk9Y+45VI3beA4PDLG386tc2QQ0EkX3LSGkZ4oaq4uDds1E7c6fsJGGXNLEYfV75DoQ5IeaSxDT3rmrsuuoNBNuiv5erCnHE5PdNGdHQfiTqg+tYQvzVqMD3ZGdIdME2v9QLitOsPVJlRyCKGEOSBVnfHYTMGwbDUpIsO063mPOS8P/ZO+84N6qr7/9mRr1rpe29e92xDa50DJhmgg1utBDqAwkk7wMhCQkBEiAhDwRCQgvgEAyGAKYEG7DpGGxwwW1tb+9NK61618z7x9pgo9FWSXekne9+jkM00tzf3LnSzD1zzrnZP5mF7J/MgrfWgr4X9sL61qHvCnmLCAOpWYXsn5yAzDXTUspRSkkZmC6ugeniGjg+aUHbPZ/FqWCrAKI/JhCyfClyrtbDfKkejHp8/c6FOfgag/A3hOCrD8LXGARYDoW/NENeNH6nWNgaQeu9/Yi4WSjLZFBUSqEsk0FVIwejG1t+Iy2jYLpYB9PFOji3etHzrAOOz5Nd801okP0OZl05i1jbaQdFofQvSxDocMC9s5O0mrihnp6LimcuASUTprNd5HhUNdkoeeAcNN2W/IdDFLjisESyeZdZddqsfm9X0gUIlLS/y/q4BAqNW9MDILVncynOtM9/DHmRjrQMBDuc2LvwedIyRETiiixPi+xrT4B55VRBRDomirDdj761e9C39luEB/yk5UxoGJ0cOTfMRvY1JyStjloi4YIR9DyzG92Pbx+Xk7RmwwqoCUZg2d9vnBARWLIcCXKuMyJzpWHMKwhyEQ6+gwG4d/ng2uGH8wsPIq7vq6TrT1Gj7JHcMTuXeNsMcmi9uxf9rzmPe11eKIVuoQq6BSpo56ogyRh7SpHvcABdf7dhYFPSU14EwQm1vxDEA1OR+BHscaH2vOcRtiYi7Tu5yIsNqHnzSkgyVKSliIyS1l+9B8tL35Jq/jBHcaedZPH0kBIgJNLegbUjU3Mpx+FV0jomOpPfXQ3V1CzSMgAAexc8h2Cnc/g3iogIHIlJhdxbTkTmmmmg5anvRBgprCeEvhf2oPuJbxBxiGkzSYWmkLliCvJ/uQgSo4K0mrgT7HSi/b7PMLCpYUyfr9mwUgAOrHeItZ9oJEYGuTebkLlKD1o2esdSeCCCgQ/csL/vgmuHF6yPp9AeBeTeaEL+beaEFX7vXTuAjgct4CL87Ssr5TCcqYFxiQaqmrF9z9w7fOh4yAL3Lt841aYWogMrPXF+3oy6K19N6YVeaLUUNRuuhLI6k7QUkTEQ8QRRe/azCHQ4SEnYywaoM+a6XEmvKi800t6B9Y1Z8yaApaR1THTKn7wAxiUVpGUAAFr+9wP0/yf98ulFJg6UjEHOdbOQe8vctIh+GSsRRwDd//gafc/vARsQUwsTjbLKhOIHz4Jmdi5pKQnHvrkJrXduQah/dE/8RQdWYqCkFDJXGZD/s0ww+tF5lcIDEdg3u2F7zwnXV15w4dgTYEpCofjeHJgvHTpon4tw8DcEoayOTptlAyxAYVgHm32zG00/7xp8/xAoSmQwnquFcYkWqsmjdGZxgG2jEx1/siDYnfz6LSQ4ofb/iQ6sNKX9ni3ofe4b0jLGBkWh/IkfwbikmrQSkXHg/KIFdZevBzhijtRvQ0H6zAVOp42UACGQgosKj5y9er0RwLmkdYgMpu59X5eArBnPq0r04YqIJAz9qSWY8sGVyL9jEWiVFKS/TySN0StQ8KtTMGXzldCfURqH3hXhhQKyrp6Jmv+uhmZ2Hkif92SYYXE5pnxwBQxnl4++s4hbeqGdp8aUd8pQ9NtcMHoJBm9dhzfX1340/rQLexY2oOU33XB+7hnSeUUrKVQ8UQjzpcYh9xu2sqi/pgPWt52820MWDocua0egIzLkfgyLdaj6dzEkxqHTBf0tQXQ/aUXt0hYcOL8ZlpcdYH3UyPqBopFxvgFTPyhH3i2ZY063FBERAvl3nApFaWrWspUX6KA5sYC0DJFxoltUAuN5RJ2QM6WyyMZtGRnk6/IQJK2vZDvN2us5cE+R1iECZF19AgrvOZ20DAAAF2axb94zCFkmeqFTkVSC0clRePfpMC2fTFqKYLG/34C2X48+akYkNoxOjtJHz5vQDsL+V/aj456PEfEMH8EyacMqqGeRi1Czv9+AxuvfJtZ+PGF0NAruzIV5uWHEd6tsgIXtLQf6/m2D79DI6+RJjAwqni6GeqZyyPe5d3jRdGsHQn0h5FxvQv7t0dF2gY4Q9p9eB0bPoPShAuhP1wy5T39TAPU/bkWwa+QRUoyOhnmZEZlrMiAvHnm0kb8hgNZfd8G9O31/I2fW/i8YjRiBla64vmhB3eqXSMsYE9JsLcoeXwrN3CLSUkTGQaDdgdozniIa+U9x+FJBK8+ZYrG4iYkgSFpHYLHgxNUHBQLBfOEoKAkN8+pppGWIiIwY3aJiTP7gStF5NQyGcyowefNVMCwebdSMCB+KMiMmvbV6QjuvAMC8Yipq3rsSqunkUgMnGoaztJjyXtVgNBQ1fNRZxM2h6zEL9i2qQ+tvukbnvMqQoOqFUqhnqoZsw/LSAOquaEGo76ijaegouIgjgoYbWtH1mAXgYr9XUaZA1boyyPJHvgBHxMmi93kr9p9dj8Yb2+A96B+2jwAKigoFqteXofB3uaAVaT0FEElTtItKYDxvEmkZYyLU60LdqpfQ84+vSKagiYwTeaEe5svJrjbKUVjg43yb9mRnq4kKIUTaXr2+zlAWUsAi0jpEBgm2CyeFEKCQdc3stF6tTSQ9oBgKeb9YgMp/L4MsVwfS35tUMEmGCuX/vBjFDyye0PXBxotmbgEmvbUGirIMkD6nQjB5kQHVr62AafmUYXqOvNZUhpbTKPxtHsqfLIU0SwZQ9JDGBoC+F2zYf1Yduv/Wh7A9Mqr2JCYJql4sg7JGFbMNjqXQ+ZdetN3d9YMURCrGZ445BxzQ/bc+NN3aDjaImG3IC+WoXl8+qmgqAAAL2D904eDSRjTc0Abf4cCwfQaGRtaVmah5qxKqKUNHnKUmpL9/oiXaCu46C5QsNa/vXJhF54Mfo+Enrx1ZhIZ8f4o2esu5YZ4QxuCiEOvZ8HEJ0m9FnWFIWweWhJKspkDRFMQ/IfwFWxzggqO7sUwkEoMC2defSLxfxD/xL9af1KhC5YvLkXvrfICmSH9lUg7z6umY/O6VUM/IIX4uU+3PcHoZKl9YBkYXXaB6IkPLJSj5v3NRdN+ZoGUS3r4TAqTHz1j/1FNUqHmnCllXZWK4yQMXBCwv2HDg9Dp03NeNiDUy6vZkZimq11VAWaWM2Q7r5dB0Uxt6n+qP+nysz/D92Tc50XBlC8IDkZifk+XKUb2uAopi+eh7j6Pg/MiFQ0sb0XJ7B4IdoWH7UFGuwKT/VCLn2ixQFOmzH78/kfRHVqBH5uqZxMfaeP6cWxpwcMmz8O7tJt2dImNAmqOF+dIZxMcRxVGLdS7Nm/UVmFA3bGnrwOIAMX1QQLCBMLy1/SDtMT/Wsm86CfISQ4KPXERk9CgqTah+ew20C4pB+nuSyiYvy0D166tgXjV9DGdhYqI/uwJlzywFrZjYCwQMZZlXnoDKly+FNIuvthF5famIaXkGql6thKJMieEKk7u/8eLgRfVov7cTIcvYVtZjdAwq1pZDURG7vfAAi7rLm+D4yBljL9QQOqNx7/Tg8KWNCHbGLu4uzZGj8oUKSLPHFiHORTjYNgyg9pw69PzDAi44lEYalIxB/p35KH+iFIwmXaYEpL9/oiXDcm5eeOQ6lboEOxw4fMm/YXlhJ0j3p2ijt8yr5/Ce16RDUec47dr1O4DU/kKMgnS5Wh3HrgzNZFAQixwJDO+3wnrKQMslKLr/LDG6RURQ6E4uRvWGVZAXDb2Mu8jIoKQMih5cjPxfnyJ+14dBO78IpY+fD0o69KpoIoBmTj4mvbMayupM0lJSGkpGo+C3BSh+sBi0nMFQk4WIg0XHfZ2oW9MAf8PIa1z9EFpOo/zpMignxa55FbKEUX95I7x7hyp2PtTkhp9ASwB1q+oQaA7G/KwsX47KtRWQGMeensIGWHQ93I3a8w7BtdU1jFYK+rMMmPTmpCPRaKkO+YmtaIk3abYOGctT/+EUFwyj/a730XT964i4Yv8uiCY8U1ZnQTOnMMaZTToXUybtyx8DxPMak0FaHiTLUFdSYm08weHZ1Y3Mq8kWvfsh2oUlyLlpLnr+vo20FBERGM6rQumj54OSiQ6EeJN9w0mQFxnR8vN3wfrIrRwjVJSTs1D27MWg5RPmAd64keboUPXaSjRd9yZc29qPvHr05pYUJNseHRKjBGVPlkEze+hV+gDAtsGGjgc6ELaN77tLSSmUPl4KzRxtzPcEO4Kov6IOgfbgSPY4wteO2X9XCHWr6lHxrwooq/kdRopKJcqfKUf9lfVgvewIdPATaAmg/upGmC4xIf9XBZAYYl9b5CUKVP2nGi23NsHxSayoMxER4ZB1zUnoX7crLQqi2987BH+DBWVPLoeiSiAPRlgOIasHYZsXoV43whbPd/8fADhfCGxgsDxMxBH9UIHRyUErpaBVUjA6BSQmNaTZGkizNZDlG9JitVDTqplw72gf/o3JgMIynVm37tV+5+rLAOHU7UkAaefA4gBqN4sVKXQPN2EYjMAS3onJ/cVCeHd3w/VlK2kpIhMY06VTUfinc0AxaRkYKwgMS6pQladD07UbEOqbkCsP8yIxqVD+z0vAqCdUCYW4wOgUqPj3crTcthH2dw8feZXcdY60+2ykyEvkKH+2CvLiocdcxBlB229aYd9kAzD+Yyv6fRH0pxtjbg92BlG/ug7BruCwbVGgwJ/IQA/72XB/CPVr6lG5rgrKahXve9QztSj9axmabmwE2HFM0DnA9roV7i9dKH5kaOcdo6ZR9mQlOu5tR/9LfWNvkyBUynwLRMaLosIM/anlcH7SQFpKXAg0WHH4oudQ+MfzkbEsuYlErD8Ez44O+Gp74a/rg+9QH/z1loQ+8JPl6SGvyICyOhvqOYVQzymANHP4BxpCwnDOJLT/ahO4oFAejHKXVZp1L6Df+S5pJYkk7RxYuzM1J4NDCWkdItEEWu0I93sgMQtrxU9KQqP06aWoX/YyfIctpOWITEAylk9F0UPn4rjVq0QSgmpGDqo2rEHDmlcQaLGTlkMcSsqg9KmlkOXHntSKDA0lk6D08QvRkSWsa5tQUc/SoOypymFT5Dy7PWi5rQHBzpFEQg1P1jU5MK3Iirk91BdCw5WHEewaaXvjc5RE7GE0XFWPqpcnQV7Kv4iU/gwj8u8oQOeD43/CH+wOouHyOuTckofsm3JBMfzaKQmFwnuLIcuXoesvHUDqB7ekHcEuB/yH+hBocyDYPoBQjwusLwQ2EEbE6QetkoGW0qC1CkgMSsgKDZAV6aEoM0FRnZVWD8pMq2amjQMLAFhvCK0/fxPur9tQcO85oOWJm6oHO51wbDkM50cNcG9rSXp0erDLgWCXA67PmoFnBjNhFBVm6M+phuGcSVDNyBX8fTGjU0B3ShkcW+pIS/kOFuwqAGntwBL2qBgDu7O0T3EcrietQ4Sfoj+dC9MKYeash7pdqLvsJQTbHaSliEwgjBdMQvGjF6TVDWUqEOp2oX71egSaB0hLIUreL09B9k3zSMtIG7hgmOjS2o4P6tF0/QZi7Q+H5kQtyp+pBq0e4veOAywv9KLzz+3ggmNPnzsW3al6lD1VFdNpEx4Io371QfgbfCPeZ/Z1uci7I7r+SbAjgAOn7xnxfqQ5MlS9XANZQexotPbftaD/5fhFRGlO0qHk4TJIs4dO4elf34f2u1vHFwGWZGYcuBN0GqQmHUvY7oPjvYNwfd4M9852hLrHnuJJq2VQzyyA5qRCGM6fDEWlQNLVxggXjGD/SY8gPDBUvbrURDklF6VPLIe8OHbU6FjwHehGz+Nb4Xj/ELhIfH5jE4GiwgzzFSciY9l0MFrhRohbX/0Wbbe/TVrGsXjkUORMsVjSNtUgrQqtHABkYZX8WQD88dgixOEiLDIunkxaBi+MVg7jedVwftyM8MDIb2JFRMaK9uQSlD6xFJQkrX6KUwJGK4fh3Co4tjQgYh97QehURjOvCEUPnCP4J5ypBGlHdKDRhoF3DhHVEAvdqQaUPT0JtDJ2sXbWx6H5p/Ww/KsHiMTHaaKoUKLi+ZqYReJZP4eGqw/Cd3B0E2DNbB20Cw1R+4s42UH9I4R1R+D8xAHjhZkx+0a3UA/XdidC3fGJRgt2BmB7ywrNHD1kOXLeNgEKqqkayIsUcH40AAh3nnscOTcvSos6klyYhX1jLTrv+wAdv90ExweH4a+zgHUHxrffUATB9gG4t7Wi/4UdsL9bC9YVgLIqMyVX9aMYGsEOB7x7u0hLiTthixu21/ZAXm6GosI8/v1ZPWi/ayPaf/ce/HUWwdcOC9u8cH7SgP51O0HRFJTTckFJhPewV2pSoe+fgqqlLGO5yIGnvIF9pIUkirS6a92drV0KFm+S1iESG0omwdRdPxV04b6w1Yvm696AZ1cnaSkiaYyi3ITKN68Q9FOliUCwzY76ZS8iZPGQlpJUpJlqVL19FaS5YupgOuH4oB7N179BWkYUutONKP17FShZ7MlHqC+I5usPwbs/ft9FWkmj6o1pUFTGeK7Jcmj+nzo4tthGve+s6/OQd0dx1OvBjgBqT9s16v2pZ2tR/sJk0HL+Pgr1BHD4on0I20Kj3ncsaAWNoocqYFhiGvJ99nf70fqLBnBxciomkukHfpXSEVhsIAzrup2wPLsNwY7kpbnTKilMl52ArBsXQpqrS1q78cC9tRkNq18gLSNxUBQyr52HvF+eOeZVgu2batHxq3dTOlJNVmhA8cM/gvqkItJSojh01hPw1wuqbuB/T7C4LiQtIlEIz405HlhqDWkJIkPDBcNwfthIWsaQSEwqVLy6Glk3zhMjE0QSAmNQoPSfy0TnlQCQFRlQ/uIKMLqJcy4oKYPix5eKziuRpKCZb0DJ45OOpFbSvOav86N++f64Oq8AoOCecigqNTHb7by/dUzOq0GOFnHns9Hj2elC2/82Ahz/PqU5SpQ8GjsNciywfhYtP6tDz2MdvG0eNcP5WSh8sAKgU+GeKPay90I3x+bDOHTWP9B5z3tJdV4Bg7WXLGu/xsEzHkfv378AF4wk5BgTYeq5JZAY0zj5huNgeeYrNKx8AaFuF0bVPyzQ9cAWtNz0Wko7rwAg2G5Hw8p/oeevnx6pzUd+7B01zYKShB77GDhnR552/GF7AiX1Y2yPsC0jQyehI08DSL341wkGRVMwnF8D0j82QxlF09AuKoFySjY8OzrHHbItIvIdFIXSJy+B+oQ8kB7nog2axKyGcnI27O8cFHxIfTzIv+tMGC8U9m+waGOzQKN1cBwLBPVsHcqfnQJaETtt0FfrQcPKfQhb4xdZBACmFTnIuaUoZrv963rQ89e2Me9fPVsP7UJj1H4jzggsa8eWzuRv8AIcBc286NREgIKsUAlEAPfX8a3V6d7uBOtloV0UfTxHTVmjgcQghfNTYdcNzL755JRLIQxbPWi5+T/offQzRBxkU9q5EAv31mbY3z0A9ewiSLOF/6CDoil493fDXyeoCJi4E+pyYOCNvVBOzoG8OGPY93OhCNp+8Qas63YmQV2S4Di4t7Ug2O2E7owqUAJxqkeO1KkTEAzFcc1PeYI7SAtJBGkTgSVnQpdQgJL87aNow5nro8YjNaZIKxne9IurULPlemT95ETQEloAikRLdcu69iToTisXgBLRjjXdqeXIvf0UAShJrGkXlCDz6jkCUCJaooy8gkFTVqhQ9vSUIWteARQU1Rpk/Cgrrm3LixTI/03s31nvt250/bF53O2M5tWRWu/f2+D4wBrzHdm3FEE9Uxvf/ipUwHRZ7rDvNF+Rh5ybi5I6juJzToRr7q3NqDv3Sbg+qheAmu8t2GRFwyXPov/5rwUX7cJnmpOEPS7jZRGbB01XvTgYhcQOcV5YoO22DbC/tZ+45kTYwCu70fHrdwWgZNBUMwsEoOJ4ozlqNdKUtHFg0ZyYPpgqsP4QbC9/S/6bPUKjNVLk/e4sVH94PYyXTCVepFckdVHNzEXuL08lPqZF47esG+fBcEHNkOcwlaEVUhQ+dB7AUMT7WrQEmgCQGKUoeWoqGL0MQ6WmATQohkH+3VXI/22cUtRoCkV/ngRaxZ+yGLaG0XLLwTiscEjx7n/ct9Yc0H5nPYJtQd59UxIGxQ9PBq2KT5SRaqYOla+dAHmZmre9H1rObaUwXpwdl7YnOv1rt6Px8hcQ6nORlsILFwyj8/cb0fb/NoALC7uKv2ZuCWkJyYPl0PvIx2i68gWEbfxp1133vw/7f/cnWVhysa3fif6120nLAADISzKEWBZk0e4cQwlpEYkgLWbiO8yqXI7iTietQ2Tk9L+4G1yYA/k7/ZGbvCQDRY9chOrN18G0ZhZotZitKjJyKLkERf93ESipBKTHsmgxjKJR8OB5kBXqhzqVKUvmTfMgK+BPTRItnYwstIJG6T+nQ16swmh0m68qQMljk4+kG46drBuKoJ7DP865CNB62yGEeuJRFiBx5yDiDKPl5gNg/Szv/mVFSuTeXjbudgznZ6Fi3UxITLFXIowyikLh/dVQn2QYd/uJgfT3b2TW98QX6Lx7I8AKP2194PU9aLl+Pb3lvg8AACAASURBVFh/GKT7LZYpqrIhMaRxHSweXJ83oW7Jk/DsaMexfWH/7wFYnvmKsLrk0PXHDxBosoH0+ANFQ16RmfgDHh0UFYmsIC0iEaSFA0sCyUqkUT2viUCoywnH+4dJyxgT8nITCu4/F5O3/wz5954D5WTxSaTI8GT/dCHkFUOv9CRCHkYrR9GjSwW5VPN4kObqkHXDfNIyRCYABX+cBNUMHcYyCdCfm4XK12dBXjq2iaiiWoOcn5bE3H/fE21wfxXPGk6xjmX8+A660XV/U8w2zJcXQDPfOKZ9U1IaeXdWoPivU0DJh07x5DNKxqDk8amQ5irGdYwTla57N6H7wc2kZYwK54eH0XzNS+CCYdJS+KEoqE4U3up0iSbU40TjiudgefpLgOMQ6nKg4863SMtKGlwwjK57N5KWAQBQVGWRlhAFB6RlGmFa3KFTFLeGvO9ftNGade1OAagYuzFaBcxXzUHVpmsx6ZObkPu/p0I1OQcUJZwaJKIJw5Q12ci6cb4AlIg2ElPPLkTW/ywQgJL4WdaN80ErpQJQIloijbSCzCsLYFyai1jpZ759Hthe7Ym5HaChqNahcsNJMCzJHl37FFBwb3XM1Q59+zzo+3tr3I518N8YaZFxasP2cidcnw7wt0PRKLh3EmjZ6NqT5ShQ/uIJyLy2GKBin4dgRxCWp9tjbpdkyFHy+LRRt59oI69gaOt77FP0P/uVAJSM3jxbG9H+8w1D114iaJqTigWgIvmGMIvuP76HluvXo+POt8G6AsQ1JdNcH9fDf7CHuBJFeSbxvvih0cD0PdmaqUgzUj5qaXemrpICHiCtQ2T0hDod0CwqhSw/9dN1JEYl1HOLYLp8FkxrToBycg5orRwRhw+sS1zBcEJDUSh5atmR1C2RVEE9uwCOjYcQGfCRljJuJGY1Ch+5EJQk5S/5IsMwuAphLZG21bMNKHrkaJ3I6FvpUE8ATVfugv3tHnBhQDMvA6D4b7tpGQ3DedlgDFK4t9mByPBpVhkr8mG+vJB3f6yfQ/M1uxHuD8b1eLULTVFtRZwR9K8d++qGP8SzbQAZy/J4V3KUGGVAhINn+8iiyrQnm1C69gQoyjVR+zrWvHtdaLpiF5ybLZBkyqGapud9nzRHAalJBudH/XE73vGSdfNpR5yYpKeO0WZbv0sw0SJjxV/XB9YbhPaUSpDuz6jvuScE+4ZvE9sBAibQ2I9gq420DCJwYQ66xWRXVw51O+HYeCAJRztKOMrxpDf4IWkZ8URCWsB4YShcMQFWPU9buv/4ISo2XI3Bm9j0QJKpheFH02D40TQAQKjPDd+eLni/7YJvbxcCjVYEu5yAOHAnBIaLJkM1u5C0jHHDBcMI9XkQGfCBC0fAegYds7RKBkoqAaNXQJqtASVP+csKAICSS1Fw/3loXPliyn9XTZfPBq2QkZYhkhTIXEsZnQRFj0w/UuMvGtbPouXGvQj1Dv5u9P2jGcFOPwofmAJKFjsZwHxlMbQLzWi/8wC8u+0x3yfJkCH39irESizo+fNhBBr5ix2PHSpGe/E9B6G+ADp+exjFf5vOuz3rhlLY3+lBoNkbcx+MRoLcO6uQsaJgWHnOLX1ou23vkfpbQNe9dZCXaKCZn8H7/oyVhXBtHYBjU8/IDmiC4q/rQ9fd/yUtIy5Y/vkl1PPLoDuzmrSU45CXimUaJiqO92pR8MDS+CwEMkZk+QJ9UE1xazjgN9SR9UTTgZSfaVAct5K0BpGx49vdCcfGQ9CfP5m0lIQhzdJCurgausXfX+hZfwjBZhsCTdbvLNhkRaDJhojTT1CtSDyhlRLk3nkmSE0qxwTHIdBohffbLnh3dcB/qBehDgdCfe4ROXIkmRrICvSQV2dBPasAqhPyIa8wE72pGCvqeSUwXjwF9g2pu5IPJaGRsfIEpNQYFBkHFJEznX/vZEjzlfwbOaDjjv3w73cep83xVjfCvQEU/30mGEPsRVHkFRqUv3ISrM+3oveRBrD+SNR7cv5fJRgjv5PWu8cB64sdce8XChT/wzcq/ufAuakHzo/yoDszukgwpZAg77c1aLlmJ+9ntaeYkf/HyZDmxTg/x9C/thU99x8GF+G+P4YQi7af7kH56/MgL+GvTVbwx8nw7XEg1CWEiNWjERHCgQuE0H7Lq+D8IYEpGyMch847NkC1+WeQZKhJq/kOWb4RtFwKLhAiLUUkybB2L7x7u6CaWUBMgzRXL8zvN0cVHcjSLkCfaytpKfEipR1Ye7J18ziWqyStQ2R89PzpI+gWV4OSTZz0FlohhaImG4qa6ALwYasHgYZ+BJttCLbbEWyzI9hmQ7DNjrAt9hNWEeFhvnY+pHkpkCLLcvB80wbHxoNwvncYoR7nmHcVtrgRtrjh3d2JgfW7AQw6tXRnV0N/fg3U84qPpBilBjm3nwnnpsNg/al5Q6w9vQLSXB1pGXEn1OVA2OoF6wqADYbBeoJgXQFwLAdaKQOtkYJWycDoFKDVMkhzdKBV4sqxicCwNA+GC/Nibu99tAGOjfzROZ5tNtRf+CWKHj8BqhmxfysphoL52lJoz8xC930H4fr0+5Q1RbUWxksLwOe04MIcOu+qTeBKb3zTlcRMYbp+XwvNgpNBK6PvlbSnZkKz0AT3Vut3r0my5Mi5oxrGH8U+N0dhvRF0/no/7O90826P2ENovX4Xyl+bD0YXPXVg9DIUPjQNTVd8kxKr6iWbvsc/hf9wekWohfvd6L53Iwr/eilpKd9DU5AXZcBf30taiQgBfN92EHVgMQJeBZPjqNUARAeWEKBYdo3QnrKIjJ5g6wCsL+6E+Zq5pKUIAolJA4lJA/XckqhtrDuIYPsRx1arHcG2gUHrGHR0CXZ1mAkIo5XDfN3Rwu3ChHUFYHtlN6zPb0eww5GwdsIWN2zrdsK2biekOTqYrjoRGatngTEMHxFAGmm+HuZr56Hv8c9JSxkT+gumQshjcDhYfwjene3w7uxAoLEfgcbBiFXWM/paRtJsLeQVZiin5UI1qwDqeSVg9OIqauNBkilH3t1TECt1z721H32PNwy5j1CXH02XbUP2L6qQeUP5kO+Vl2pR8txJcG/tR/cfDsJf50LOr2pAMfwPwKxrm+GvHbtDfmhipRAmxkEf6vKj79FG5Nw5iXd77q9r0HDRVoChYFpdhOyfV4HWDH+bH2h0o+2W3fDXuYZ5nwcdv9yP4idm8W5XzzPDtKYI1n+3Dn8wiYSKERlHiFCPA/3PfEFaRkKwv7kH5msXQTlteCdpspCVmkQH1gQl0NJP9LtPK6WgGBpchCWmITbcZTuA2+YAqfk09gekrAPrY0ACUAJy+4uMh75HPoV+SU1aRgrEE1ojg6ImB4qanOiNHIdQjwvBtoHBtMQ6C/xHLNw39I2pSPwxXTtPsJNj1huC5cmt6H9ue9IXGQj1ONHzpw/R97fPkHH5HGT97BQwWnlSNYwW8w3zYf3X14ik2IIMlEwC3ZmpF6TMBcNwbDoExzsH4PqsEVwgPo75UK8LoV4X3FubAQymV6pmFUB/0RQYLpom2O+rkMn7/RQwev7UvYg9iI479o6o6gYX5tDz58PwHXCh4P5pwzpeNAszUfG2Cc7NvdCeHJ1WBwChXj96H60bvvExEytVLXETqP7nm2FYVgBFpTZqm2KSHnm/nwLNqVmQxUrn/AEDGzrR9dt9YH3RaZl8OD/owcCGLhh/lM+7Pef2Gjg/7EWoSyyFcJTehzaD9aXFnDEajkPPA++h9KVrSCv5DnmZmbQEEUIE20e2mEXCoCjQapkgS8FwgFmWqVsMizO1V5E4Qso6sEyZusUUuOj8K5GUhHX60XnH2yh54XJBPTlLKSgK0lw9pLn6qOitiN0Hf50Fgfo++A/2wbujHf7DvWKof4Jg9AqYfyLA6CuOg/3Nfeh98MPv0gRJKeS8IVif/gqO1/ci+/YzYFxxgmDrZDE6JUw/ngvLY5+RljIqtAtKQGtTxynD+sKwPvsVrGu/Rtji/u71hI2KMAvv123wft2Gnvs2w7h8Jsw3LYSsUKCFWEdE8mpgac/Ihv7c2JEXXb87gHCPf1R6nO92oe4bG/LvmwbtWUPf4lFSBvrzYrff93AdOG8kwf3Bv/fEjVkOvQ8cRPFz/BHrGatLRrYbawBdd++Hc9NgyuBo9Hb/bh/Us4yQFUfXPqLVEuT/YQZar9k+ij0mAmFcS0Kddjje+FYgahKD54sG+PZ0QjmDXOrWscjyDWnd3yKx4dxBkP7uMxoFWAE6sAAAFLsagOjAIglFiemD6Yb78ybY1u1AxuUnkpaSdjAGJdQnFUF9UtF3r0Ucfnh3tMGzrQWe7a3w1/aACwsx7DX1yLhijuCiiiIDXnTc/jZcWw4PviCQn8+wzYPOX70Dx7sHUPDwxZBkRUcWCAHzT+bB+vw2sO7Rp66RQn1yGWkJI8b1YR267tqIUPeRVNYkj08uGIbtpR0Y+M9umH48F1m3ngpanaIrNyah72gFg7x7pyNWupx9QzscG7vGpCVs8aP1pm9gXF6EnF9PBaMd/a2q/5AT9jc7EtsX1BAphAls1/WZBe6tVmgW8keeDYf9nU5037MPEXtwTDpZXwSdd+5FyYsLQDHRO9Cemg3dublwvs9fTyvxCKeIu+3F7eBYVihyEoZt3XbkzxDGasu0QZX2/S3Cz2CtUrInn1bLSEsYAuriA5mZmimWY54Qpigp6cDakZenQti9lLQOkfjTc/8WaBZVQFbCv1yzSPxg9Epoz6yG9sgyyKw7CO/ONji31MH53sHjIiBERg4lZWC6ci6EdAXzbGtF+62vI9zrgpB0HYv7i2Y0nPs08v9vKbSnCy/tjTGoYFx2Aqz/+pq0lBGjWVgOoZ7vo3DBMHoe2ALr2q+PrHJJVi8XYtH/9FdwvFuLwseWQTVbGJOykZOcybv5hipIc/kL1gY7vei6Z//4dHDAwH/a4f7Cgrx7Z0B7+ugC7rkAC81pOXB/1gculKgHMzRipxAm7hzIStQIWwKjbiPU40PX3fvg+vBoMfGxa/R8Y0P/M03IvLGCd3vOnVPh+sQCLjCy1MR0hAuFMfDKTpD+TUsGjrf2Iuc354PRk69ryeiUmAh9LhINFyL/e0OrFRDw+FNzdOBCAC+TFjJeUtKBpYy4L+YADWkdIvGH84bQ+b9voWT91aAkqbNSWTpAa+TQnFoJzamVyLvnPHi/aYVj00G43js4rlXpJhqGpdMgyRZOLTfHm3vReftb4EKJTqUZPxGbB+3XrkfOPech4/I5pOVEkXHlSbC98M0RR4uwYfQKKCZlQ8A3Ugi2DqD95lfh398tOJXhTgdaVqxF9q/PhumaeaTljJhkuK+kuQqYr6tErOir7rv3gXOH46Ij3O1H23XboV6YidzfTIO8amS/rcoZJhQ/ZULEEYJzUyfsb7bDu8M6/AdHweDx8UdgxfscMDoptGfmwnBxIdQLMkd1kll/BLZ/NcHyj8NgPfE5LwBgefQQ9OfkQVYafTsuK9TAfE05+p9IZA2yWAgjAsv9cT0iVrcAlCQezh+C870DMK4gn0EhMagmRJ+LREMd8y8pGK1c2OOPxSqkgQMrJT0ELLCGtAaRxOHd0Yaee98jLWNiQ1NQzS1B7u+XoOrLn6P0tWtg+vFcscjxCDD9ZD5pCd/R/9RWdPx8gyCeSo0ULsKi+67/ou8vH5KWEoW83AxNiqTlKabmCrqeYLDZiubLnoN/P6k0o+Hhwix67n0P3b/flBJOy2SRfftU0AoJvncUfG/uT3rh/iT+K4B5tlrQuPQT9Ny3DxFHmLdtPmP0MhhXlqJ0/Skof/cMmG+ohKJGH6c5zlBtjx/GKIP+/HwU/n0uqrctQf5Ds6FemHXkez0C4yg4/tuJhsVb0PvQAbCe+K5SzIVY9PzpQMz2M2+shsQkrFT6ZOLacpC0hKTi/vAwaQkAAFpHPgpMZOJCSflXxBUMFM49nKdN+ZUOUi4Ca1eOJpNisZi0DpHEYnvha8irssR6WEKApqCaUwzVnGJk/XIxnO8ewMC6HfDuaietTHCoZhXyrxBJANu6Heh9YDNpGWPG8vjnoKQSZN56Gmkpx2G4bDbcnzWSljEsymn5IP0kMhbBZitaVv3rSEqr8LGt3Q6EIsj9wwWCdgoOklh98kod9BcW8vYDF2LRc//+hLXNhVhY/9UI/yEHSl46ZdSfV0wyQDHJgOw7gHC/H+4v+uDZ2gf3F30I942x6C7feBjjGKFkDFSzjNCcnAP1gkwopxrGtbBFzx/3wvp8w5g/PxJcW7rh3mqBZlFW1DZaI4X5hir03L8voRqiEUAEFsvB9dEhshqSjPvzOnDBCCgZ2aklY+BPbRaZKAj9Gk0caTBMLwfwJGkh4yHlHFiyCH0ZKEhJ6xBJPD33bIK8zAz1glLSUkSOQCukMCybCcOymfDuaof1qa1wbj4krmZ4BOPK2aQlAADcnzWi5+53ScsYN31//QTSAgMMy2aSlvIdusXVYLRyRFwB0lKGRDE1l7QEXsK9TrSsWptyacm2dTsgydQi87bTSEshStatUwCa/wmz7V8NCDQl3impv7AI400gkJhVMFxcAsPFJQCAQJ0Dvv12BOqc8B+yw3/YiXCfb5i9xCriPvwEilYwkFfqIK/SQ1Gtg6LGAOUJJtDK+D29Vy/ISrgDCwB67tuL8v+eBUoa3RfGNRXof7YB4d7h+jK98Nd2IWxJDQd9vGC9g3VU1fPJRikzOjFTQERkGFZBdGAlF4oS0wcnDKEIOm56BaVv3SAWdRcgqllFUD1VhGBjPyyPfQLHO/smtCOL1sqhu2AaSD/9CbbY0HHzK0CYTf3nUByH7jvfhqzYBNWcouHfnwQouRS686bC/spO0lKGRFmTC9JjMQqWQ+cvNiDc4xSashFhefQTKCbnQHt2DWkpQ0AlrG8Vkw3QnVvAuy3c74flb7UJP6+0Vgr90mLEe2zLqwyQVxmOey0yEID/oAOhDjfClgDCtgAi1gDCfT6EbUEwWimvDoqiIS9UgzErIMmQgzEpIMmUQ5IhhyRHBUW1DrIiDcCzgl880Z6aB1m+CqFOb0LbCTY4MbCuCRlXRy++QSskyLxxEnru2Z1QDcdDPgLLt7s9JX/jxot/TzvU88uJaqCk0gnZ9yJHr35kzz6VwGtwvKDAnXwwx1BS02NvIa1lrKSUA6s211DMRdjUqaYqMm4iDh/arn4BJeuvgSRHOIWxRb5HVm5G/qPLYb75ZPT95SO4PphYdR+Oor9wGmgV4eBQlkPX7RvACjw6aDRwoQi6fvE6yjbeDFojIy0HAKA7f4qgHVi0SgpZqYm0jCj6n/wCnq1NpGWMHY5D1x1voXxGvqAWakgWpusnxUyPszxaC9Yd3xpLfBguKYn5O9tz726Ee7wwrKqAZmHWuNLvAIAxKqBeoAAwuhUQpflqVHxy/rjaHgmhTi/s/2lC2BpA7n080b8MBeOqcvT9JfEpfJbHamFYVgpaG31ujJeVwvK3WkRsyboukZ/E+vZ3EW2fFIPHLfTpu0h6I46/EUBFItwKAH8iLWSspFYRd5a9AuLInHAEW2xoWfU8Qt0ujLRwq2jJN3lVDgqfXo3il34MebUw6kAlE/3FM0D6HFif3wbvN62JP9gkE2wbQO8fNoF0/x419fwy0FrhpinIq3MAmgbpfjrW/LW9sDzyUYKPPPFE7F70/OF9kO7PoS3+SPNU0C05mrp3vIX7ArC/1pKQdn+IcWU5rwbWHYH9tWY43+9E29WfouGMTbA8Wotgk5v3/alqrJeF4+12tP3kc9Sf9i4sf6vFwCtNCHX7ed9vWF6WlBWdI44gbOuaeDVQChkyroiOzkpn/PsmZo1Q/4FO0hJERERGAEWxq0hrGA8p5cDiOKwkrUGEDMFmK1pXPSc6sVLA1AvKUfbu/yDnd+eBVk6McnXSXD1Uc0pAst9DXU70PbQl8QdLiIH1O+H5qgWkxzdAgZJKoDlVuBMyWZkZpPvoh9b30OaUWg1zKJzv7IN3RxtI9ym/JYaMq6tBSRjeNq3P14MLJv7cKiYbIK8y8mqwb2g9bpW9YLsblsf2o2HxRjRd/AGsTx9EoNHJ+1mhG+sKw7mxAx0/+xJ1J21A58+/gvuT7u9T9iMc7OsbeT8ryVRBvWh0EWRjxba2DlyA5dWRcXkVKEWykj7In7NgkyXxhylAgi394EL8YyC5JjJxEcfeyKBm1GZrppJWMVZSxoFVa9bPooAppIelaOQs1GJF26pnEepOreK/ExFKQiPjmgUof/9n0CwsIz52Em36i6aPO11lvPQ/+hHgDxHvi0Sa5YH3AE4Ydda0Z1YT749YJi8SVs1A3642eD6uI94v8bT+xz6JbyfFkXgfK6OUwLiiEnzRNRFnGPaX6pPS54alZbwaABr2dQ0xPxfYZ0Pfn/ag6eyNaDz9HfTetxvuj7oQcYZj7o+oRSj499lhfeYQ2i7/CHUnvoHOn34B17tt4HwR3mO0v9oELgTe/ekvSs41OGLxHYnEi9bAZChhuLAkKTpIExnwgPOl97U4prGcIIrXE+8H0YgZaUgf/6iMpVI2CitlamBxNLdGCANThCzBFitaL30ahf+8AvKaiZemlmpIizNQtO4a2J7dir4HP0ibCIwfortwOsa6dHo8CDZYYH8tmUVyyeDb2wnnplrozif/0Ei9gOxKS0MhKzURHY8/xPLwh6QlxB3PZ/UI1PdBXpWc6JYRk4DzrrugJGb9uYF19WDdobi3GQVDQXdhCfimKP59NgTq7SPaTbDNDdvaQ7CtPQQwFBQ1RqjmZEExNQOK6SbIS3VJfxgRsfnh22eD/4ANvl398O7oBesaXZ+G+3zwfNEDzen5Udu0ZxeCVknAehNfo8z6TC0MKyp40xYNqypg/0/iV0UkPZWd6A9Zw90OSPOMpGWITFiEc+8jdDiKWsMBd1GAMJ4Mj4KUcGBxAH0Q1IoU7F+RBBDqsKNl2VPIe/hSaM+dTFqOyHBQFDKuXQTV3DJ03rIewRYraUVxRZKlhWJqLlENlkc/AiIsUQ3Jov/hD6E7bwpxB40kRw9ZmRnBpn6iOviQFgpn8hCo64Xni0bSMhKC/ZVdyP7tEtIyEo5hVSX4JgWcP4yB5w8lRYPqxCxIstW82xxvN49tpxEO/v02+PfbvnuJVkkgq9BDXqqDrEIPWZEWkhwVpLlqSLIUoKTMmJoKW/0I9/oQ7vUg1O5BoNGOYLMLwSYHQt3xWSXQ8VYzNKdHrxJJK6XQnFUI51j7aRSE2t1wbWyD7qLSqG3KGZmQTzIgcGhkzsZUJdyd3sc3HKFuB5SkRYiIiIyE4kNZ2vnoc31JWshoSQkHVm22/nSa46IfK4lMWDhPEJ03vgTzrWfAfNsZxCezIsOjmJaPkrf/B123rIfns3rScuKG5tQqgCKXjR3ud8O96cCEeeYUbOiD54smqE+uIC0F6nmlCAnQgSXJ1EEoTyGdb3wrECXxx/nGbmTdec6YnRqJIb5LeMsnGaGcmcW7zbmpHRGrPynnV3d2Mf/vbISD67+tcdPAecMI7LUisJf/QQujk4HWycDoZDCsqoZhTVXUe8IWHzqu/wisM4iIMwjWGRoy+jhe2j1b2sH6WNCq6Ft77eIiuJLgwAKAgRfroFtazrvNuKIKvfd8nWAFZCOwWGdyvhNChXX6Qfr6M5H7fyJDHfMvSRWkFYwOajWAlHNgpUQNLBpYQ1qDiADhOPT/9UN03vASWFeylmcWGQ+MXonCtVfBeM0C0lLihvq06AlMMnG8ujNtUzNjYX9xO2kJAADlCUWkJfDCmDWkJQzCcnC+uYe0ioQRsXng/jA5EUik0C0tQ6wKGs43khdZpzmziFeDZ3svwn3xiWAaCRFnEKEON/y1NoQ63LyaOD8L/55+BJudiFj9Sft9Zn0RuDe382rSnFKQNEerb1cfgq38C+7oLkjOqogkYf1JSKkVMKxfvB8XEUkhLtsBpNyKW4K/ijSXQEFx3I9I6xARLq73D6D5nEfh+Zx/FR7RBGYMg+y7L0TWb5Yg5SPnGPpIJBChvmQB+8vfJONIBYV7y0GEe8ivKKaYHp2uQxpaIwetlIF03wAUvNtbEOp2JPyYSeJ4dSdI9/PxFkcoQHc+vwMr3OOFZ3tPfNuLgXySEdJCLa8O9wdtSdEQmySch1Hg2sy/OiatlUE1N0n12jjA+WYTrw7GpIRqbqLrl5L9DnK+ie3A4nwRkD4HIhMV0uMuJcdepjZTdxZpEaNF8A6sgEd/AQcYSOsQETahTjvar3gOPXe+IUZjpQgZ15+C3L8sAxjB/wzFRDEpB4xeRax9394OhNpsw78xzeDCLFwbD5CWAVlFFmilsB5cMSb+OkEkcG8+SFpCwvF8WieIVbcSgXJGJqQFOvCtKud4owmIJKcuqeaMIl4NAA33h+1J0cAPFUMXuUmM59NOcEGOV9dgPyYHxxuNAMd/zrQXJHoBDLITWDaY+GL5QobzB0H6HIhMZMSxN1oiFFaT1jBahF8Di4a4+qDICOHgWP8NvJ/VI/vBZVCfUklakMgw6JfPAUXT6P7f/wBs6i3SoJxTDKKTlc0HUz6Ibay4PzoI4zULiWqgJAzkk3Lg/5bkJPp4pJlHI1XI4/msLv3HZ4SFe/MhGFafRFoJAIACFbc+1y4pRayx5NzQkLRzq16Qz6sjcNCGcJeb4BiLNWGJ3zkYLZw3BO+2HqhPiY4OVS3MT5qucIcLvh09UJ4YvcCJ9pxS9P3uS3DhNF14JMym/+/eEHBh8iUNJnL/xw2aAqNJrXL8tFZBWsLgVSHFxh8F/GhPdrZ6Rm+vh7SWkSJoB9beIr0RAS79l/gRiSuhLjs6rnoO2nOnwnzHuZCVmklLEhkC3SWzwYVZ9PzydYBLLSeWcnYJSDoL3FvSP8IlFr7tLWCdAdA6sjcs8vIsQTmwGJMGQnBghTrtCDb0kZaRcRxplwAAIABJREFUFDwfHoRh9VzSMo4Qv3OvOaMYfIH6/m/7EGxKzkprlIyBclYOrw7Ppx1J0RCboxFYP4RsVLHnkw6oT4mOtpJXmCAxKxHu9yVFh2NDI5QnRq+/xBiUUMzIgm9nolJQUzcSIj0Q+1+IUFIGklwDpHlGSPIzIC3MGPzvbAMYkxq0QgpKIQOtU4BWyEDJBO0iEDApOfbVCvguBLCetJCRIujRKQ9gOQfISesQSUE4Dq5N++DeUgv9yhNhuvUsSMxa0qpEYqC/7EREbF5YHtxIWsqoUM4uJtZ2qGMAgcPJqUEjRLhQGJ6t9dAumUZUh7Q8k2j7P0SSKYwC7t7P6khLSBqerQ1gfSHBpZOOB0muGrLyDN5t7i2tSdOhnJkNSsHfr96vupKmIzb8EVgk8W7r5tdAAcq5eXC9m5zi++4PWoA/nALQ0VrUpxQmzoEl+k/IIvY/eRga8vJsyKcVQjGtAIpphVBMLQClkJFWJiJQOGA1RAdWfODE1QdFxgkXisD+721wvrELxutORcZ1p4JWiz/gQiTjxtMQ6rDB/uI20lJGhCRTC2kB/wQvGfh2JG8SKVR8O9ugXTKdqAZZWRbR9n8IYxZGCqFvF+ni2smD84fg/bIRmjNrSEuJG4PRV/zjyPNF8iKflPPzeHVwoQh8u0g78GOnEJIkUGdFxOYHkxGd/qOal580B1ZkwI/AQRvkU6Kj4NWnFaH/kUQtQELag0L+95c8Yh8kGyZDA82ZU6E5awpUJ08CrRbjP0RGxbkH87Wmmk6XlbSQkSBYB1ZDXkZhJBI+mbQOkfSA8wRh++tmOJ77ArqVc2G4agGk+eLaAEIj6/cXI9TQB++2JtJShkVeE13bI5n4d7dO+FvEwB7yqXuywgxBnQeJSRgRWIG97YLql0Tj/7pZMA6sePS7euHRwunHE7H7ETjQn7Rzq5zBnz7o39sLzhsm7KaIlUJIkR37HODd3gPtkvKoTcqZOUnV5tnaAfmUaCe/YnIWJAYFInZ/EtUkB9LuM9II4diFoCEZSLL00F1yItSLp0I5q5Q32lEkuaTw919Kh+jlAJ4iLWQkCNaBFWZDqyhQqbs8mYggiTh9GHj6Ewz881Ooz6iB8epFUC0Si70LBUrCIPfxy9F6/qMI9zpIyxkSeXUuSF6m/DsnToRLLPz7OsCFWFBShpgGSa6eWNt80FolSN8+sZ4gAhOk/tVRfLtaQbrfB4mPBsXsXN5KtN6tnUldcEMxPYtXB/noqyPwVesVQAVf345uaM+riHpdVmUCpZCA8ydnpTzv5x3IuGF29AaGgmJ2LjwfNieg1RSeQqYFYv8nGsW0QhiuOQ3aC2cTvf8RSS+OpBGKDqzxQHFi+qBIAmE5eLbUwrOlFvIp+TCsmgfN+dPAGIWzBP1EhTFrkfPoanSseQqICHeVInl1NrG2uWAYgcPdxNoXCpw/hGBDH9FoOMaoBiWXgguEiGk4FlpFvg5T4ECHoL+7icC/twNcKAxKKtjbqhEjLdHHrKXmTWL6oLRQByaD/5rs3yMEB6kwi7gDQGCfhVcHJaUhrzHDvzs5DkDfzh5wPhaUMvp7oZyTl6YOLNF5I/ZB/KGkDHSXzoPxmtMgqySbASCSplDcyQdzDCU1PfYW0lKGQ5B3WvU5mskcR5EtbCIyYQge6ETfXa/Dcs+bUC2shObCmdCcPQ20VswfJ4VqXjnMvzgH1oc2kZYSE/kk/tosySDUZgNCEfEWEUCoxQp5TR45ARQFaY4OoVZhlA2glQqQnjwEG5OXYiYYAiEEDnRDMTN69bfkMv70NdWs2L9t3i/aknZuFdOyYuoI7O0TyBjjr4FFWlug1gIuzIGSRDuxlNOzEUiSAwuBMHxfd0F1avSCJ8rZucT7KVGk63GlCunW/6pF1cj83TLIqgne64iMCNLu83FCMYhcBuDPpIUMhyAdWCxHXZHCJ18kReFCEXg+OQTPJ4fQJ38d6tMnQbNkOlSLqo4sTS+STDJuOhP+b5rh+eQQaSnRUBRk5Tkg5sBqFoazRAiE2q0gfbvAGNSCcWBRKhlI90eoRRh9kWyCdT1QzCS3Mmm8kE/PBt8YCve4Ee5yJU9HlZlXR8TqRbgzeTpiI8wi7gDA+cII1g9AXhNdQF1WFf1aIvHt7oHq1JKo1xVTswGGAiLxTklN8SlkyiP2f7xQzCyB+a4fQXlidDqwiFBJ8bHPYTVEB9bo4QCqHvRK0jpEJjZcIAz3e/vhfm8/AEBaZIJqUeURqwatUxBWOAGgKWT9eQVaz3oIrNNHWs1xSLJ0oJTkUrWCzRak/EUyToTabKQlgDaoIJTzQavIR46GWvshlP5IJsEGC2kJiMfkUT4pC3zpZ4FDyXUWyyrMMXTYkqojNkOlEJLXFzxshbwmuoC6rNyEZOoLHraCN51RIYOsOAPBJvK/4fGH/PknhxCOXQgaxg4lZZBx8znIuHWJWJg95Uh1By41oyHbOLWid2A/aSVDITgHVn2u4WSwXAlpHSIixxJqs8LxkhWOl7aBkkqgmFUM5ewSyKcVQD4lH9IiE2mJaYkkSw/z7eeh77evk5ZyHNLC5E4AfohQon2EwKADi3AEll5FtP1joZUCiMBqm5jjM9jQB9J9P+72KQrySfyRT8FDyT2v0rIMfh2NA0nVMTSkz3dsgo128OmTlWckVcdQjk/ZJHMCHFikJ5DCHRPJQ+yDsSIrz0HOY1dDPrWQtBSRCQoLdiWAu0jrGArBObDAcmvEnz0RQRMKw7+9Ef7tjd+9ROuUkE8rgGJKAeTT8iGrzIG0xAxKQb6gcqqjXzMfrrd2wb8jEcVexwZph2WkzyneHh6B7SefSsTolYI5H5QAIrAivRNzfIaayBcWH+/UXZKrAa1T8m4LHrYm77zSFGSlRvAdTajJLojxRQ2RQigEfaFGfscRY1JDolcg4vAnRUe43QHWEwatjr4fkleb4dlYlxQdyYK0+4w0Qjh2IWgYC7rVi5D5u+VEI/xFxk+qjr9juJwDfksByVtyeJQIyoF1YApkVD+WkdYhIjJaWKcPvq318G2tP+51WqeEtMj0ncmqciCryoG0yCymIY6UI6mE7ef+BVwwOUt/D8egA4vcJSpi8xJrW2hEHD6Qvl2gZMK52RxMISTYHxwH1jExxydrJz8Wx9u+rDQDsVbRCxxKXoqkJFsDSi7j3RZqFErKmXBXIQSAYIMdsbRIS4yI7EnSSrYsh+BhKxSzogtQy8oS8TBooruQSCP2/6ihKGTceh4yfn4+aSUiIgBQ3JilnY8+15ekhcRCUA4sWb9hCcCJuVgiaQPr9CGwvwOB/dFLjzMmLaTFJkhLzEf+N/O7/2YM/EuHT1RkZVkwXH86Bh7fTFoKAECSbyTaPjvgIdq+kBBCfTRKLpxLKaXkn/QnC9blBxdmiWogBRcKkZYwbiSFevBNPrlQBKGm5KXuSfJ0vDoAINThSJqO4RFmEXcACHXwpxACg5F22JM8LcHD/VDMyo/WUaBPQGukHSjCOP9kEftgxDA0su5fDd3KhaSViMSF9Bj7HMWsAiA6sEYCDW6NYGPVRETiDGt1IWB1IbCrJWobrVN9F7UlOSaCS1JkgrQwA6DS4wdyNBhvOguul75CxOYmLQWSzNiTq2QQsbrT5BI5fjh3YHAVK4Zc1AMtkwjifFAyCSgJQ1RDxOoRRF8QIchCCDev41EgLTCAL2on3D4AhCJJOzpploZXBzgOkV6h/P7FjsAShD5/GBF7AIwhOiVUkq1LqsZQkw18fSUtNAqjr+JMOh5TKpEq/U8ppMj++3VQnzWNtBSROEHafR4/uBU7gF/MAQT5ZE4wDqz6jAwdh8gFpHWIiAgB1ulFYL8Xgf3tUdtotQzS4kxIis2QFpsHI7eORHBJcvRp69yi1XIYbjwD1vvfJi0FjEkLkpeorAdXgONEd/9ROI4iWnWGkgsjhZASQAH3wZTOiQkXCgMsCK8aNb62pQX815Bwf3LPK5Or5dURsfvA+YWRSj44U+HpbwFdgyM9bjDG6EUmJLm6pOoIW7y8/cKY1KDVUrCeeM+RhHMOJh7pM4VPJJSUQc5TN0B12lTSUkRE+Mg05OjOQo9zE2khfAjGgUXJ2EvAgb9yqIiIyHewniACtZ0I1HZGbaN1CsgnF0A+rRDyaYVQzisHk5WIEH0y6K84GfZ/fopIH9kUEsasJdq+eskMou2LCBNaQf6SzgogQpIkXCgsGIfmWGAy+Z3zEWty65pJsmLo6BFS+rTwJ+rhHhdkNdlRrzNZmqTqGBw//H3FZGnBNgulrpmISBKgKGQ+eLnovBIROPQqAKIDa0gobg1pCSIiqQ7r8sO3vQG+7Q3fvSaryIFyYRVUp9dAubAKlFQ4X/vRQqlkMN58Fvp//zpRHYyZPzpAZKJCCWMey9DEx2XE4RNGXxCCC7KgFAQ7gBrfWGRM/Kl7EYsnqeeVNij5dVgFNL6oIYq4C0RjxBYAn0bGoEyqxojVw6sDABijEqGWeLZG2LE4zu9gykN99w9hDcLF9Jtl0C5fQFqGSCIQ/nONEUOBu2RPdvZNM3p7hfTkCIBAHFgtZlVuhMPppHWIiKQjoYYehBp64PzXZ6D1KqjPmgrNxXOgXFRFfLI7FnSrF8Dx5IcI99iJtE/rFKBkgvjpFBEQQvgmUQTrgB2FHZjANbAAcGHy6W3j6X/GoOLdA2vzJfW8Mlolvw5XQDDjizrm3+NfJ5nQfDys0w8+jbRWmVSNbP8QEVhGlWD6Kx6k0fx1TAjh2IWgIRb6H58Bw3WLScsQSRBp9v1Xq+G7EMB60kJ+iCBmYRGpbCU4jmzlWRGRCQDr8ML1+tdwvf41pKWZ0K1ZBO1l80HrFKSljRhKJoV29QIMPLyRSPu0ln+CJyJCmkEHFuEIrAm+QiYXjID0ORgPg5FPPKl7/clNIaS1cl4drCuYVB1DE2uqIpzzH9OBpUtuxY6I3RdzsQ3GGG8taTaFTDnE/o+FfHoxMn69HGL/iKQMFFZBdGDFgBPTB0VEkk2o2QLrHzZg4G/vQ/+T06D/8WmgtanhyNKtnA/7394HF4okvW1aI096myIiI4IWQASWy09aAlEGHVipCSWhQcllvNtonQLyqblJ08Jk6sCXckbJpUnVMRRMdgyNMplgNNIa/lRMxqhOukbWG+a9x6BU8b7vIO1AEZ0TYh9EQ6vlyHr0OlDS1K2RKDIS0mvsU6CWHMzXmmo6XVbSWo6FuAOrMVNXCWA2aR0iIhMV1uHFwMMb4XzuU2T8+mJoL50r+NRCJssA1eJp8Gz8Nult02oF0u0CJTJeBDIeBBCBhRR24MSFCIuUnTxLmZifz/ilMFJeNEunQ7N0OmkZQ8Jka5H/9g2kZQwJkykcjZSUvONdRCTRmP94BaSl0QsqiIgIHKmUpZcBeJq0kGMh7sCiGPoKQFwOXkTk/7N33vFRFO8f/8yW63dpJEAIvVdpCgqICIqKAgICUvyJWED5Kn7tYgG7gorYKFYUVGzYsH0tKCCKDem9E2ogyfXb3fn9EUAge0kuudvZy8379XrwZXZ3ns/Mzu7tPjvzDGu0oz4cunMevO8vR42nRkJumMNaUpl4RvSAn0kAS39qCye1MUOPECT2ASwaUUzRFszQKFieg6rkXxJkCdESbXM4iUKwynG+YtiPwErle2C03HDGazAPzn6d4RrYlbUMjkGYrf9VFUIxAiYLYLF/UiF0OGsJHA7nX4IrtmDvZU/C99kfrKWUib1bMyZBtpIAFodjQkwwhRCKxloBW7Tk/SBHTozA4sbNQLPwKVWc6guxyci89wrWMjicqnDu1trp9VmLOBmmI7C21fR0pRRNWWrgcDil0bwhHPjP60hbvQuZdw+EKacUEgJnv444+sJXxrq18ymEnNMxR38wQxJ3Gma/Ch9LqHb8xZwVVfRtxns9p3oT96Av62sw1eHtfzLpEy6FVKcGaxkcTlUgoHQogKmshRyHaQCLEGEknz7I4ZiXoln/g7a/CFnTRoFI5lso1NGnLQqNDmBZzNcOHLaY5XGd6KzwZTgpP4WQ/Qi0Srd/WIEZBuZzUoyIFt97BuMbMiHm+D1gCuMGMEv7S/VzkHZ9X/MI4iQcszwPxp2SaYQ8gPUDIFFQPqaSwzE53oW/ASJBjWlXme7rvLVdA4g5aVAPFBrmkwjsR7lwOLqYoG/SMPsADlMY58CqClRRkazaOckLDcV71CbrV0h+DfE2KCH9lv5RV3blVFeqad8naL+jVmbr+vsK1rCWAjAMYDWs5bmAAnw5Bg4nCfB++CukujWQPrEfaymnIhA4erdF8TtLjPMp8xFYHHNCBPYPTjQcYS2BLUk8qJyGowewCiZ/Cv8P6w3TkvPyKFha5Zb6e/G7K1D48g+G6SgL95VdkDauZ6m/K/sKsW/YLAaKSuMe2hlpN51f6u/qoWLkD37ZUC25n98MwW0r9Xea6nnzONUSsWY6nP3PYi2jymjeINRDRaDFftBQBFrQvL/xgtMGa4dGrGVUW1SqXgngPtY6AIYBLI0KIwlJ4ic9DifFOPrcIlha1YPjQnMtYW7v087QABYRoy81z0lVTNIfTJADCxGVrX/GUFVD0o7+UDXQgApiL51Um2qAsrOgCrpilHI4AN3pjNRYHWWhHY2iMUJNo5EqFHoatSNBQzUSSYDgtEOvf9LiULy96frhGAVvfwDwjL0QRE6OBQo0Xwjh1TsQXrMDkS35iGzbD2XnQagHj4KaOGB1OpZW9ZD75RTWMqothGAUBe4nJvhUxySAtTc31xHWfANY+OZwOJWEUhTc/TasHe+DWMPDWs0J7Oc0L8nPpRjz4kxE/mDGKY0ZeoUpcmApqinaghmU+XNdldpfPeqHZE8v9Xcpy2noeaXeIPRqIrhsJutfemqIaTSKbgf0NGrFIUM1ilmuqKukakd8cdbCOoBinvPPAnLSv2w1sENw2+G+spcJlERBURFcsRGBH1ch+NMqhDfsAVT9kZAmrYEuZul7ydRmMVJ/R467Kw4U/8JaCJMAVlj1DgQhLha+ORxO5VELilEweQGyX7iOtZQTELsVlua5CK/ZZYxDE+QZ4nB0MUP+JTHVp9iyvj9Uzbd2JADUziz1d8HgjxZacRh6I4cEt91QHWVDoJ/03gSB5GMQjx26I7DiPuqpbMQst64OAFCP+A3VwuEkGsdlXSB4zHSvKiGybR+88xfDt/AXqAeOspbDSUYEcQSA1AxggZCRTPxyOJwq4//8D4TG9Ia1U2PWUk5gPaOhcQEs5lOEOObDHP2B/fQ1gKR4jjhihmmcVUAr8ENPv9GjbrVi/RFYYqaZvn1G+9ZunvMvprugPwIraKyOGm5dHQCgHY13AKuaj4EwPbz9nZd1gZnaILJpDwqf+wS+L3479qGrOmOedq+e0GEUuJUA8V59IyYM/0y0qZYrG8AFRvvlcDjx4+i0T1hLOAVL+waG+eIJZzmmxQQPpsSSHDk/EkaUaVLJgnqgGP++gP5rYg1jA0fq/iJ9HTUzDNVRPqU1mukFSqyTDj19Je1roI7s4wGs04wC6kFjtXA4iUSskQZblxasZQAAaCCMI08sQP7F98P32a+meEbgJD3Z22t7+rAWYfgILBnyUEJoij/hcjjJTWj5RoRX74KlTT3WUgAA1jMagRCDXhpMMMqFYy4IIcb1v7IwwRRCYpHM0RaMYL3IA0HV+qKyqwAgpYNwYnaaoedVPVAURYcHRJYMy3lYFoQIuhphlvsBSlZC09OoHfQaqlHMTtPVoR4sAoJKnLWwDSISCKY5/+xg/DvEsP2d/c4yxVR6Zcd+HLzheUTWl8xOSIU+WVJH9n2vurc1ARkB4CuWGgz/VEig8emDHE41wDv/Z9YSTiA3qQXitBrjLMJHYHFMSpQkrEZCrCn+fSrJH1yVPUegN1JGyquhuzpholDzC3V1QBSPjeYxA9FGX5mjDxCLBDFTf+STkm9s/hu5aS19HbvNsVojhxMv7Bd1ZC0B4X+2YV//KSeCVxxOnBm0r2ZNJ0sBhgawttZOrw9Cuhrpk8PhJAb/57+BRlSU/RBvkIki5HrZCa8zAFDVJHXmZjIzASdGYLGzVM+BhRMjsJKzLyq7DuuXKYqQm9SqUtmxoB6IEsACgVSndJJ5dpj3fiDmZqJk1FNpfer+QkO1yM1zdXUoOxMRwEre6696wLr92Z0DIouwtm9aQY2Jscj6PTgweiq0Qp8BNTYbrPtdylz/zrAYvJSlAEOnEErAaKTQ2eVwqjO0OIjQik2wndOStRQAgJRXA5F1uxPvKMw0byHHpJjih001wbQqWTZHWzBCb0aZ4RqqcKyyaT+ifdu0tMhDZJUxX/S1vUdAI1Q3ICo3qoXw71sN0VE2BNFWITTDNWBpXBNRV/7bccg4jZIIuWkdXS3Klv1x10GYv0gSU5x/VpCT/mWrwXgsreqDOGyMvAPUF8Lhm54HLfSlcB9kX3P2CgyAkisBvMfKvdGPWsMN9sfhcBJI8PvVYP+1o8SkOlmJri4AQPMeXx2LG7eTzQScyM/GzoiFzeLGpkHQH/GSLP1QKyiGekg/kbvcok6Vy68oNKJCjTIaTG6UY5iO8jHv/UBqoj9tj/rCJTnGDEJulHNsanFpLZH1ew3TweEkGmvHpkz9H31sPiJb8plq4KQMF++u4zbmxUsHw540t+emdQRFa6P8cTicxBP+ayvM8rAuGhTAokUBmKXOHM7JUNUcSdxTGlEC23NQdd+R9fkQu6eX+rvcIq/KZcekY+tBSI1ql/q71CTXUB3RIdD/DmyO3we5kf4IrMjWgwA1bjWyksCn/vfyxASwzBNETE1St/0tnY5PHzSeyIbd8L77IxPf5oJ132Pt3zAsqiYMBjCbhXPDRmAJlPDk7RxONSO8blfJtCW2gz4AAkh5Bo3A8gWY15WbCc0MqBrzdiDpTPN6MofYJObnoKpE1u3RLdjS0tgAlrJln64OuZmZAljmvSHIzepAT5uy9YDBOvJ0dWjFISh7eBJ3TvVBbsFuZe7iVxaZYiEXllT31f/MBgG5kpVvQz6VUkDYDQwzwheHwzGQQBjKjkOQGhuX3DcaYu1MQ14b+AgszukQmCPnCdGOTyFkh5jpNkVbsIJI7EdgVdV7+J8d0KuDkOGG3LAmlG37q+ihYkQ25uvqkOpmQ8xwQTviNURHNMhJ/56+hfU1QGQRcst60NMX2bjHUH3WTo31dazaAZKQkWCsg4jszz972LYAE++EQMrLYeJdK/Ij8PnylO93xMr695f93cdgzt2Tm1m3zt4Cw5e7NGQE1p46ab0AGJc8gcPhGIaSf5i1BAAAcdoN8UO9QUP8cDixQk3w9VXIcLGWwBRitbCWUGXCv21CyeNhabP1aGWYjsiqHVF1WNo2MExHdAii6WON1DzvWF8srS3yz07DdBCHBZaOjXV1hH7bYpgODifRiDnpIDaZie/QL2tBA2Emvs0EsbBp/xRG0DSVSX5zY5JVqGRkKoUjOZxUQs0/CjN8bxAcVkP8aN4AaETTXR3LKPLPnAgaZr/iHKcEGjLJg6NighFYWW6m/pkji2B9DqqKeqAQ6p4C3byC1u6t4Z37gyE6Ilv2QSsOQXCXXtXLckYDBH9abYiO6ET71s7+/JcE+HR0UIrwauMCWNazW4JY9IO6od83J8hrio2BMB2p2f5SPTajrwAg9Ms6Jn7NRsm9JvX6HlMIuRLAVKPdJjyAta1BAxtCRy/n3YnDqZ5oh41bzagsiM1izM+WRqEdLoJYK8MIb/qEFNAiPzv/nFKY4jcuorBWACEjhacQEgIis01iH69Xx9Dvm+HIq1Hq77ZzWkKQRdCIAQF0jSKydiesXZuX2mTp0Ngc/Uwn5woh7KeQWTs20tWm7DoEetRrmD7bua11dUBREVm5NUE62AZQzDKlnBXRp9YarcFYpLrsAljKxt0p3eeO8+9qpww1MFdgOB121MpsXX9fwRojnSZ8nLMcPHIpgNLL2XA4nOpBUAH7rMUExFH6K32iUPcdH3XGqK7WFF/pjaML9QfB+joUsjyJr6hJIbIEEAGsz0E8CP28FnrTvojLAblD47j4qAiRldt1dVjPbA5I7EbBlkCgP32Q/euL9exW0J0+uHKHoTpsPdro6gj/uY1Px+dUKwS3g5lvZacxeQnNTqqnMGCFSDTDpxEmPIBFCV99kMOpztCwSQJYNgt0v/QmAO1gIZM6njCbMdMlOckFDSknTSNkY0KG27Dr0HScSCDL2qpO8Md/AA265du6t4mLj4oQ+m2DrgbidsDSpr5hOqKTuHNQWcS62RDzsnV1hZavN05HnSxIjXJ1dQR/XJVAz8l//SU3rNufzTko+YjKpr7a0WIjqmh6xOx0sO97KXkPGEENrnhCA1g76qVlEODiRPrgcDhsMUPiaAAwcvqOuq/QED/REBzJnyiakxg0P9t8XESWQFzGjYY0E6ynD8YT7XDxsVxJOoncL+xsmI7QbxsBherqKBllxBIC/RFYbJO4W89uGUWTgNAy4wJY9j4do+oILk5kAIvDMR5iZ/hhMcQ+fYAZELL5hC9GNNpTM7OLkQ4T+rQlRzCEAnyoAIdTjRE9Dpjii4OqAeGIIUq0A0fAss5ijXQoG/Yw888xLzQYBjzspjIAgJTpgVIcYKqBBSUJ7NnfC+OlIPT9SljaNSr1d7lFXVha10dkzY44eSqD4gDCq3fA0r70tEXruW3hffnzxGuIAon6tZ1tDiRbz3bQ06XuPwJ1W75h2hxDeujr2FcAZe3OxOkgBGxHgaZ2DqySy4JtC7DwTuxWZvUmqTrq+TTE7HTmfQ/EDE8BDCDaCADLjXKX0M9EGvj0QQ6nukPSzDHnXPOFDPOl7DhgmC899FYH43AAgAaMuw6iIeok/04FpEa1WUuIK4EvfkW0KRKOIecapiO8fJ2uBuuZLSCkOQ3ToY+5ppAQWYLt3DN0NYVijewyAAAgAElEQVSXGbdSmdSsDuS2jXR1BBetACg1TAuHYwTExm5kPHHbmfk2E1LjXNYSUheC4dSAxQGPk7AA1q68rDoE6JGo8jkcjjkQ0p1gP9+cGPrirmzfb0idopmYywNYHH2oLwTW16JYPyfxFTUhJQEs9vfCeKFs2gNlw17oTQGzD+xu2JTJ4PcrdTVAkmHt1d4QDfoQfV1xPAexYjmnFYjbqasr+N3fhulwDD5XVwMgIPBZoj/SV4/rL3lh3f6MzkGEXT5YMZvhqthmQRIhNaqDlOx75iA7v7ant1HOEvb0IWjKSBDCNhEAh8NJOGKOOeacU2/QsN8OZfs+YxxFQcyrkeK/k5xoUMY5sABAqpudkv1TalSLtYQS4tj2gS+Ww938ilJ/FzI8sPZqj+C3v8fPWRTCf26EVuCFkOkutc12QScEPlmacA26kGgvLIRZ/7f16QQ951RREPpppTG6RAH2y6NMH9xzCOGVWwzQwfAGRNidf1NATvzDWIOxaP7jH4+MR2qeh8iGHUx8mwWpQU0Qqwnyw6by9U+FEQC+NsJV4gJYICP5AGEOp/ojNc2DGe7W2uFi41QUB6AdLIKQnWaUx1OQGtY2QYtzzAj1B8H6epTq5aRk/5SbHv/6y5L45t8JLFwC98QrAKF0qY7BPREyIIAFVUPo+79gH9Kz1CZbr04QnDZQXzDxOk6DnPTv6VuY9AJRgP2irtDTFF6+DrTYb4gua/e2EHMydbcFPl4CUs2nD6b6OAwz1J2JhoDx96DjWDu3RPBTRoF8k2BpWzpPIgtS+vonuHxvbu743L17/Yl2lZAAVn6tzFYUWrtElM3hcMyDkJ0GIaP0V3EWaIeLDPWnbN0HC6MVT+RWDQBJBBSViX+OeSkZgcU4gNW0LlP/LCAWGVKrBmDd9vH2r+46gNCyNbD2KP1IZ+vTCWJuDah7D8XVpx7B//0B+xW9Sv2dOO2wXXgmAh//HHefxGaBWL8mxNwsiDmZEGpnQcz0gLgdIB5HSb4VnYkGQk4mMudOAvX6oR31QSv0Qjt4FGp+AbT9BVB27od2KP4r2Vq7t4OQoz+VKPTdX3H3Fw3H6L667QKNwr/gBwMUpPQrpElIvfb/d/q+8Vj7dAYefDWlc8tZurVFKvY7k+EmxHcpgAWJdpSQABYV1NG8E3E41R+5mXleVLUCr6H+Iut3wtKlhaE+j0PsFsjN8hBZm9pDxjmloX72SdylxrVBHFZTaDEKqVV9EIvMWkZC8L/zHaw9zii9QZLhvL4/iia/lnANocV/gxYHdZMV2wecW7UAFiGQGtSG3K4R5LaNIDWrB6lRLsQ6NVCZFa2IzQrruWXn5tKKfFC37YWyZS8ia7Yh8s8WRNZur9JIMvvAc6H77K1qCC4yZnEoqXld2Hp31tURWvoP1F1sF0DhcBKFxmAU6HHE3BqwdmuL0JJ/mGlgjbW7zm8Ux3AoJSOQjAEsCpB9IMPjXS6HwzEf1nNawyzBau3AEUOVKKu2gWXdLe0bQ+EBLM5pUG8AzK9JUYSlVX2Ef9/IVoeBWDs2AfN2P0a8VYS/XXFsynTpEaeOYRfA9/yH0A7Hf0TRKQTDCH79G+xDSo/CsnY/A2JOOrQDRytWliRCbtMYlq6tYOnSGpbOLUDcjjgLLhvB44ZwRnPIZzSHfdCxOqkaIht2ILJ8LcK/rkH4t7XQjhRXqDzitMF2YRforc0UXrbKsN9H1/jBABF1twXe+d6gK4T1CCxGU0hNA+v2Z+Nd21/AyHMJzmsHIJyiASypZQOItc2x+jH73s+ci3fXcWfl7Sk+nEgncU+ynl87ozuABvEul5Ma2C7sXDI1ipMUWHqaZ6awujvx01hOJrJ6m6H+Tkfu1Jypf4450Q4ZO5U2GlKbhqwlGIrcsSlrCQmDRhT43/oKeisuEbsVjjH9DNER+PgnXQ2QJNiHlr34kZDmgq1/d6Q//1/k/PE6shY+AffdV8Haq9OxVftYr1xFAFGE3KoRHNdcivRZdyHn99eR9dETcE4YDKllgzLrZx/QE8Rp1y23pN0Sj1ivJuyXdtPVoO4+iOA3vxqig8Nhgbotn6l/63ntYe3VgakGVjiG92EtgfMvFkETBiXaSdwDWAIwMt5lclIDx5iLkD7rv8icezeELA9rOZxyELLTS3IxsX7oP+kB2UiUzXtBA5GE1KUiZj2/AyAZs4w9J3koyQXH/nq0dKi+AZ1SSOJJ+TfMYPHHP/fLk/KrnWrO/+sHweNMiN+TCf+yCuq+46McTjXHyItKffwiNgusvc9E+ku3I/v315E+4zbYLusBIc2tW4bpTBQhd2wO9+2jUOPLZ5G9dDY8D14LuU2jUm1jH3Ghbhk0EDEscOQcd/mx36TSOnyvfW5gzkbW546TiudA3XsQNKRUUm98zPPgWBCnzYDamgdis8B2eU+w73P8+j8OARmRaB9xDWDRTpApwRD2nYdbspmt71nw3DcaAGA5uzWyPnsU8hmNmeviFt3s/c9BZfKDJAp11yEY2gYqZTqFT0h3wdK1ZcW0cksZUw8meCpXBbF0awMIAli3hxFm6dgMQrorbm1XdeJfR+2oD4GPFqPksfFUI24X7KMuTojfU0wDgh/oaxBr58Da60wABHKnlkh7ZiJy/nobGa/eB9slPUBki+5xyWRinZpwjLkMWZ8/i6zPnoZjRF8QlwNyxxaQ2zTRPSb4xVJQ7/GVSRNnQk4W7IP76GrQigIILPg+8f2Dm0ksNe77pUwD1J0HmGoQG9RB2pMT2LeFgeb4v34QPC7mOv61FO3/Jxsh5+6uk5mHBBLXz/f789MvJkBWPMvkVH/kDk2QNn3CsZedEsTaNZC54EF4n3gX/je+SumVNUwJIXCM6oOSmxV7qD8EbX+B4WrCv66D3KmZwV7/xd73LESWrGbmn2M+6IkRWGwRstJgadWA+VRbIyiZtsG+zQGAIHH5d/yzF8Ix/ALdkZ+ucYMRXPAdtEMVzENVSQLzv4Zz/GBALP391X3HKLhvHwmpef2E+NYOF0IrKCr57+FCiHWyIbcvff+n3gBC3/wCkpEGoUYahOwMCBkeEGv8kvzLbZtCbtsU7kljoR2Mnnsn8NZXhvRM952jQKwWfQ2vfw54Aya5QhLP8de4VMUMdWelQd22B1LThL63l4vt0m5wbd4N3/T3mOowAiErDa4JQ1jLOIVUv/6PIcgUwwFMS5SDOM8/IXz6ICcmxHo1kT7nDhBb6QcfYrHA/cBVsJzbDkW3z0x8klhOhbH0aAuxQS5rGSdQNu0FNOODnOFla+C8caDhfo9jvbgLyCNvgYYizDRwzEVJDixzPD5ZerRLjQBWn04wS5snEnXnPgQWfA/7iL6lthGPC67bR6Po7ucTq2HvQYS+WwHrhV1LbZOaVT1wRYt8UDbsgLJhByJrt0HZuAPqzvySqbmqdsq+znGDILcvnYtQO1KMwv8+V+rvxGWHWCcHUpO6kFrUh9S8PqQWDSDWrYnKjmYmTjtEZx3dbZF/NiGyclOlyo0FuX0z2Af3ht41oBV64Xv104RrOBX+Csme1Gz/yMrNuvcmo3FNHA4Ew/DN/Ji1lITifuCaYzkMOWZDAx2BZAhgHaxRw61CvTRe5XGqP0KGGxlvlJ/vynpee2R99SSK7piJ0I9/G6SOExVC4PpPwvPzxYSycScTv5E/NoCGInH9sh4LQpYHtsu7I/DuD0z8c8xHokfAxIL1/A7wvfwJaxkJRW7bCFIT/QBCdcT3/HuwDekDYil9z7MPvQCB+V8h8k9igyb+uYtgvfCcuJSl7tiL0E9/IbxkJZTVm6HuORDD0ceni5yOfnYO6g2cCI7hiyX/luK0QWreAJZz2sHSrT3kTi112zdWAm9/VeUyykUQ4J4yDtFWHvTP+QS0yJd4HRyOCQgvW8Vawglcd18FsV4tFD0w28D8c8bhvGEgbAPOZS2DEwUCdMivldm69r6CNYkoP24BLGpVBhFKjF2HmJO0EKuM9Nm3Q2xYu0L7CzXSkf763Qh+uBjFD88FLeQPRKywXXYO5M4tWMs4BXX9Ljbf+4IRRP7aBEvX1iy8AwAcY/oh+N6PfJotpwR/CNQfBnFYWSuB3Kk5pLo5UHfFEhRILuxXHE8eaxYSN4UQALT8QwjM+xKOawaU3iiKcE8ZhyODbk/Y/Yg4bLB0aVPpEUu00Ivw0pUI//wnwj//DXXXvlPLj02Nvg4SYzm+IJQ/10P5cz38LywAsVshd2kDS48OsPToAKl5g5hUHcc28DwoKzdB2bC9UsdXyMeQ3rqj0ABAO3gUgdc/YXB1sB6Bldhr0Pywbn923pVVW0C9QRCXnZGCU7GP6AuxdjYKJz4DWuhlLSdu2Ef0hevOq8C6n0XDnKqMhwgYBuCBRJQdtyTulPLVBzkVRCDwPHsT5DObx5wXzjakJ7K+fRrWC89kJD61IQ4rnPeMYJ4f8HSL/LMlwTWPTvjnf5jWXWqeB8t5ZxhRVU6SoB0+yvyaBAEgENgGdk94fVlBLDKs/buxb+fTLcH4ps+HVlAMvYTdcsdWsA3qHX+nhMDarwcyv50F580jdX1HNRUIL/kHhTc+gUOdRqFw/GMIzP+qVPCqEqLK8Ft5aCCE8I9/wPvwKyi48CYU9B4H3/T5xwLBFa+3pVtHZH71IjzP3A4hJ6NKmvQgbgdcd1wd1b9v6lxQXzDufjkc06KoiKxYx1rFKVh6dUTmZ9Mgn9GEtZQqQxxWuCdfB/dj43XzIHLMBh1BE/RUEpezfyA7uxZAzo9HWZzqj+ueUbBecjYq+3Qu5GQgbfbtSJt9O8S8bBZVSFncj4yFWLsG2L+h/Ws0okJZtTXBNY9OaNFvFdKZSHPdPbLUEvKc1EU7UAjWffK42Qb2SHR1mWG5oDOEdDdYt3FpSyy00Avf9PlR/bvuuRZCjfS4+ZM7tkTmp88h7aVJEPNqRvV7uimrNqN48iwc6jwCR0feg9AXP4NG4p0vMPHnQNm8C75n5+HwuWNxdOS9CH74Pag/VIbvk0wQYRvcB1nfvwrHuCt0E/BXFte910LIydL1q6zegsD738bNV2xU7+svOUjdcxBetjKKJnYm1quNjI+nwv34TRAyy07bYkaIVYZ9zGXIWjwH9qsvBev2NHP/MxmN99fJ7JKIguMSwNKkyHAA/O2JUy72Eb3huC4+qdKsF56JzP89A+fEIcxyEKUS9mG9YBvUk7WMUiirtzFNYq5uz4eybgcz/wAgNa8H+6gLmWrgmAczTdkTG+fC0qsDaxkJwT48ASONkoTAvC+O5R4s/fAuZGfA/eStqOw0v+MQuxWuB8ch48NnILVrrusrmoWX/o2CS/+DwOsLoRUkcgEYA19gNA3hJX+h6L9TEVz4fRm+SxtxO+G651pkfvocpFaNqyzFesHZsI/op++PAsVTZgKaVmYZiYP1y2uqv8Cybnu27R/8dAmg0ii6GJogwn5lX2QteRXuh8eZaiGmaEhtGsM95XrU+O1NuB+8DkJ2Opi3o4n7nimhuDIRxcblU4xAhJEAz7/CKRtLn85wP3wd4nmBE5sVzolDYRvUE75p7yL0+TImq9FVd+SOzeCaMhZmvDlHVmxgriq06FdILRsw1eD671CEP1tasloWJ6VRd+yHma5V150jcGTx39Xq3iw2zoWlW1uYqZ2PY4giRYX3zmeR/tF0QCj9LdTa5xw4RvRDYN7nlSpePrMN3FNvh9iwcgnyLd06wXJOB0SW/VWp4ytCSaYj/STuiTwHYuO6sA+9JIrvspFaN0PmZy/CP+cD+J+ZCxoOx1yGUCMD7sf/G9V/cMFXUH5bbcIrwxhS/TXWDHVnqYHuP4zwkpWw9DTnhxvisMI++hLYR16EyF8bEfpyKcJf/QJ1N/sPX0JOOuSOrWDp2RGWnh0g5CbfLJtUv/5PhwDDKXAbAZR4llvlANaBPE8TaLRzPMRwqi/SGY3hmXFLwuYsi/VqwjPjFig39IfvyXkI//RPQvykInL7Jkh7cxKIzcJaii6Rn1eyloDQol/gvG0YUw3E44T7qfEovPYpntCdEDgnXoHwr2sRWbaatRrDUbdXNbdPfJFa1of1sm4IfbKk/J2TBMeNAwEhtR9TI3+tQ2DeF7CP7q+73Xn/eISXr4S6ZVeFyyRWGc77xpWUWZERXKoW9bnCdd8NOHLZjSX7JAQ2ryquyROiTgWkRV4Qj6vsAiQJjvHDYendFcU3Pw5lXQw5JAmBe9odELL1c2ppB47A+9jsipeXEPgrJHtSu/2DH3wHS8+OrGWUjSBC7tQScqeWwH3XQtt7EJHf1yHy53qom3ZC2boHWv6hxLjOyYBYvzbEerUh1q8FsWUDyO2aQqiZlRB/HJbQnAO1M3sjv+DreJZa5QAWhTSakBR/WeKUiVg3B2mv3APisCXcl9S6EdLm3o/Ir2vhf+EDhJeYZ0nbZETu0BRpb0wCcZtzgVEaDCPy+3rmz0rq1r2IrNgA+Uy2qzNaeneGY/wA+F9eyFQHU0QB7kevh21YbzgUBcWTZiO44AfWqgxF3bYXzC+K03DecSXCP/wBWhxgLaXKSK0bwjbQbKsPHocYKsv31Cuw9j5H90s5sdvgmTEJRy7/D1CB3FNiXk14XnwA0hkVuI9SitCin+B7Yg7SXn8MYpN6pXaRWjeFfXR/BN5M0P2QnPin9IYEnQPrpT1hOVf/m7F2+CgKev0frBecA+fd10cNMh1HatYQ6Z+8CN8TcxB4/cMK+bf/30BYekVPaeKd8gJoYbE5Lw0jSfX6s4Zx+4f/txy0yAficbIVEgNCbjas/bNh7X/uib/RQAha/iFoBUXQCgpBjxSBhhVQX8nvOPUHgIgC4naeOhKXEAgeJ2CRQOw2kDQXhBppEDLTIWS4q3/OVn79nwIhuBKAuQJYhGrD+ZniRIOku5D2+qRj85aNQ+7SGmldWiPy9yb4X/gQ4e//4KNSYsQ2pBdcj1xv6vxikV/XgQZjnwKRCALzvoF8ZkvWMuD875WI/LUJkeVrWEsxHlmCZ/otxxaJACDJcD95E8T6teGb9k7K3APUTbtKcnCYaJUeMa8m3I/cgKJbprOWUjVEAa6HrwNEsz6AG/s8Rov9KL5rKtLmTtUdMSW1aQ7XpBvgnfxCmeVYL+kJ95N3VuhjSeT31fA+9AKUfzYAAHxTX4Nn1kO6+zpvG4vQosXQDh6pQG1iJfoUwkRAXA647psQtXz/jLdBi7wIfvgNQt8sheOmUbBfMwjEEn30NLFa4XpwAqR2zeGd9AyoP/qqgVLb5nDeMy6q/9BnPyD0xeJYqpQgWI/ASvV3Itbtzx4aDCPwzjdw3DCItZQqQew2iI3yIDZirYST3NBBu/LyxtfdvTtuXzCr9Ct7KC+rCwFpxjpdGjdzmmCRkTbrToiNK5fDIh7I7Zsi7ZW7kfn1s7CP6gvBaWPeLmY3wSLDNfkauKfeZOrgFQCEv1rOvL2OW+TL5dAKTJB/ShKRNvMOyK0bMm8TQ/ut04b0V+75N3h1Eo4bB8Hzwn8h2CzMdRphCIShbssv1Q6ssfbvDvuw85m3T1XMeeMgyB2aJaB14gOLNon8/AcCr30YdQ/71UNgHzVAf6skwjXlZnhemlLyFb8MT7TQi+LbnkDhFTdD/WfDiS3hr39GZLn+yl/E44brnvGJuc7K2JqQvjdxDIRa2bpb1U07EZz32b/ain3wPzELR/uORWTF6nJLt11+ITI+nQWpUV3dPcTa2Uh75TEQm1X3eG3PAXgnPcOk/5U+L+xh3Qa8/dlbcPYHoN7kH3HMiQ3W/c6k5rZSf3xWcDtG1T4TadrIOOngVDcIgWvaBMhntQbzywYEYtO6cD18PTJ/mQPnfWMgNjL/6hsskLu2QfqXz8D+f1FWFzKTKRrC365IXGPECA1HEHr/RzBvFxCQNDfS3noQUov6ia62KRAb1kb6R49DPrc9orWJ9ZJzkDZ/CoTsNJZSDUNZtx2s+6GeOR+4FtIZTRJZ9YRhOa8DHDcPBes2LNvY4H9yDpT1WwEi6JrroVth6dX1lGOI0w7PnMdgv3pI1OOOW/iHX3Gk7xiEPvxadySl94HpJbmudI61Dr4IlvNLB7arDCH6ehMwAkvq2Br2a66I2j7eB2cASukcueq23SgcejO89z4N6guW2cZi04ZIXzgTctdTk08TmwWe2Y+WBM/0jqVA8e1PghZ5417vSkEIY2PdACaA9TkwAVpBEYJvfc6+LbgZ3PfM0f/MBiF0RDzLq/SvLAUkSujQeIrhVB+cd46E9bLurGWUgrgdsI+9FBnfPY+0Dx6D7coLTJvfyUiEWllwT5uAtPmTkya4F1m+BtrhRC6PHjvBeV+bZqU1kuGG5+3qH8SyXNgF6Z88BbFZ6Rw4pyN1aIa0j56A2LSuAcrYoqzdxlqCLsRhRdrcByC1bcxaSkxIbRvDPeO26p+7o5LQcBjFEyaDFvsBvcCaKMI940GITUvuR0LtbKR99DIs55+jv/8xo4VeFN/8EIrG3AVtX/SEwurG7Qi88kHUclxP3gWS7klAzaNpj6MHuxXupycdm7Za2ldo4beILPsjegGUIjj/Mxy9eAwiv+qPVDtuJM0Dz1vTYL38wpJjBQHuGQ9Catcy6jH+6W8g8sufca0zh1Md8M/8ALTIx1oGh8MeiksK8zyZ8Squ0gGsgrzMPgSkZvSfQW6pavYRF8I+bpAJlJRtcqcWcD02Hpm/vQbPi7fDemk3CC67CZQZZ2JeDlyP3ICMxS/BOvh8lHw9Zq2qYhb6aLEJVJxq2q79CP/wpwmUlJiQlY60BY/CcnZbE6iJs4kCnHeOgmfmneVOPTrZxLyaSP/wcVh6nMG+Dgk0dc02E6jQN+JxIW3ug5BbJcc0V7ltE6S99eCxjx2s1VSgfRl51jbvhPe2xwGKKOfdDc+rT8HSvTPSF86G1KJJmSUqK9fjaL+xCH/yvwr5D8x4/diqWaW3Cjk14Hr4v4a0dLzb1XnXOIiN6ulupcU++B95sWLnZ2c+iq6ciMBzbx770BJFv8UK97P3wzFxDJx33gBL355R9w3/bxkCz89l1uf0jLUCkoA+kFzGFRw3FPkQmBk9sM6tOhp7BSY1iwIpbknhKj8Ci1I+fZBTCkuvjnBOuY61jJggNgssl5wD9/O3IeP3N+Cecw+sw3pDqBm3QLG5EAjk7u3geu5WZPzwAmwj+4JYzJ3r6nRokQ/hL5exlqFL8O2vWEs4BeJ2wP3GfbD278FaStwQm9ZF2oJHYR8/CJWZLkDcDnheuw+2Ky9IgDpzoKwx5wis45B0Fzzzp8DSW39FNbNgHXAuPO89ApLmYi0lKQh/vRiBl+ej5PGytIn168IzbwaEWjWj7gNKEHztfRQOvhHarorncqO+AHyTpkUt19r/Qlj794lbXUuIUoc4IXfvDNvVQ6P68T/6ErSDBRUvUFXhf+YVFF11G7RDR6PrJyIct14H+/jRUfdRt++F99aHAU2LV3XjhAle1VIe3v7HCcz+EMqqzWDfJtxSre+ZDUrjN42wUqsQ7s3NdQCBgfESwakeSG0aw/X8HYBU5cUtmUGsFlj6nAVLn7MAAOrGnQgv/guRpSuh/Lnh2PSIJIQQSC0bwNK3K6xDeukueZ5MhD5dYprVB08n8tPfULfnQ2xgnqmYxGKBa/qtkNo1hf+pt0DD5S9pb0aIRYb9xsGw3zgIkKsYdJUkOB+7EUL9XPifesuEL2FVgxYUQd2WD7Ghefrh6ZA0N9xz7kXghQ/gf+7dkhxGZkGS4Lz3KtjGXMZaSYywf4D2T5sNsWlDWC6IPWhO/UF4b3sI4UU/VMp3+LulCL2/CNYr+uludz52N5RVG6Bu21Wp8k8l2gtLfM6BkJMF1/SHUDIyujSRn35F8N3PKlV25OcVKLzkarhnPQGpQ+uYj6eFxSi+9k7z5L3icMyKosJ7x7NI/3xGUr8fcThxoOfhOpl5WXsKdle1oEpdSbIQGAgK/jmScwKhTjbcr94H4rSzlhJXxGb1YW9WH/brBgKqBnXTTkRWrIPy5wYoa7ZA3brHXC9dJyHUSIfUqSUsvTpB7tURQk41GVFGKYJvfsFaRXQ0DYGZC+F64ibWSk6FENjG9od0dlt4b3ka6uYq/34YitylDZyPjIPYJC+u5dpvuBxiw9rwTnwWNBCKa9msifyyGmJDdqvAVghCYP/PUEgdWsB754xjU8DYIjavD9fjN0Ey8WqDpkZV4Z1wPzzvvgipQ5sKH6YdLEDxNbdB+Wddldz7pkyHfE5nCHVqldpG3C64Zz2BwgFjQQPBKvk5VmIF/xYjkgjXi49AyNb/3abFXnjvfkI3oX1F0fYfQtHQG+GcNgnWAX0rfqCioHj8JKibtlfad2LhIyHYwtv/dNT12xB4aQHsN/PJS9Uf3vfLQNCAYQCermpBlQpgCRT8CuScgHic8Lx+P4ScDNZSEosoQGzRAGKLBsDoiwEANBCCumEH1LXboG7ZA3XbHmjb86HuOqC7IlCidAm52RAb1ILYqhGkM5pCatcUQp3kHmUVjfB3K6Bt3m3qn4jwRz9CmzgcQq0s1lJKIbVqiLTPnkFw1scIzv4I1G/uoI3Uvhnst444tsJgYrBc2BWedx+F97pHoR04kjA/RqMsXw2MiOHFlCFy93ZI/+Z5BJ57B6G3v2IywlLIyYTtxsGwjeyb1F/KTXFvDIbgve4ueBa+BiGvdrm7qxu3oHjMf6Htzq+6/mIvfHc/Affc56A3xVhs3hTOh+6A746Hq+iIQH+6oFDlOjhuHw/5rE5Rt/unTAfds6/qbRUOwzdxCujeg7CNv6r8/SmF747HoCxdYY5+ZlJ427DFjO0feP5dyOedCakd/zBSneHh27IRQEeARQCruJYrOwxU38QhnNiQZbhm3nNiZaFUg9htkNo3h9S++akbFBXavsP/2oECaPsOgR71gRb6QIu80Aq9oN4AEImcGDVIA14AACAASURBVPlBC70gditgkUFcDkAUIaQ5AbsFQmYahJwMkAwPhKw0CLk1INTPhVivJpBkOayqQnD2QtYSyicSQXD2QjgeuJa1El2IzQr7LcNhHX4BAlPfRmjhj6YbSSi1bQL7xCshn29MjiSpXVN4Pp6K4msehrphhyE+E03k578BRUualfOIywHHpLGwXTcIoblfIPT+d9AOxJDfp5JInVrAOvQCWAb0BLEm+73UPI/O2sHDKB79H7gXzIaQXUYwPxKB94a7oO2ueL6r8oj8tBzBWfNgGzdad7t1aH8oK9ci9PaHVfCSmCmEln69YRt3VdRywgu/ROj9z6vk4xQ0Df4nXoDYqhnknmeXuav/0ekIfbQofr4TAutXSPNcg+zgbVCKSATeayfD88nzEGrXYK2Gw2ECBToerpXZKmtfwdqqlBNzACskyEMJkOxPeJx4QAhcT02AfHZb1krMhyRCyMuBkJfDWkm1IrJkJZQVVbrnGUbo3W9gGzfY1CMThZpZcE67BfZbhiM49wuE3vuWaZ434nbAckk3WIdeAKlj8/IPiDNCbjY87z8B73+mIrI4+ZeFp0eLEfltDeRz2rGWEhNCTgbst4+C/dYRiCxfhcjiP0pyy23eFZdAK0lzQerQHPK5HWDpcyaEuqWnmnHig7p1J4pHToDnvVkgGen6O8lWuN+ZheJrboW6Zn3cfPunvgipc3tInc/Q3e586C5o+QcQ+e7nSnqINgKr8i/vUtuWcD79EED0g87qtp3w3fdkpcvXRZbhfPxeyD27lblbYPpsBOfMj69vDieF0A4UwHvdZLjff7rkYzWHk4qIGA7ggaoUEXMASyB8+iCnBPutI2AZ2Iu1DE6qQCmC095Knu96gRCC09+B4zGT5cLSQahbC45JY2GfOBLhz39G5KtliCz7BzAg2TuxWSCd1RqWAT0hX9QNxMH2oY64nXC/cj/8D81B6C2zjzQon8g3v0I+R/8F3vSIIuRu7SF3aw/cC1B/COq6bdC27YG6Ix/0cCFokQ/UHwT1BUr+W+gDcTsAUQBx2CBkekBqpEOoUxNiw9oQm9WDUL+27tSy6gABMd09UtuwuWQk1vyXQTxu3X2EWjXhWfAKfBPuRuSHJfFxrKjw3XwvPIveAUlPK71dlOB67lEUXz4G6qYtMRdPTvr39C2VOQdCnVpwvT4DxK6fS5QGQ/CNuxMo9sXtHJOMdLhmT4N0Vscy9wvOegvBZ2eZrm/pw3YEFuvxX6whJmgBM7e/unoT/LdNhfPF+6rt71Aqw773JwN0BAUeJEClkzjGFMA6Uju9PgW6VtYZp/pgHXYBbP8ZxloGJ4UIf70cyspNrGXEROj9/8E6dgDExvFNPJ4oiNMG67ALYB12AWixH5EffoeyYg2UvzaUTKtT1Ko7kWVILRtA6t4ecrczIHZqab5pW5IIx0PjIDaoDf9jr5tuemUshD/7CY57x1SLacbEYYXUqQXQqQVrKZwYUVetRfGIcXC/9SJIpv6oVOJ2wvXadPinPI3QG+/Exa+2Zx98E++H67XpgFh6VBPxuOF6YwaKB14F7eDhGEsn+i+glXgpJW4XXK8+ByEn+tQi/32PQ10fv99AsUkDuF57DkKDemXuF5wxB4FpL8XNb+Jh/QrJX195G5RNeNHPEB6dDft941hL4XBY0PhwXtZZ2H3418oWENsILAGjwe9KHABSz07gXYFjFDQYRuCx11jLiB1FReCpuXDNmsRaScwQtxOW/j1h6d8TwLEFC9Zvh7YzH9ruA9D2HICWfwg0FAH1+oFgCDQYAXHYQBxWEKcNxOMCcTshNKwDsUkexMZ5EPJqJk1OJus1AyHUqw3fLVNNn+w+GrSgCOFvf4OlX3fWUjiGYN7fZXXVOhQPuQau+XMg1IoyvV4U4HjobkhdO8N/52TQouIq+438sASBJ1+A/d5bdbcLdfPgmjcLxcOuBT1yNIaSoydxjwVit8H12gyIraIHZoNz3kL4/U9jKrcsLJf0gePJB0HSPGXuF3jmZQSnz4ybXw6HU0LwlQ9BFQ2OB8fzkVhxQtu5F0K9XNYyOBWAaHQEAGMCWJQKw038bMQxEN+EqdBu3QvbTVfwGy8n4QRfXABt1wGY+eUsGpFvfkVk8Z+Qe0ZfUSoZIHYbpA4tgA6pNfpF7tMV7veegvfah6Htj3WEhjkIzfsSln49WMvgGALr0Sdlo27egeIrxsI99yUIDaOP/LFccgGk1i3gm3AXlJVrquw3OPNNiM2bwjL4Mt3tYotmcL35Erwjrgf1+ipYallJ3Ct4DiwWOOc8B6lL9MUqIouXIvDY9IqXWQbE6YDjoXtguaJ/2TsqCvz3PY7Q/A/i4tdYWF8DrP2zxgz1Z+2/YoTeWAiEInA8ejMgxBb45pyKsmI1/JNfhOeLlxkrEZAs/Y8pBMMpcBsBlMocXuGr5WhujY6EoPXx2xK3FDdNQ/Dpt+C7eeqJFfQ4nESgbt6F0OyP2ff5Kljg/pmgwXACWodjBGKbxnB/8jSkVo2Y96XKmPrLKqj/JNf0W07lYd3fyjO6YxeKB46GsuLvMvcU6teD++O3YBs3BoSQKvv13/VQmT6l9m3heu15CDZrhcqrzJZTTJLgevEpyOeeE3UvdfN2+G+6C0RVq1x/qW1LeL54D5YrBpS5J/X64bvmFoTnf8C8r1TGzADrNmBtrGFd/1gs/M4X8N/7XFKnKmCOoiBw3wyQSmdUih+s+1OymADkFOZmnl/Zdq5wAIsSbSTz2nIznUW++BneYXdD23cYIIQbt/iaqsJ/2zNAJALWfb0qpu3eh9CL77FvT26VNqFWDbjefwpyn7Pi0ieMtuDMD5i3ITejjH1/K8/o0aPwjbwOkc+/QcmjaBSTLLDfextc770GoUmDqvmNhOG79maom7ZF9Sd1PQvOuTNBXI7yywP0yyFC+cdaLXDOfAZy3z5RtWj5B+G7ahxocXHV6m21wHbrjXAvnA+hUcMy21vLPwjv0DGILF7CvI9U2gC2ApLkGkycMRfA3H2sFn5vEbzXTAL1BtiLSUILTHsD6sZtJf/LWg/75kgaowRXopJUKIBFAQEEPGM3Rxd19WYU978FypK/WEvhVDOCLyyAumozaxlxITjrI6irq0ddUhXitME56z5Yr9afhmRmIl//AnXlRtYyOJwT0FAYvptuh/+eKYCioKwnXanrWfB8sxD2u28FsVoq7/NoIXyjroO2O79MX6533wDJSC+ntLKezss4ym6D69UXIF/YO+rxtNgL3zU3QduTX9mqAgCkrmfC/eWHsN16EyBbytSs/PYnvJcNg7pmfZV8cjic2FF++h3eYf+Fln+QtZSkIvLjbwjNeZ+1DE5lIBi0Ky9Pf9ndcqhQAKuwTlYvAHUq44CTGtBDhfD+34MIPv02oFIwD+tyS3pTfl2N4IvvodqgKPBPnAYaCIN123KrgokirGMHgaS5dE6yiaEUgYfnHFu02ATtyC2BllyE578P71XjQA8fRdmjsaywjr8e7q8/hdT97Er70/YdgO//bgA9UhTVl9iuLVzzXwepkVlGSaQMvVGOcDnhfGMWpHN7RD2WBsLwXT0e6trKB5KE7BpwzJgK13tzITZpUobOEgu98ha8V14D7eChSvs0D/z6Yw8/B5VBXbsZ3ssnHPvYyboNzW/quq3w/+cRQDt5+iVrXZwY8Lip/9LKHFjBKYR0JOvuwC0JTNMQeuFd+EbdC3qgABxOZdH2HYZ/whMgStXzfpjJtC27EXz01Ti3FsdItPxD8I24Fyj0Mu9PsZr6xzqEP/ouMQ3DMQ2s+1ml+ubS5fD2Gwzll9/K3Vto2ACuea/D+epLkFq1qNy9ePNW+EaPBT1aGHUvsVVLuD98F2KjBlHLiXas3l/FWjXhWvA2pK5doh5HAyH4x46H+vtflaqX4HLCdvONcP/wJSwDLiv3CHqkEP4bbkbw4SdAFIV5P4iHsVZAopz/VDH2CpK7/en+w/AOuRmh2Qv4gIAyTNu2B/4x9wBe/ylbWOsCkrv/GW2o5DTCcgNYtEEDGwgur0zhnNREWb4Kxf0mQFn8J9hfGtySzkIK/Dc+BnooluXMk4fw/EWIfL4EzNuZW8ym7T8C34h7oO2q2rQelgQfmgMt/zBYtyW3RFnyouXvg+/KqxGc8lhJ3sNy6ir36Q3XooVwvPQchMYNY/anrloL34gxoEeORvUhNKgP18IFkM7uolNCxc+D2KIZnB+9C7F1q6jHHA9eKUuXx1wXyBZYRgyDe/G3sN12C4jbU44+AmXZr/BePBCRr76N3R+Hw0kcoTCCj8+Cd9gt0LbvYa3GdKgbtsI7bGLSrgzNOYV+hXmesoY661JuAKswUnQpgPISAXA4p0APFcI35gEEJr0A6guB/UM9t6QwjcJ/61NQ/6rGOTgoReCuZ6Gu3w7m7c2twqbtK4Bv5D3Qtu/VP69JAi3yInDHM/zLbrW2JIZShF6bC+/lw6Cu24CShOhlmCBCvvQSuL9dBPu0JyA0aRyTO3XNOvhGHRuJFcUHSc+A8+3XYLli0KkHExLlmFPPgdS7F5wfvw8hLy+qDxoMwz/2BihLf4lJP3HYYbl6FNzLfoD9iUdAsrPLbTMaCCH48OPwjRwDLX9fTP6SA379sYefg3ig/rEG3kuuRfiNj/lv9jGLfLsMviE3gx6MNtOHtUZOjFgopEHl73Yq5U8hJHz6ILdKGqWIzF8E38U3Ql2xGhxOeQQfmgXly6Xs+26CDf4gAtc/fCwHC8fsaDv3wn/F7aBbdjHvO/EwdenfCD75WtzbicMe1n0rXqatWgvfpYMReuppIFT+aCxIMixDh8D93VdwzpsL+YLeIIJQMV+r18A3dBTovgPR95KtsD/9FOyT7weRLSX38TJanAAgggDbrTfD+eosEKcz6r60qBj+0ddAXbq8wu0jNmwA+wOT4F6xDPaHJkOoWbNCRyqLl8DX5xKEX3kDRNOYn+dEmBlg3QasjTWs6x/XtgyEEJzyPLx9r0Fk0WKA0vg2VrJwbFRa4Ib7S00b5H0vuU1A7NMIywxgHa2XlkEgXBxroRzOyWi78uEbfheCj70KhMpeaYhb6lpo2psIv/kpUgVtVz78103hSd1NbtrGHfBdcQe03dVrpEJ4zoeILPwBrNuXWyKsmqBEEHphJrx9+0H58WdUqO5EgNSjGxyvzobrp+9guf5akBo1ynWlbdgI36Ch0LZsK7N8yzVXw/n+OxBya5e5H8nIgOONV2G99RZAEKPuR/cfhG/IlVB/W1F+e0gSpD7nwzH3dbh++BaWa6+p0FRBgIDuO4DALbfBP3oMtN27y/eV1LC+/qrRNVgpWLd99Wx/bcsOBG6aDF//cVB++h3s29g4U39fDW+/6xGe/W45ATz2WjmxQ4HzDtfJzIvlmLJHYGniEIBaq6SKwwEATUN4zgfwXngDlJ//ZK2GYzJCU19H6MV3WcswHPWPtQjc+MixJeQ5ZkP9fQ18w+6ototSBO6ZDnXlBtYyOJwy0bZug/+qMfCPuQ7a1h0ob0W94ybUawDbfZPgXrEcjvnzYBl5JUhm9FQb2u498A0eBvXvVWWWK3bsCOeizyGdeabudpKWAecXn0I677wyy9G2bIfv8iHQ1pdxDYoipB7dYHvicbh//xWO114tKVeQKtYOoQhCz78M73m9Efn4kxhaPYnh769sYd3+1fwcqKs3wv9/d8B3xX8Q+eRbIBxm394JMm3HHgQmTIZv6M3QtuyoWAOx1s2pDIIsYFgsB5TZ1Efzsn4koD2rponDKY182Xmw3XcDSE7Meds41QlNQ/DR2Qi/9jFrJUyRLzsP9mfuBCSRtRTOMSKffI/Anc+WPBxWY0jNLDg/ngGhdvmjVDjlEImAFvtBMtOYSVC+WQb/DVOY+U84kgzL6BGw3nQTSE5O7McrCpSly6B8+z8oy5ZB27y51C7EboPt6achX9ovDoKjyFi6DIEbbwI9cqS0f48HYpezIPXqBfnii0CysirhQEHk44UIPTs9BUZcnYp79ZcgLgcz/6EX3kJo2ivM/LPGeuNIWO+8nqmGogap8+pKMtIgD+4Ly/BLITSpz1pOXFBXbUB41ruIfPkjoGoVPk5s1RTORWyvPf/Vd0L58VemGpKUP9J2F3Su6M5StA3+vKw6CmiP+GjicE5F+exH+H5cAesdYyCP6AeI5adj41QzwmEEbpsK5fOfUv6jhfLZjwiEwrA/fw9gsbCWk9pQivCMeQg99zZIKuSa2H8YgdH3wLFgGtPAS9KjaghMfBKWawdDZNyO1fp+qkQQef1NRN55D5arroJl/PjYAjySBVLP8yD1PA8AQA8cgPLLL1B/+QXq8l+gbd8BBIII3jQB2sZNsN56K05Pyl5VInPnIjh5MqAoJR/tPR6IXbpA7Nq1xFq1AsRKfszQNEQ+/RTh6c9C27oNQDXvDyaED8RgT0q1/5FCRF5ZgMgrCyB2agOpTzdIvbpAaBHbghasoYXFUD77DpH3FkFdVTIqNRnPI7/+K02n4nqZrdw7C9ZWZOeoASwF2kiA8KgCJ2HQYh+CD7yA8LwvYL33OkjnVjjwykly6KGjCNz4MNQVq1hLMQ3KN8sQGPsgbLMmgzhsrOWkJNQXQPDuZ6B8vpi1FEPRtuxE4Jr7YX/7KRCXnbWc5INSBCfNgLLoZ1iuHQK2j68p8ugcDCI8ezYib78NeehQyGPHQqjfIOZiSE5NyAMGQh4wEABA/X5omzZBW78e2sYNiLw9D/KoUXELYkXefRfqP//AetfdEJo3h9C0KYQ6dapecCiEyAcfIDxnNrStW6teXlLD+hUyRa7BqLBu/9RF/WM11D9WI/TkLJDcHEi9zobUqyvEzm1B0j2s5Z0KpdC27ISy5Hco3y6B+uvKOKXTYN33WPtPXjQNwwA8WJF9o7ZyUV7mSgDt4iWKwykPsXsH2O65HkKr5PpqwIkN9fc1CEx4BHT/YdZSTInQuC7sMx+oNkPBkwVt2x4Exk2BtnE7aynMENs2g33u4yDpbtZSkgdKEXzgRUTeLlmAwvHRcxA7tGQmR/lmGQI3TGbmnxmiCOmii2C5egzEs7rEfdSUWaH79yPyznyE574Beoj/pgKAkFcbENidf1rkBT2auisME4+LebBE27mXqX8zItTNhdCmKcQ2LSC0bQaxdVOQrAzD/Gt79kNbvwXaus1Q/1kP9Y/VoIdLT6GuErIMoXZ2fMuMEXrwMGggxFRD8kK2uHcfbkqAcqc/6N7hi+tltqIa1sRfGIdTDqIAeXBfWG8ZDZLL9ibEiTOahvCrHyL01Gs8aXk5EJcDtml3QurbjbWUlED5/EcE73kG1BtgLYU5YttmsL/5OEiGyb7WmhFVQ/CupxH58JsTf3J8NMMEAawKfcCstgiNGkEeOhzy0CtBalQif5TZ0TSoS5ci/M7bUL76ClAirBVxOJwkhLgcILVrQqhTEyQ3B0LtHJDcmiDpHhCbFUhzgdjsgM0C4nYCklTy/B6OgAaCQFgBDQaAcATwB0EDQdADh0EPHYF2uAB0z35oO/Oh7doLBHlQh1M+FKRL2u7Dv5W3n24Ay5uX9TgFvTv+sjicCiLLkPqfB8vNoyHUy2WthlNF6O79CN7xFNTlK1lLSSqkwRfAOuVmECef1pUIqNeP8GOzEHnnC9ZSTIVQLxe2Nx6D0DCmVY1Ti0AIwZsfgfK/X075s/2j5xkHsJYimOIBrBOIIsSOnSFdehmkAQNAspJ4oQJNg/rH71C++AzKZ5+CHjjAWhGHw+FwOPHmOffugonl7VQqgEUB4quTuZUSNEiILA4nFmQZ8hV9YRl/JUheTdZqOLGiaojM+wzhqa+Cev2s1SQlQr1cWJ++E2LnNqylVCvU5SsRvOMp0N37WUsxJSQrHbbZD0Hs2Iq1FNNBDx1B8Nr7oa5cX2obD2CZFIsVYrfukM7vA/G88yE0aMBaUblQrxfq0p+h/vAdlP99C7p/H2tJHA6Hw+EkkgOu3QV1CFDmVJ1SAayiuhk9CCU/JU4Xh1MJZBnSgF6wjBkMoVUT1mo4FUD7ZwOCk56FtnoTaynJjyBAvuIiWO68lq8UV0VosQ/hqa8iMu8zQKv48swpiSzD+sB4yKMGsFZiGtS/1yE4fjLovkO62+0fvWCCANYDzPwnC0LDRhC79YDY+SwIZ50FoS77nIPU64X25+9QV/wG9ddlUFes4NMDORwOh5NSEAEXunYWfFvmPqf/obhu5kwC3JA4WRxO1RDPbg/56sEQe3cFBL5Qptmge/Yj/MxrUD75ngcI4gxJ90C+bQzkYZeU5CLgxISyaDHCD7/IFxCIEWlgH1geugXE5WAthR2UIjLvU4QfmQmEw1F3s3/4AgSGASz1m6UIjuMBrFghNWtBaNMOQouWEFq1gdC8BYT6DQGrNf7OKAXdlw9t00Zo69ZAW78W2rq10DasA1Q1/v44HA6Hw0ke3nDtKhhT1g6nBLBoJ8i+A5n5AKph1ktOdUOonwvpqsshDejDR6WYAHroCCIz3ylZjauMFzxO1RHq50KeOAbSZb14ELcCaBu3IfzYTKg/rWAtJWkhdWrB+vRdEM86g7UUw6GHjiB09zSo3/9S7r4lASx20y5LAlj3M/NfrSAEJKcmhLr1QerVB8nMAsnIBMnIADIyQRxOQJYBQQRxu0HDISBQshAELSoC/D7QIwUldvgQaP5e0F07oO3aBYR5QmMOh/P/7d1rcFTlHcfx3/OczSYhRC5JCJckhEuwgDgISEVhoLTgiNWp7dROcaq9WzpOpzP2hY7W6nR84ZvW6YxOHe3UcbCtilXqhSpIZ8pFRhtaRW25BMISEMhuIPewu+c8fRHAEAPkssnJ5ft5s7vnOc/Z34szmcl//+d5AHShIc+Nmmhqai66s9IFBazm0sJbnYKN/Z8LyKBoVJGvLFHk9jXyli7kH/oB5mo+VeqpF5XasEk6Q+FqINnZMxR9YJ286xeEHWVQcicSSj7+rNIbNkk+3YB9Zq2yvvM1Zd37/RHTjZV+dYuSjz4plzjdrfMpYAEAAPSeM/pmfqxuw8XGLyhgNZWOf0HS7f2eCugnZkqxIt+4UZGvrpSdGf6aFsOWc/J3faD0+leV3rxdSvPYQ5i8lUsUve9u7vmzXPyUUs+8qNT6V6WWtrDjDDumuEDRX96jyJoVYUfpN0H1USV/9bj8bf/q0bzcl58IuYC1nQIWAAAYspz0Sv6Ruq9fbPx8Aau2sDB/VG5wXNLI+FkVw56tKJe3ZoW8m1fIziwPO86w4BKn5b/2jtJ/ek3Bgeqw46Aja+XdvEJZ99wpW1EedppQuGMnlXr6L0q/8LrURjdgf7OL5il6/7pQCzaZ5k7VK/W755R+fqOUvuQmOF3KefnJ0AtYZ37yYGjfDwAA0EfJtEtPGlPTUNfV4PkCVlNZwV3G6dkBiwUMIFtRLm/1UnnLF8vOnyNFvLAjDRmuqUX+O+/K/9vm9m4Euq0GN2vlrbpBkTtvk7fkmrDTDAh/13+UXr9R/tvbe1V0QB8YI+/GZcr6+XdlZ00LO02vubp6pf+4QennXpFrbO71dXIGQQfWGTqwAADAUObcD/Nq6v7Q1dD5AlZzacHbklYNWCggJGZMvuwNC+UtXyxv+WKZ4sKwIw06rrZO/pad8jdvk79jt5RkK++hyF45XZE7bpV3y0qZsVeEHSejXG2d/Ne3Kv3n1xXsrw47DqyVd9NyZf10reycirDTdFtQdUTp5zcq/eIbUvNF1wvttpy/DoIOrLvpwAIAAEOXcdo6qibx5S7HJKlxRvEEL5k+Kol92THimOklsgvnybv2atmF82Sml4QdacC5xmYF73+oYHulgh2V7QUB58KOhUyJZsn70nXyblkpe/0CmXFDc9dOV9+oYMsOpTe+o2BnJQuzD1J24TxF7rpN3uqlUnY07Dif19Imf/MOpV96U8HO3Rn9W5c9CApYSQpYAABgaAvkVDaqJnG080BEkrxUaq1kKF5hRHIHa+QfrJH/0iZJkikcJ7vgKtm5FTJzK2Rnz5SZPCHklBmUTCmoisl9vE/B7o8UVH7Svp5VQDFg2Eqm5L+1Tf5b2yRrZefMlF26SN7ShbKLrh6cRYazgn0HFWzdJf8fuxTs/ohHWIeAoHKPkpV7ZPLzZFcvk3fLSnlLFkjRrNAyucZmBdvek795h/zN2zPSbXVx5vKnAAAA4GKsjPuWpN90HjCS1FJa8L6kRQOdChgqzLgxMnMqZK+cJlNeIjutRGbqFJnJxZJnw47XtWRKwYHDclUxBXur2l/3HZI7fJTOFXwmJyp7zVzZq2bJzq6QmTtDdvrUcNaJaz2j4L8HFFR+1N4RuHuPXKJ+4HMg80blyPvifNll18pee7XsF6ZLkX783aylTcEHn8h/70MF7+5WUPnxgKyP5t22OtTH0l11jfy//zO07wcAAMiQylFHEp+rUZm2kqKZgQn2h5EIGPKysmTKJsmWTZaKCmQmFckUjpeZWCRTNF6mYKyUP1pmTH5Gv9bFT8kl6uQ+rZXip+ROxOXide2vJ+vkTibkjp2QfLpV0AvZUdlZ02TnzpKZNEFmSnH7vV1cJDOlWMrJ7v21Uym5Y7Vyx07IHT2uIHZMbv8hBf+rkot9SifgSJEdlZ1TITt7hsy0UpkZU2XLJstMLJLycrt3jSCQO9Ugd+SY3L5DCg7G2l8PxOSOHudeAgAAGMI84+Zmx+o+6XjMtJYVPiLnHgorFDBi5I+WuSJPGj1aJisidShqmbzc890ILpmUWs9ILa1SKi3X0NjeOdDcKtfSJqVYUB3hMuPGSPl5Um5u+72cnydZe2GhNp2Wa25tLyLUN8o1NMnVN0qNTeEFx9CQmy1TXCgzevTZ+yxHJidbrqFJOt3Qfh/VN7R/BgAAwPBkzCO5sfjDFxxqLS3YJ2nobBkEAAAAAACA4exA7pHEBbUqa5w+JmKrNwAAA3VJREFUCCsNAAAAAAAA0MnMlpKCxR0PWDnzgCSeSQIAAAAAAMCgYI35dsfPRpLaSguelLQulEQAAAAAAADAhY5nH0mUGMmXzhawGmcUT8hKpQ9IyuxWaQAAAAAAAEDvrMqJJbZIkpWk/KoTJ53Mb8PNBAAAAAAAALQzRmvPvz/3xhUVjU7mBvslTQwlFQAAAAAAAPCZhmiQO9HU1LTac0dMbW2TM3o0zFQAAAAAAADAWVckvZY10tlHCM/JLkw8JWl/KJEAAAAAAACAjgKzVupUwDKVSknuwXASAQAAAAAAAB2Y9qWuTOfjTjKp0oKdMrpu4FMBAAAAAAAAkqSWwDMLcg7F99rOI0Zyxpn7wkgFAAAAAAAASJKcfpFzKL5X6qID65wzpYVvGuNuGrhUAAAAAAAAgOSkt6KxxE1GctKlClgl4+ZZa/8tyRuwdAAAAAAAABjhTDxizTxTXXv83JHPPUJ4TnbNqT1OWj8wwQAAAAAAAADJKFjXsXglXaKAJUlZgR6Q1NqvqQAAAAAAAABJRu7pSKxuQ+fjlyxgmZrEUTn3RP/FAgAAAAAAACQjd9DLtfd2PXYZrnzsWD/wqiSNz3gyAAAAAAAAQEoH1i2LVtft6mowcrnZpvr0ab+s4DEn81jmswEAAAAAAGCkc9Kj0epEl8UrqRsdWJLkystzfL9pr4zKMhcNAAAAAAAAI52RKm1RfImpVOpi51xyDazzF6qubpPMwxlLBgAAAAAAAEjN1tfaSxWvpG52YEmSk2wwtbBS0vw+RwMAAAAAAMCI55x+HInFn77ced3qwJIkIwVOerBvsQAAAAAAAADJSJu8WPyZ7pzb7QKWJEUOx98w0tbexQIAAAAAAAAkSbXG2u8ZyXXn5MvuQtiZse5+BWaXevD4IQAAAAAAAHCOcfqBOXTyRHfP71EHliSZQ4n3JPdyT+cBAAAAAAAAzun3JhZ/rSdzetVF5UqKKpznPpaU1Zv5AAAAAAAAGJGqTIuZb2prm3oyqccdWJJkamr3O6lbi2wBAAAAAAAAktLGuDt6WryS+rCOlZtRPEFp/4Ck/N5eAwAAAAAAACPGQ+Zw/Ne9mdinhdhdWeGPZLWqL9cAMOxdKefGhx0CAAAA/cmmpWC3jPHDTgJgkHKK63D8Z0ZKhx0FAAAAAAAAAAAAAAAAAEaW/wOlrmbHcsnq2gAAAABJRU5ErkJggg==;" vertex="1" parent="1">
          <mxGeometry x="238.67" y="388.25" width="68.57" height="28" as="geometry" />
        </mxCell>
        <mxCell id="YeevyUvF7uNzMJiPXJwP-40" value="Distributed geospatial proccessing" style="text;html=1;align=center;verticalAlign=middle;whiteSpace=wrap;rounded=0;" vertex="1" parent="1">
          <mxGeometry x="218.67" y="419.75" width="107.58" height="40" as="geometry" />
        </mxCell>
        <mxCell id="YeevyUvF7uNzMJiPXJwP-41" value="" style="rounded=0;whiteSpace=wrap;html=1;dashed=1;" vertex="1" parent="1">
          <mxGeometry x="622.5" y="230" width="157.5" height="240" as="geometry" />
        </mxCell>
        <mxCell id="YeevyUvF7uNzMJiPXJwP-47" value="&lt;b&gt;Consumption Layer&lt;/b&gt;" style="text;html=1;align=center;verticalAlign=middle;resizable=0;points=[];autosize=1;strokeColor=none;fillColor=none;" vertex="1" parent="1">
          <mxGeometry x="639.995" y="241" width="140" height="30" as="geometry" />
        </mxCell>
        <mxCell id="YeevyUvF7uNzMJiPXJwP-48" value="" style="shape=image;verticalLabelPosition=bottom;labelBackgroundColor=default;verticalAlign=top;aspect=fixed;imageAspect=0;image=data:image/webp,UklGRjweAABXRUJQVlA4WAoAAAAYAAAA8wEA8wEAQUxQSIMFAAAB8ETbtrHttm3V1tszbNv2mLY1GJ3GsG2PEZy2bdu27Tls/rYaauDz+30TbapHxARgdHVoANB2fezzX/nVP69l8l//yXm/+OhlRx2+Bcbq0DDHigKQHY+6/jM3L01W47p5v3zXWY/YBIDoHCKDAOs/7oYfrWCSDPPIKsgMd5JM3vPJk/aCQIe5QRqgj3nNTUkyLFiS6Z5MrvrOWbsA0mZfU8G2Z/8myVhnLM00y+Tyjz9DIYPMKmmCfV63kJnOEg1n8vcnbIzWZtHQsO87VzHNWaZpnrzltI2gOkukYbvXrWQ4izU9eeNzgTYbZEA7Yx7DkvUalvz+kVAdOVEc+hNGsGgzaC/fEG3EFO3yNbRg3brzz4+FtlFS7PZderB2nXYlpI2MDDhqHi1ZvWH80jbQEZGGS5jBCnbecgR0JFrDW2nBGjYuPRrrjUDDBp+nsYwj4wQMM9aw1fe5joUczougMyTY4sd0lnIGL4HOiMgG3+U6FnMaT8cwAyLtc3SWcwZfCJ0+xVtpLOjkmqdDp0txKZ0lHXxof7TpURzHyJqi8VcbQ6ajYa8HGaxq43vQpkPkW3TWtfMk6NQUl9NZ2MmF+6JNpeFhK5mVReeXIVOB/IDO2naeBp2c4mw6izv4wC6QyQh2uJdRXTS+GToZxWtpLO/kukeiTdRwwCpmfdH5ucko3kpjgSf5eLTxGg5cwawwOj8zkeJ1NJZ40h+JNkaw0wJmjdH4bugYxfk0Fnly0S4QQCC/plcZjedDgYYnMLPMnD8DgAGvobHMkzwCTTD8jVFnNF6NQfEEZhaa8xeA4gYaCz256gAIfkCvNBpPAHZeziy2DwNHMVjqwT8OuJ5Wa0nbG5+m1xqDx8vNjGIzXrPbYma5feDxzGpz/uz5dBZ78M5XMaotOe9rFbfsz8x6W72WBZ/s/u/+7/7v/u/+7/7v/u/+7/7v/u/+7/7v/u/+7/7v/u/+7/7v/u/+7/7v/u/+7/7v/u/+7/7v/u/+7/7v/u/+7/7v/u/+7/7v/u/+7/7v/u/+7/7v/u/+7/7v/u/+/2+CWXI1P59Zb/aLekuu/Cij3hZfRq+24P1HVdyNRxiz2Jxf3+IBRrEZ34Bf0svtbLydVmuZfBzOLjcu2h4PJ7PUnN8HNr+LUWrGV0HxKVqpBY+C4qRaCz64FRr2XcEsNOen0CD4Fr3UXgzFgDNpdZacvx0EDbsuYZaZ80NQAIqP0qssg8+Z4FmMLLLg7xSCsfJLRpE5z8OAsQNeRq+x4D1bQcYRbHgjo8SMN0AxvuIseoUlH9wJMoFg4z8yCsx5NRQTK55Pr6/gbZtBJgHBt+jl5TwBisk2PGods7ic34Jg8oqX02srufLhaFMQbPQ7RmkZr8CAqTY8yZmF5fy+QqaEAVfR6iq48EA0TKPgc/SqyuALoJiebW+kF5Xx5RgwvQ1HLGGUlPGzEJkmKI6NyIIy/mJTCKZdcSIzy8n5l13RMIMDLqBlMRnv2ReKGVVcQs9Sct5zEBQzrDiLEYVkvHE/KGZc8YK1jDIy/nJnKEZwPTz5IVoNpfFzm0Axkop9f0vLAorgKyENI6rY6L0Mr540LnkuBsHISsMJS+hZOuH80X5QjLIM2PPrDKubMK66vEEx4g1yyjxG1Ex68nuHQQUj3xTbv80YVi9hwbtfJFDBbFTBEV8IptdKenL+1ZujNczSpsBjvuBM8ypJi+RDN2yLNmAWSwOOePdiZnoWSDiTfzl/S4hilqsC25/z8yDTzOsizZzJxR991gAZBLO/KdAOu+ZXq5lkmGc5hHuS5PzPvmg7QBRzpAwNwL4nfvgvxppMLvrRq56zJQSqmEtlEADr7XX8NR/62V3zlq3OIrCVix+46RtvPuvx2wJAU4wqAFZQOCDQFwAAkJAAnQEq9AH0AT5tNppIpCMioSLzyNCADYllbuF14wphWmf8t3W16uj/kv/g/2a6WLf76x+mP7H+yPUaHy9Svhb+R9uH0F/uvqP/RH/b/u/wAfpJ/kf77+NfcM8wH8+/vv/n/uXu8/8n/Yex7/RfZn8gf+B/ufWj+gd+13plfuT8Jf7gfuL8C38x/x//9/ejuxf4B1I/WD/Bdp39i5XD2q5nL0n2hz9/wnfH6r/UI/GP5h/md5jmI9QL16+m/rPyCeIF/jfCq8RCgB+bv1w92j+u/+f+f89H6H/mP/f/k/gN/ln9t9Mf2PftB7Hf6uCQGfc+eRmxkR+cYTaU60SnvPtHzaudaHXhnFCPLM3XioUTxKKqRJlyhpGRDXsQAD57+Q7z7R82rnWiVJL7+8gYUoieRP7cr5RPfyHefaPm1c60SWsVRf/vqY+ksgsmKj5tXOtEp7z7R82rna7g7U2BcwQ7z7R82rnWiU959o+bVzrRKe8+0fNq51olPefaPm1c60SnvPtHzaudaJT3n2j40evPfuygyXQhh19jKLfs8PsMOk46FBRPfyHefaPm1c41HNpIg4BR+Sx6wxEm/tenFBfM6PvKBhJguEayHVpW7id89/Id59o+bVzqruZjQFLoVfPOTQTviiILTZpY6QW9QCqOeicXaQ2sie/kO8+0fNo4Ju8ok8kH01MEayRWovqT5QnEaE6fw5iZ/y2wS92WQD4O8+0fNq5AFvv3a9HzdN7fQ0kyKHf9qPTG3RDXrquQXXuVRnBgh3n2jwvAuOm1c4zTmf3c4qZiuyM9cRLhTVc60Snu0gFVv+0d1iCxUAxUL0C0Hdo9k8k3USd8onv5Do8svKLeeeetamKRaBK3uK/vHBdOoAPfRe2DQKxOs3M/yHefaPm1jBRHwxpPRatP+o4vSvYVcMQsmDpMZaAID7ByfAFvv24Q7z7R82q2sUHUSNFBAoWNvJjFLzNeArzdeTgm4SXP+SJaBG3CHefaPm1Xuv2DJBGA1B2R4Jmd2K97KN9TwgcdIObg60SnvPtHyDwbrXLSCVJNy89lPYRoaV0uTcHWiU959o+Qeet5ucTTbgmc5dwwClBO4hLfftwh3n2j5tVtEucSptnubatG3WCLVxjFkZQCokRG35NvCFrGhUfNq51olTiQFsNBE15TXZCJxGfrJAwaLyTI023cBqMhEWjLFeGyfKgEnbhKBTcScKIvCgonv5DvPtMswu+SmqQRlGQgykcM/Px/yZ6TkaIF+bHz6mtHpoUm/iOCLCZrRKe8+0fNq51qO9oFgus8Ffcr6NrySWDfe1ZHB3n2j5tXOtEp7z41EBc1hwddYcXdW51olPefaPm1c60SnvPtHzaudaJT3n2j5tXOtEp7z7R82rnWiU959o+bVzrRKe8+0fGwaa4MEO8+0fNq51olPeabr+CZWW/vki3dAcwbS0SnvPtHzaudaJT0Qd9yYzXHRmbEkNXaWhNTYy/Nq51olPefaPm1c4nEyIgDWAKl2VtBaIHToT5tcsGuEKJ7+Q7z7R82rnFa1+eCz8F4AAD+/7MKWOXyBEnCFDayxbckd1ewH6WVXLOXE15mxcfCaqhYedYP29nvLOsuHUG6dGAm8yVZPVHznR5ug74TY/y/UEBexEwG/oNNQPrW052tBG2QiNdLJnB/fclNeNknO6PyZeNKYbSwsnttNBox6XdegjVn2eqjrFMxx5TeqiB9XE2y3G+bWqduvc4KmjQ6isSEeV+TUabcaNFeeGc1GPA/SZuNpREcfUv+AO55/SlNoRjP/OjdDHjALJEuEyftFMEQoMkwAv4x3Oj2rm5sklNoHpbUSAdchGWx6Q7K4gSfB4DCTZlqV+N4NMsmRwUwMRhAEdgm/ljZ55/lBEn7VSTaVbmrngwHn85js/1z0j1oJoS4ZONHOSuKBZ5DnbgP3Sb6jXPlRHTz8uhh/JS4rzzA4tCu99ocKRc0MlU6am3Z2xGnYppm85RE2VukuWUiIVi5rfkvb5A1/nDwjkrVqgN2Qb8gjlEcrhR2z1xhf55dhoxvdgywRnr6v6U+p15Runk6jWG732KZy+qDHCv6abnnkmGz2Gv+dNasb4uk4K3doR8IN0pOCGfTWzEkAADKAEwMU/2vP2VzmHfz/WqdWOn8lSROOMdW9DQBXjWwjGoqJGzis/B3LsJAIa3CxqfXl8jRIw3SydWsXXipWJqFKdEsYKmGXGXO1tGJhu0f8HRzefSD+PXRHaQBJuaOOHeEkSMHLD7iEwvPX0oYJOspdEMQPxCZ+h/9901aMC8NrCvuIkvP718SqfGeeDXn6x5hhhTX6z5mv2XmWPrtyVCKQACmepSakMmf4NkFHysWi6RD2mofV8MxacqX+WVaDeIGLcoYbJiW/r7cEyL1ah+kRKbjpBhW9zKfk+4H7g6uvtGdAX+PcXe9/suxOd0UctskEsz5EABtTqjorLo0oStwAAAAAAAFXXsBiZSmk9Q4GUwKJ+b4FmrKdgcX2E8u0hla7rxpKLBG4xmcvF6XZAKg0M/0Le78U2aQSwWh2QdtZ1tTKeCDB4aU/QdaGuQJK9W9PrWjcc0hgtUn5qU4gQE+Lx/nL8x1fxP59j6H7r4ArnwzaVomnyaKzuPK7k7Q9xPK90/CfVURmzng43IuDflDsxJ8CiCTvmfl0msAav6EPnBiEdqNDp+1+F45Knk7WRp2YjQYgxFSgiib1a3cj9s+nZiQAFgV3WIIQBmgvDW2PzEDr+5/JGmf/AaoLmUU9e0IodYkPK4cC9X2JGDl5IAFj9qvDdVFrcdzOsQRWeXMQo7iQhhYP78Vyw/Rhoq7lLX4hOJ+IPtZimRhI/6HKUxpTo4c/YtNNMPDT8w9sc+wX2nmXZ5UbDkx4WEOoeK/n5BsQAxhHoWqnwwZd5Gii3X+C2GijEx7SfbAlXtIr6d0Xt0cMgxuKwE+628yyX7KvKbjRR4TJuoMBbvkjtiJfIV/j72UO2LodXP3d9Kn7fTF28/s983DYSYle/Q4Bkh68rFlgl2nHEotB5zBlU0Qo0Q//m4K+H5dLzVCwrpQxYy6Kf+NtDWnBSGYtBLycCcrJUh7XMYSzaBRsPgtgAmk76E+3BgDRNIm2hILZ7DpdTW11ROm9NbD3XSXUadoYBcRIudfxitawT9ANBSKSqWq5XMINAQP92drJDh0GGtoIUSWGeyi4G/G8+epZ3MEr9ZaGS6mEGcp90kDi6ucCUwhNQiJaLRSNNxHylzHLxJteb//Va0ZnfRf6dcdJroLVE8tmYDMoFhL+wyz8avrtfD8CeBNbi3peM5vEsQsEHnLb1t0Z1AYR40ARwdCfD/FmlutKlo/EunM7oL3EnueTtd11Bju67pSVOxEIlhvx7xddP/SQ4sUozbCUPoyp6laeOGN+jL7ydGt1PnTPCYK3bafNAFwucNoC228aJvrZw2to31148naS34UZmTaYC67pDg+sIgQQiOZ85IS1o2G/t5+H53DelcssgMl+iyTz9P5uFKzK2penD4ik8eLZaRwDk/PlFDcBwnmNDGs5RvGKSrrFNCsxbYr1RKbx77vpkdUVJRRjF0Q5vMPQdfh0+b/3D7uj8WBPI7iNl5LPPDg2Fmaxf5/tLvDCcGpsxGroo5/0TluxjqiJh/20vVBwu8dYPlP9HpcBqBoDNAFbmPcDuI/eaXUTQEF1/CDMVtmHg2bxQEKc+YHcr48xKAYRJYpy3AHxsyMe5CaEjuovCEPWF5oPYMlgbc0jh+gEKoyCP2CizkyumEzWHRGgxUaYF4+w/V+jZ/9x8bfv73YjPO/WCD4+/N/kB72+ICN2It8O8PvkZcDDeJd1RPWPfMqkGii+IWZ1a0upkuXUIW9oOKd+vmBwSmqENl52Ru66QG4ltyU3HAafhYwNAq3KicPfq+MyoVvLFxeIYI2Q7COkOtcq55pwJc7M5VKzgXfER7vF4zYGbutgZa1GSDsoEI3bUxOQKL9QbopLiyTbfC2JMWGY8KJFzg4fpYx09htkNP8bIz/wM0p0PHMDfM0XJ+3xDgl2CFSrMzPIxFjYizHfH85ik51hFismvZ4VPGXJ2vg9SSXTdUhFRflqKWgTwnHK2AQwzlS/ePxQX2+9YtV/D2lCsNYavehFUxMygH5u7fkzPj+Lnv4BShJEXW7kwzsEB2PXVihk0/cFeMZ1TM/s6J11uXNvESNFbnLWa/lh0A+dbxQ0w8EFTz4US4jLvTmk630C22Q+cq6Q4gVSQIHxHGgVV6nASbQ3Z/fLNx/yrMNhLPbfxcda6AgTt6L/JRoeeFdha1zSWBLkAynhwygG9s9ILw7YzOgiI4qUwk42kC21RNgzNLXR74MM3f3gz+eVqhqDt6lYk3GnS65wGaHP+GFz1FWDCok9uYG0iaFIVdRQ0879TQ7L0yLgYdySaV88pe8lSqcGkCsIMX/cwkBS2u16R4EWqoM3GnNKqVa68a8pwC/CjVN/D+mNin1aXFfVLtpyEwVODToN9FCXfeJ+0/shh+4eCAWHeLkR4gM2jca+II/MPmDokWfkZR/k4/4Q0f7pg5Y6Pfb2ykL4odh3S5UKkw8aliR0gKrH8k6gWWmdpdavVEgtVo5nzYVTUQ7oLWvPWSlwiI55/ghNVmxzvAX3z2XqpqW6WjzaCGl56Wfee26QsYv9MdErILY6VmvbiEoukddoE0TeV816W77PQAOoBbtqytNSvgfddC8PRnElzkoC52jDPC0WL1qJhHkI6N4WuCywvcF3NqmUNhT+vxufxmJgRJczRD9NSHbcARlzwea9nSQbjtMA1wAb9Yc3hK9/fH6pb5Smml7N14taeIuK19TyrGq6k+o1deqBjZWkjsKVNdZRmHjkg/cJTfLy6cyUOguvtMNEfJ8d2EoKtRStmcWWrp/bOhjIKyAQSOG8Tt9hpq6lyDFmP/J7WcsZk1Bkd3omLH/sx87s33lAJ9vKPIZVLJGTUt3Hftf4DNvVprl9tzH8JAO7g4Hwh5X5YR/P/yFPT3Wr+kDKTfRYMWN8Qw0YmsbMGgYVMZQ9j3FQDaAntB2ErsE+bRk2H4aCQKwgIT5dmurSwExLvCz7z2Zf311hiW7zXR+vXPqLmLjUFC2Iqhu14e3cjPx7liX0qZu59ixYzT0U54ijpz3jG3+LgZRYVTC1s8UFBXMTYnAfwpB2v8PStvFdYpI+uR8mTudYtSzOOi+zl5oJZl148ocD2/IWmyzAxpjABqOEidPFnGakPEXn6PuzWGIjnHUrmnNf2+NX2/xrJ4roCyJWg0pnhW3605FekCa8nC0FiqPd7Od6sFb+KLmvJ1JGSQeAayZ8lEGZWb3jMoCYTM/BL7QHwmFWbifjFIQB+OG83Yy8lwYfCAw3n+v+hB/MAEGS3a8Pbuu4XEQhaFkK7q9n2izVOAJ1zPzb2imCmKFRyp7WCCtz+KYWSIIIo2/A33rt78NcUO8oLeEgnygtQCBe0ewGFII/TDbB3LRfTUDVHRfXzLRCkOV7cWFqQYjd1YOnwEulYyUkvvgfegDtpcUDSFqtz6DM4a+kaVcJEnQealO9Rp6grXyiYAPZbiyQLse73ACBSiXPP1BVCDntl5uX2GmxWmourVowzvPi4T25F018H4a3ctFXpoVnivaHV9eyktLmwxAHx6mElM0NvXpen+pPnOEb18+0/wGDvbSnbTT6U5ogwwJ5ztEYKzjUrMzDMqEH0KO/fTK3q63AloCOE+fxDDnaKj/xlqFHi5D+DZ+OOebggDvQ5axlEuVrrPclYgamstkotUEG/vpjgXKd43i5rH/ZGlUP6QuWWHQp6cZBEVCY5gIsTddTMCCAcfaI0Z8P+TnXIfMYQlWK4bBAA/0OgGnslqT/affjfudT2Ae7mqxIaS/ZtN9sJyE0G8clDNmrZ9UPoFhKLYT/8ZTv1xplrC2GQV88WmqpFxz6nXJlQVBn2bHk22ZIXpT2tZbS4b1B0kzRrdOisHjGy4UKrZ1fl6n5CG3ubOdBQbnWBFysugVWHLVD9W+6UsY4jUehUf9b4RjNP2dyk7oY7A83m3TsH731QM9h05rgAB3g4S57llFJMeyxtUv+UIZCL6x8R06I7l1AH9vA3EJbsalaKSy1O6O60Aov0m2KHzrnd8CUiyVaO/8vbDvZyF7wdA8a6M/sJ90PfCIPvdV1pbvc3KaG+AK1U+22ea04oQj6wFnKY916iQ4etZWYiejuh6lwdVfWbKo7j0EizyMYg4+4kP4u82TmjipH6j6YE+SA4sPXaadN3HLzZtTOJ8CWK3a7vxG5H+Y3rJCsa8b1+a2xeQioxJu13Y2rbwO4lJmYrhHODzjcuwvCNleJOjPtxy1OS+hmYHueHhc/+O1MqGj1OB0vLyYWuqckz5ukHAfAaFrOebcpZ5YucJEWgBqmzcSyNZTPpNe4szWOPsflouis5JJ47yOE0dPWgxJeIdUCu0PD2e297seL9DxeK4aqFknBMsPkFlVFt8nBKp62nmBos/lZcmrJh32qLH2G8IIVQ7jZoPv7L7nM0XwB8mi43s2VbzwUVNwTU4271AAAJgVbEJQQB/NMLG6oLGz0HJ+svCcS0xxWouxtkpxnbygEjWg20XKp50tTZPqjJ0SEqTomUgBcNxP1hYZdCZJO1gPuI8ikDutNbtx2xEPvp9kiHp6YP62tssdArPBAuYSQyy33LJHOGydgrbGYEOdtq/BinK0bVVSU3mFTAK4R5iiMTXk08GNnE4uyekHbP9ZYtq/Lux49fvzrq4Ds0nUO9h3hyNtZRaGE4OpQrzC5KT/zmX7eP4vEpvwf0CBa2bzPRps/mQw8x04ddL2U6tOro6rkddp/4Ocd1ZoobQ9pA2JpnhFAq5HyGfijUf1+mnf6Gtkx89OGR9zUoQYDeLFiR7wuSooKL7l/+KrL+/1ujIm93CWQQskRLkAHebxFQesXtMKD8WNqAc/4tuKjBtWFvuUZZKuD8ctSZ4Ygok/DIZlhD4DOPEF6ibvV9aiUEsvvtx6+50rqfYzcBGgtTOiOOTErYJ0xT3A2rgcawqSHE9qYAvZDSOQTYAVCWCzjRJ59gjmWjYEmGSkzskhOf4VNcVu7VY5cfAMsw5H15iLMqGs49Kd+2G9DP5HApdkso9st0OFFRfCgAAAJfGeRbXi7UbAr/eTvFtZPvXdGzSb8CVz8V2db20DPB//gQYbX2NzG4zA4qLw+OPwAKogz/owatdixyB2MV75jabzrYrpHga8nwAAAAAAAKgdaLsyNmeRpUE4zdzasijxdt/P/jHNl7me1H1zF/ovrNJI0bj0AgSXhZTUP2pHSekEd9E+sVRF3IuAWo4aQXOyGXW14IjX7kRBtIRQWrmucS6TsZ3t9AWBwNuDN/O3leYVzf6rQRIVz4O04Ec+WhRIZ4krRed5jT0d5scNamg3edaXEYk18LL+46/iB3cIRXYE6+zVJHwYk8Ds9JkGQO4juk7XQugEk3N40WPeEpMgNElmYq9YmIfX5YtU1ALPWE8T3gwUAAe6LJObnYb9AjlzIn/FrzO8wGuktREcDyugfBhuH2wnmH8aobAQwItxSY10ixGurko2fzYRKF2n7uiO96+6dwadVIn/p/IsYmI/EhdCDB5IevJMltKwRnenBV7mUk+kbI7Nq5nnqitAVxR5ahhepJpVRUSW7eMg4ZPfHHFsDA3ZJ5ekxhmEJGVF1TnncCOhjRp8amQudmT9okOC1oMt5DaYSOrdfhyD8kRa+ltZA8n7H9AEkvk8nOG/RAwNLnzaCEi9yAAfQ3iI46UePk3gG67Nscd/qHgT1UWouFpca72BVIQV2oV8RfdrrzK0Ba/WhFE9SrUIqQoiu8Avxpe5xNd51I9xn/TY9SxNVDTttcLZRYuPiVWD32l73VDm2+wVMxce4agYKbX0soJt1wfj9OIzP4kKb37iG0QJXZDl4JjasY/Y4gilVZgLbgipmyDaNP8firW32CQln3l9MFT5CL+GldsyRyMGeDNig/frRSpXUE6XD2pBuh3gbkPcNFADcmfwmIrq0o1qw7obMQAuAY3NCM8s4/GRML/IXXouRaG41rs2q0KZh1AqnoxlQkVYERXYIvncgldvIMH1ubu+JPm8A4ks7/6b5yfTLmw9jZkgAAAARVhJRroAAABFeGlmAABJSSoACAAAAAYAEgEDAAEAAAABAAAAGgEFAAEAAABWAAAAGwEFAAEAAABeAAAAKAEDAAEAAAACAAAAEwIDAAEAAAABAAAAaYcEAAEAAABmAAAAAAAAAC8ZAQDoAwAALxkBAOgDAAAGAACQBwAEAAAAMDIxMAGRBwAEAAAAAQIDAACgBwAEAAAAMDEwMAGgAwABAAAA//8AAAKgBAABAAAA9AEAAAOgBAABAAAA9AEAAAAAAAA=;" vertex="1" parent="1">
          <mxGeometry x="684.385" y="271" width="40" height="40" as="geometry" />
        </mxCell>
        <mxCell id="YeevyUvF7uNzMJiPXJwP-49" value="Power BI Dashboards" style="text;html=1;align=center;verticalAlign=middle;whiteSpace=wrap;rounded=0;" vertex="1" parent="1">
          <mxGeometry x="671.26" y="313" width="66.25" height="30" as="geometry" />
        </mxCell>
        <mxCell id="YeevyUvF7uNzMJiPXJwP-50" value="" style="image;aspect=fixed;html=1;points=[];align=center;fontSize=12;image=img/lib/azure2/iot/Azure_Maps_Accounts.svg;" vertex="1" parent="1">
          <mxGeometry x="687.385" y="343" width="34" height="34" as="geometry" />
        </mxCell>
        <mxCell id="YeevyUvF7uNzMJiPXJwP-51" value="Azure Maps" style="text;html=1;align=center;verticalAlign=middle;whiteSpace=wrap;rounded=0;" vertex="1" parent="1">
          <mxGeometry x="666.26" y="381" width="76.25" height="20" as="geometry" />
        </mxCell>
        <mxCell id="YeevyUvF7uNzMJiPXJwP-54" value="&lt;b&gt;&lt;font style=&quot;font-size: 14px;&quot; face=&quot;Segoe UI&quot;&gt;QGIS&lt;/font&gt;&lt;/b&gt;" style="text;html=1;align=center;verticalAlign=middle;whiteSpace=wrap;rounded=0;" vertex="1" parent="1">
          <mxGeometry x="674.385" y="406" width="60" height="30" as="geometry" />
        </mxCell>
        <mxCell id="YeevyUvF7uNzMJiPXJwP-55" value="&lt;span style=&quot;font-family: &amp;quot;Segoe UI&amp;quot;; font-weight: 700; text-align: start; text-wrap: nowrap;&quot;&gt;&lt;font style=&quot;font-size: 14px;&quot;&gt;ArcGIS&lt;/font&gt;&lt;/span&gt;" style="text;html=1;align=center;verticalAlign=middle;whiteSpace=wrap;rounded=0;" vertex="1" parent="1">
          <mxGeometry x="674.385" y="429" width="60" height="30" as="geometry" />
        </mxCell>
        <mxCell id="YeevyUvF7uNzMJiPXJwP-56" value="&lt;font size=&quot;1&quot; color=&quot;#ffffff&quot; face=&quot;Segoe UI&quot; style=&quot;&quot;&gt;&lt;b style=&quot;font-size: 14px;&quot;&gt;1&lt;/b&gt;&lt;/font&gt;" style="ellipse;whiteSpace=wrap;html=1;aspect=fixed;fillColor=#00FF00;strokeColor=none;" vertex="1" parent="1">
          <mxGeometry x="100" y="244.5" width="22.5" height="22.5" as="geometry" />
        </mxCell>
        <mxCell id="YeevyUvF7uNzMJiPXJwP-57" value="&lt;font size=&quot;1&quot; color=&quot;#ffffff&quot; face=&quot;Segoe UI&quot; style=&quot;&quot;&gt;&lt;b style=&quot;font-size: 14px;&quot;&gt;2&lt;/b&gt;&lt;/font&gt;" style="ellipse;whiteSpace=wrap;html=1;aspect=fixed;fillColor=#00FF00;strokeColor=none;" vertex="1" parent="1">
          <mxGeometry x="245" y="244.5" width="22.5" height="22.5" as="geometry" />
        </mxCell>
        <mxCell id="YeevyUvF7uNzMJiPXJwP-60" value="&lt;font face=&quot;Segoe UI&quot; color=&quot;#ffffff&quot;&gt;&lt;span style=&quot;font-size: 14px;&quot;&gt;&lt;b&gt;3&lt;/b&gt;&lt;/span&gt;&lt;/font&gt;" style="ellipse;whiteSpace=wrap;html=1;aspect=fixed;fillColor=#00FF00;strokeColor=none;" vertex="1" parent="1">
          <mxGeometry x="237.5" y="365" width="22.5" height="22.5" as="geometry" />
        </mxCell>
        <mxCell id="YeevyUvF7uNzMJiPXJwP-62" value="" style="sketch=0;outlineConnect=0;fontColor=#232F3E;gradientColor=none;fillColor=#8C4FFF;strokeColor=none;dashed=0;verticalLabelPosition=bottom;verticalAlign=top;align=center;html=1;fontSize=12;fontStyle=0;aspect=fixed;pointerEvents=1;shape=mxgraph.aws4.quicksight_paginated_reports;" vertex="1" parent="1">
          <mxGeometry x="454.67" y="254" width="38.15" height="48" as="geometry" />
        </mxCell>
        <mxCell id="YeevyUvF7uNzMJiPXJwP-63" value="&lt;font size=&quot;1&quot; face=&quot;Segoe UI&quot;&gt;&lt;b style=&quot;font-size: 14px;&quot;&gt;GeoPandas&lt;/b&gt;&lt;/font&gt;" style="text;html=1;align=center;verticalAlign=middle;whiteSpace=wrap;rounded=0;" vertex="1" parent="1">
          <mxGeometry x="327.5" y="391.25" width="60" height="30" as="geometry" />
        </mxCell>
        <mxCell id="YeevyUvF7uNzMJiPXJwP-65" value="Data export to various geo format" style="text;html=1;align=center;verticalAlign=middle;whiteSpace=wrap;rounded=0;" vertex="1" parent="1">
          <mxGeometry x="308" y="419.75" width="99" height="40" as="geometry" />
        </mxCell>
        <mxCell id="YeevyUvF7uNzMJiPXJwP-67" value="Automated Reports" style="text;html=1;align=center;verticalAlign=middle;whiteSpace=wrap;rounded=0;" vertex="1" parent="1">
          <mxGeometry x="442.50000000000006" y="310" width="62.5" height="30" as="geometry" />
        </mxCell>
        <mxCell id="YeevyUvF7uNzMJiPXJwP-68" value="&lt;font face=&quot;Segoe UI&quot; color=&quot;#ffffff&quot;&gt;&lt;span style=&quot;font-size: 14px;&quot;&gt;&lt;b&gt;4&lt;/b&gt;&lt;/span&gt;&lt;/font&gt;" style="ellipse;whiteSpace=wrap;html=1;aspect=fixed;fillColor=#00FF00;strokeColor=none;" vertex="1" parent="1">
          <mxGeometry x="509.99" y="313.75" width="22.5" height="22.5" as="geometry" />
        </mxCell>
        <mxCell id="YeevyUvF7uNzMJiPXJwP-69" value="&lt;font face=&quot;Segoe UI&quot; color=&quot;#ffffff&quot;&gt;&lt;span style=&quot;font-size: 14px;&quot;&gt;&lt;b&gt;5&lt;/b&gt;&lt;/span&gt;&lt;/font&gt;" style="ellipse;whiteSpace=wrap;html=1;aspect=fixed;fillColor=#00FF00;strokeColor=none;" vertex="1" parent="1">
          <mxGeometry x="630" y="243.75" width="22.5" height="22.5" as="geometry" />
        </mxCell>
        <mxCell id="YeevyUvF7uNzMJiPXJwP-70" value="&lt;font face=&quot;Segoe UI&quot; color=&quot;#ffffff&quot;&gt;&lt;span style=&quot;font-size: 14px;&quot;&gt;&lt;b&gt;6&lt;/b&gt;&lt;/span&gt;&lt;/font&gt;" style="ellipse;whiteSpace=wrap;html=1;aspect=fixed;fillColor=#00FF00;strokeColor=none;" vertex="1" parent="1">
          <mxGeometry x="219.96" y="528.75" width="22.5" height="22.5" as="geometry" />
        </mxCell>
        <mxCell id="YeevyUvF7uNzMJiPXJwP-72" value="" style="image;aspect=fixed;html=1;points=[];align=center;fontSize=12;image=img/lib/azure2/ai_machine_learning/AI_Studio.svg;" vertex="1" parent="1">
          <mxGeometry x="495.36" y="350" width="51.76" height="55" as="geometry" />
        </mxCell>
        <mxCell id="YeevyUvF7uNzMJiPXJwP-73" value="Azure Machine Learning" style="text;html=1;align=center;verticalAlign=middle;whiteSpace=wrap;rounded=0;" vertex="1" parent="1">
          <mxGeometry x="480" y="409" width="84.64" height="30" as="geometry" />
        </mxCell>
        <mxCell id="YeevyUvF7uNzMJiPXJwP-76" value="Processing and analysis" style="text;html=1;align=center;verticalAlign=middle;whiteSpace=wrap;rounded=0;fontStyle=1" vertex="1" parent="1">
          <mxGeometry x="258.25" y="361.25" width="148.75" height="30" as="geometry" />
        </mxCell>
      </root>
    </mxGraphModel>
  </diagram>
</mxfile>
